<svg width="213" height="58" viewBox="0 0 213 58" fill="none" xmlns="http://www.w3.org/2000/svg">
<path d="M75.3969 28.34C75.3969 30.1253 74.8943 31.8327 73.8889 33.462C72.8836 35.0913 71.5923 36.4087 70.0149 37.414C68.4376 38.4193 66.8429 38.922 65.2309 38.922C64.2949 38.922 63.4109 38.7313 62.5789 38.35C61.7469 37.9513 61.0709 37.3707 60.5509 36.608C60.0309 35.8453 59.7709 34.9267 59.7709 33.852C59.7709 32.0147 60.2476 30.1167 61.2009 28.158C62.1543 26.182 63.4803 24.3273 65.1789 22.594C65.3523 22.438 65.5169 22.334 65.6729 22.282C65.8289 22.23 66.0109 22.204 66.2189 22.204C66.3923 22.204 66.5569 22.2473 66.7129 22.334C66.8863 22.4207 66.9729 22.5247 66.9729 22.646C66.9729 22.7153 66.9383 22.8193 66.8689 22.958C66.8169 23.0793 66.7823 23.1573 66.7649 23.192C66.8689 23.192 66.9903 23.1833 67.1289 23.166C67.2849 23.1313 67.5796 23.114 68.0129 23.114C68.5156 23.114 69.1916 23.2007 70.0409 23.374C70.9076 23.53 71.5403 23.6947 71.9389 23.868C73.0656 24.3707 73.9236 25.0207 74.5129 25.818C75.1023 26.598 75.3969 27.4387 75.3969 28.34ZM74.2789 28.886C74.2789 27.8807 74.0449 27.066 73.5769 26.442C73.1089 25.8007 72.4156 25.272 71.4969 24.856C70.9943 24.6307 70.3616 24.518 69.5989 24.518C69.3563 24.518 69.0269 24.5353 68.6109 24.57L67.6489 24.596C66.8169 24.596 66.4009 24.4227 66.4009 24.076C66.4009 23.9547 66.4096 23.842 66.4269 23.738C66.4443 23.634 66.4616 23.5647 66.4789 23.53C66.1149 23.53 65.8203 23.634 65.5949 23.842C64.1736 25.3153 63.0729 26.884 62.2929 28.548C61.5303 30.212 61.1489 31.8327 61.1489 33.41C61.1489 34.8833 61.5129 35.958 62.2409 36.634C62.9863 37.2927 64.0003 37.622 65.2829 37.622C66.7389 37.622 68.1603 37.206 69.5469 36.374C70.9509 35.542 72.0863 34.45 72.9529 33.098C73.8369 31.746 74.2789 30.342 74.2789 28.886ZM87.0663 39.182C87.0663 39.39 86.9796 39.5633 86.8063 39.702C86.6329 39.858 86.4249 39.936 86.1823 39.936C86.0089 39.936 85.8616 39.8927 85.7403 39.806C85.6189 39.7367 85.5583 39.6327 85.5583 39.494C85.5583 38.7833 85.6103 37.6827 85.7143 36.192C85.8183 34.5973 85.8703 33.2713 85.8703 32.214C85.8703 31.1913 85.8356 30.3593 85.7663 29.718C85.7143 29.0593 85.5756 28.73 85.3503 28.73C84.7609 28.73 84.1109 29.4667 83.4003 30.94C82.7069 32.396 81.9096 34.32 81.0083 36.712L80.6183 37.752C80.5489 37.9253 80.4276 38.064 80.2543 38.168C80.0983 38.272 79.9336 38.324 79.7603 38.324C79.5523 38.324 79.4136 38.3067 79.3443 38.272C79.2749 38.2373 79.2316 38.1333 79.2143 37.96L79.0063 35.828L78.6163 32.084C78.4949 30.5933 78.3476 29.2933 78.1743 28.184C78.1223 27.924 78.0963 27.7247 78.0963 27.586C78.0963 27.326 78.2089 27.118 78.4343 26.962C78.6596 26.7887 78.9196 26.702 79.2143 26.702C79.3876 26.702 79.5089 27.118 79.5783 27.95C79.6649 28.782 79.7516 30.1253 79.8383 31.98L79.9423 33.358C80.0809 35.1087 80.1589 36.218 80.1763 36.686C80.2283 36.582 80.2716 36.4693 80.3063 36.348C80.3583 36.2093 80.4189 36.062 80.4883 35.906C81.4243 33.4793 82.2996 31.46 83.1143 29.848C83.9463 28.2187 84.7436 27.404 85.5063 27.404C86.0436 27.404 86.4076 27.8633 86.5983 28.782C86.8063 29.6833 86.9363 30.8447 86.9883 32.266C87.0403 33.8433 87.0663 36.1487 87.0663 39.182ZM92.6293 38.298C92.6293 38.4713 92.5166 38.61 92.2913 38.714C92.0659 38.818 91.8146 38.87 91.5373 38.87C91.3293 38.87 91.1299 38.6273 90.9393 38.142C90.7659 37.6393 90.6793 36.8853 90.6793 35.88C90.6966 33.9213 90.7226 31.5553 90.7573 28.782C90.8093 26.0087 90.8526 23.92 90.8873 22.516C90.9046 22.0133 90.9913 21.5453 91.1473 21.112C91.3206 20.6787 91.6153 20.462 92.0312 20.462C92.1699 20.462 92.2566 20.54 92.2913 20.696C92.3433 20.8347 92.3693 21.112 92.3693 21.528C92.3693 21.5453 92.3606 21.606 92.3433 21.71C92.3433 21.7967 92.3433 21.9613 92.3433 22.204C92.0313 26.7627 91.8753 31.2087 91.8753 35.542C91.8753 36.0967 91.9966 36.686 92.2393 37.31C92.4993 37.934 92.6293 38.2633 92.6293 38.298ZM97.0283 22.724C97.0283 22.984 96.7423 23.114 96.1703 23.114C95.8757 23.114 95.5723 22.9927 95.2603 22.75C94.9657 22.5073 94.8183 22.308 94.8183 22.152C94.8183 21.9613 94.905 21.7793 95.0783 21.606C95.269 21.4327 95.4597 21.346 95.6503 21.346C95.6503 21.346 95.711 21.372 95.8323 21.424C95.971 21.4587 96.127 21.5713 96.3003 21.762C96.439 21.9007 96.595 22.0827 96.7683 22.308C96.9417 22.5333 97.0283 22.672 97.0283 22.724ZM97.6783 39.078C97.6783 39.2513 97.6003 39.3813 97.4443 39.468C97.3057 39.572 97.141 39.6153 96.9503 39.598C96.7077 39.5807 96.5257 39.1907 96.4043 38.428C96.3003 37.6653 96.1877 36.218 96.0663 34.086C95.997 32.682 95.9363 31.3127 95.8843 29.978C95.8323 28.626 95.7977 27.586 95.7803 26.858C95.7803 26.6673 95.8063 26.5287 95.8583 26.442C95.9277 26.338 96.049 26.286 96.2223 26.286C96.621 26.286 96.8723 26.4507 96.9763 26.78C97.0803 27.1093 97.1323 27.742 97.1323 28.678L97.1063 31.746C97.1063 33.4967 97.1583 34.9007 97.2623 35.958C97.2623 36.01 97.3403 36.5647 97.4963 37.622C97.6177 38.35 97.6783 38.8353 97.6783 39.078ZM109.892 39.182C109.892 39.39 109.806 39.5633 109.632 39.702C109.459 39.858 109.251 39.936 109.008 39.936C108.835 39.936 108.688 39.8927 108.566 39.806C108.445 39.7367 108.384 39.6327 108.384 39.494C108.384 38.7833 108.436 37.6827 108.54 36.192C108.644 34.5973 108.696 33.2713 108.696 32.214C108.696 31.1913 108.662 30.3593 108.592 29.718C108.54 29.0593 108.402 28.73 108.176 28.73C107.587 28.73 106.937 29.4667 106.226 30.94C105.533 32.396 104.736 34.32 103.834 36.712L103.444 37.752C103.375 37.9253 103.254 38.064 103.08 38.168C102.924 38.272 102.76 38.324 102.586 38.324C102.378 38.324 102.24 38.3067 102.17 38.272C102.101 38.2373 102.058 38.1333 102.04 37.96L101.832 35.828L101.442 32.084C101.321 30.5933 101.174 29.2933 101 28.184C100.948 27.924 100.922 27.7247 100.922 27.586C100.922 27.326 101.035 27.118 101.26 26.962C101.486 26.7887 101.746 26.702 102.04 26.702C102.214 26.702 102.335 27.118 102.404 27.95C102.491 28.782 102.578 30.1253 102.664 31.98L102.768 33.358C102.907 35.1087 102.985 36.218 103.002 36.686C103.054 36.582 103.098 36.4693 103.132 36.348C103.184 36.2093 103.245 36.062 103.314 35.906C104.25 33.4793 105.126 31.46 105.94 29.848C106.772 28.2187 107.57 27.404 108.332 27.404C108.87 27.404 109.234 27.8633 109.424 28.782C109.632 29.6833 109.762 30.8447 109.814 32.266C109.866 33.8433 109.892 36.1487 109.892 39.182ZM122.761 32.37C122.883 32.37 122.943 32.5 122.943 32.76C122.943 33.072 122.709 33.7567 122.241 34.814C121.791 35.8713 121.097 36.8507 120.161 37.752C119.243 38.6533 118.107 39.104 116.755 39.104C115.646 39.104 114.719 38.7573 113.973 38.064C113.228 37.3707 112.855 36.3047 112.855 34.866C112.855 33.514 113.167 32.1793 113.791 30.862C114.415 29.5273 115.23 28.444 116.235 27.612C117.241 26.7627 118.281 26.338 119.355 26.338C119.997 26.338 120.534 26.4853 120.967 26.78C121.418 27.0573 121.643 27.4647 121.643 28.002C121.643 28.6087 121.297 29.198 120.603 29.77C119.927 30.342 119.043 30.8447 117.951 31.278C116.859 31.7113 115.733 32.0233 114.571 32.214C114.363 33.0113 114.259 33.7913 114.259 34.554C114.259 35.5593 114.493 36.3393 114.961 36.894C115.447 37.4487 116.131 37.726 117.015 37.726C118.35 37.726 119.433 37.2493 120.265 36.296C121.097 35.3427 121.791 34.268 122.345 33.072C122.38 33.0027 122.441 32.8727 122.527 32.682C122.614 32.474 122.692 32.37 122.761 32.37ZM120.473 28.288C120.473 28.0107 120.326 27.794 120.031 27.638C119.754 27.482 119.425 27.404 119.043 27.404C118.385 27.404 117.752 27.6207 117.145 28.054C116.539 28.4873 116.027 29.0073 115.611 29.614C115.213 30.2207 114.953 30.758 114.831 31.226C115.629 31.1393 116.469 30.914 117.353 30.55C118.237 30.186 118.974 29.7873 119.563 29.354C120.17 28.9207 120.473 28.5653 120.473 28.288ZM146.577 36.738C146.577 36.9633 146.525 37.1627 146.421 37.336C146.317 37.5093 146.204 37.596 146.083 37.596C145.233 37.596 143.422 37.0153 140.649 35.854L139.947 35.542C138.959 35.126 138.187 34.814 137.633 34.606C137.095 34.398 136.575 34.2247 136.073 34.086C136.073 36.2353 136.021 37.7433 135.917 38.61C135.726 39.3033 135.475 39.65 135.163 39.65C135.007 39.65 134.859 39.6067 134.721 39.52C134.599 39.4333 134.539 39.3207 134.539 39.182C134.539 38.87 134.565 38.4453 134.617 37.908C134.721 36.7987 134.773 35.8453 134.773 35.048V33.956C134.599 33.8347 134.469 33.7307 134.383 33.644C134.313 33.54 134.279 33.4273 134.279 33.306C134.279 33.15 134.322 33.0113 134.409 32.89C134.513 32.7513 134.625 32.63 134.747 32.526C134.868 32.4047 134.955 32.3093 135.007 32.24C135.024 31.876 135.033 31.2433 135.033 30.342C135.033 28.0887 134.712 25.7053 134.071 23.192L133.967 22.672C133.967 22.4293 134.062 22.2387 134.253 22.1C134.461 21.9613 134.695 21.892 134.955 21.892C135.145 21.892 135.336 22.2647 135.527 23.01C135.735 23.7553 135.899 24.7087 136.021 25.87C136.142 27.014 136.203 28.1667 136.203 29.328V31.07C136.445 30.81 136.991 30.212 137.841 29.276C138.69 28.34 139.522 27.404 140.337 26.468C141.706 24.856 142.763 23.4173 143.509 22.152C143.699 21.8053 143.933 21.3547 144.211 20.8C144.471 20.2627 144.635 19.994 144.705 19.994C144.895 19.994 144.991 20.202 144.991 20.618C144.991 21.1207 144.913 21.606 144.757 22.074C144.601 22.5247 144.375 23.01 144.081 23.53C143.595 24.3793 143.032 25.22 142.391 26.052C141.767 26.8667 140.969 27.794 139.999 28.834C139.635 29.2153 139.314 29.5447 139.037 29.822C138.759 30.0993 138.517 30.3507 138.309 30.576C137.407 31.4773 136.688 32.2313 136.151 32.838C136.376 32.9247 136.896 33.1153 137.711 33.41C138.543 33.7047 139.617 34.0773 140.935 34.528C141.871 34.8573 142.651 35.126 143.275 35.334C143.899 35.5247 144.436 35.698 144.887 35.854C144.991 35.8887 145.112 35.932 145.251 35.984C145.389 36.0187 145.537 36.062 145.693 36.114C146.282 36.3047 146.577 36.5127 146.577 36.738ZM149.13 22.724C149.13 22.984 148.844 23.114 148.272 23.114C147.977 23.114 147.674 22.9927 147.362 22.75C147.067 22.5073 146.92 22.308 146.92 22.152C146.92 21.9613 147.007 21.7793 147.18 21.606C147.371 21.4327 147.561 21.346 147.752 21.346C147.752 21.346 147.813 21.372 147.934 21.424C148.073 21.4587 148.229 21.5713 148.402 21.762C148.541 21.9007 148.697 22.0827 148.87 22.308C149.043 22.5333 149.13 22.672 149.13 22.724ZM149.78 39.078C149.78 39.2513 149.702 39.3813 149.546 39.468C149.407 39.572 149.243 39.6153 149.052 39.598C148.809 39.5807 148.627 39.1907 148.506 38.428C148.402 37.6653 148.289 36.218 148.168 34.086C148.099 32.682 148.038 31.3127 147.986 29.978C147.934 28.626 147.899 27.586 147.882 26.858C147.882 26.6673 147.908 26.5287 147.96 26.442C148.029 26.338 148.151 26.286 148.324 26.286C148.723 26.286 148.974 26.4507 149.078 26.78C149.182 27.1093 149.234 27.742 149.234 28.678L149.208 31.746C149.208 33.4967 149.26 34.9007 149.364 35.958C149.364 36.01 149.442 36.5647 149.598 37.622C149.719 38.35 149.78 38.8353 149.78 39.078ZM164.594 28.236C164.594 28.5307 164.464 28.756 164.204 28.912C163.961 29.068 163.511 29.1893 162.852 29.276C161.257 29.5533 160.365 29.7093 160.174 29.744L158.484 30.03C158.484 30.9313 158.493 31.876 158.51 32.864C158.545 33.852 158.588 34.7187 158.64 35.464C158.709 36.4693 158.831 37.2407 159.004 37.778C159.177 38.3153 159.273 38.6187 159.29 38.688C159.29 38.8613 159.177 39.0173 158.952 39.156C158.744 39.312 158.545 39.39 158.354 39.39C158.25 39.39 158.163 39.3553 158.094 39.286C158.025 39.234 157.964 39.1387 157.912 39C157.808 38.7573 157.704 38.3067 157.6 37.648C157.513 36.9893 157.444 36.2613 157.392 35.464C157.34 34.7533 157.297 33.93 157.262 32.994C157.245 32.0407 157.236 31.122 157.236 30.238C156.265 30.394 155.269 30.5847 154.246 30.81C153.327 31.0007 152.781 31.096 152.608 31.096C152.4 31.096 152.201 31.0353 152.01 30.914C151.837 30.7927 151.75 30.628 151.75 30.42C151.75 30.1947 151.828 30.0473 151.984 29.978C152.14 29.9087 152.4 29.874 152.764 29.874C153.024 29.874 153.405 29.8307 153.908 29.744C154.411 29.64 154.731 29.5707 154.87 29.536C156.031 29.3107 156.82 29.1633 157.236 29.094C157.236 28.73 157.219 28.2533 157.184 27.664C157.149 26.8667 157.132 26.26 157.132 25.844C157.132 25.168 157.149 24.648 157.184 24.284C157.236 23.9027 157.323 23.5647 157.444 23.27C157.583 22.9233 157.843 22.75 158.224 22.75C158.38 22.75 158.484 22.776 158.536 22.828C158.588 22.88 158.614 22.9753 158.614 23.114C158.614 23.218 158.571 23.5213 158.484 24.024C158.397 24.5267 158.354 25.194 158.354 26.026C158.354 26.6673 158.371 27.3867 158.406 28.184L158.432 28.886C159.212 28.7647 160.755 28.444 163.06 27.924C163.199 27.8893 163.311 27.768 163.398 27.56C163.502 27.352 163.606 27.248 163.71 27.248C163.901 27.248 164.091 27.3607 164.282 27.586C164.49 27.794 164.594 28.0107 164.594 28.236ZM173.802 33.28C173.802 33.384 173.62 33.7047 173.256 34.242C172.909 34.7793 172.554 35.2647 172.19 35.698C171.288 36.79 170.474 37.6307 169.746 38.22C169.035 38.8093 168.29 39.104 167.51 39.104C166.851 39.104 166.305 38.818 165.872 38.246C165.456 37.674 165.248 37.0153 165.248 36.27C165.248 35.1607 165.542 33.7567 166.132 32.058C166.721 30.3593 167.466 28.886 168.368 27.638C169.269 26.39 170.17 25.766 171.072 25.766C171.453 25.766 171.782 25.9047 172.06 26.182C172.216 26.338 172.363 26.546 172.502 26.806C172.64 27.066 172.71 27.3 172.71 27.508C172.71 27.8027 172.666 28.1493 172.58 28.548C172.51 28.9293 172.432 29.12 172.346 29.12C172.172 29.12 172.06 29.0247 172.008 28.834C171.956 28.6433 171.921 28.4007 171.904 28.106C171.852 27.6553 171.8 27.3607 171.748 27.222C171.696 27.066 171.618 26.988 171.514 26.988C170.699 26.988 169.91 27.56 169.148 28.704C168.385 29.8307 167.761 31.148 167.276 32.656C166.79 34.1467 166.548 35.2993 166.548 36.114C166.548 37.258 166.929 37.83 167.692 37.83C168.246 37.83 168.749 37.6913 169.2 37.414C169.668 37.1367 170.153 36.7467 170.656 36.244C171.592 35.2907 172.32 34.4673 172.84 33.774C172.874 33.722 172.97 33.592 173.126 33.384C173.299 33.1587 173.42 33.046 173.49 33.046C173.698 33.046 173.802 33.124 173.802 33.28ZM186.908 39.364C186.908 39.572 186.839 39.7453 186.7 39.884C186.561 40.04 186.379 40.118 186.154 40.118C185.981 40.118 185.833 40.0747 185.712 39.988C185.591 39.9187 185.53 39.8147 185.53 39.676L185.582 37.882C185.669 35.75 185.712 34.008 185.712 32.656C185.712 30.68 185.573 29.302 185.296 28.522C185.019 27.7247 184.698 27.326 184.334 27.326C183.519 27.326 182.497 28.5913 181.266 31.122C180.035 33.6353 178.848 36.3827 177.704 39.364C177.617 39.6067 177.496 39.8407 177.34 40.066C177.201 40.2913 177.054 40.404 176.898 40.404C176.517 40.404 176.326 40.2827 176.326 40.04C176.326 38.9827 176.283 37.0067 176.196 34.112C176.109 31.2 176.04 29.2847 175.988 28.366C175.832 25.2633 175.685 23.348 175.546 22.62C175.407 21.892 175.338 21.502 175.338 21.45C175.338 21.2767 175.433 21.1467 175.624 21.06C175.815 20.9733 176.057 20.93 176.352 20.93C176.595 20.93 176.768 21.4847 176.872 22.594C176.993 23.686 177.08 25.09 177.132 26.806L177.158 27.534C177.193 28.0713 177.219 29.614 177.236 32.162C177.253 34.6927 177.262 36.556 177.262 37.752C178.059 35.7587 178.805 33.982 179.498 32.422C180.209 30.862 181.023 29.406 181.942 28.054C182.861 26.6847 183.71 26 184.49 26C185.149 26 185.703 26.5547 186.154 27.664C186.605 28.756 186.83 30.394 186.83 32.578C186.83 33.5487 186.847 34.9007 186.882 36.634L186.908 39.364ZM199.924 32.37C200.045 32.37 200.106 32.5 200.106 32.76C200.106 33.072 199.872 33.7567 199.404 34.814C198.953 35.8713 198.26 36.8507 197.324 37.752C196.405 38.6533 195.27 39.104 193.918 39.104C192.808 39.104 191.881 38.7573 191.136 38.064C190.39 37.3707 190.018 36.3047 190.018 34.866C190.018 33.514 190.33 32.1793 190.954 30.862C191.578 29.5273 192.392 28.444 193.398 27.612C194.403 26.7627 195.443 26.338 196.518 26.338C197.159 26.338 197.696 26.4853 198.13 26.78C198.58 27.0573 198.806 27.4647 198.806 28.002C198.806 28.6087 198.459 29.198 197.766 29.77C197.09 30.342 196.206 30.8447 195.114 31.278C194.022 31.7113 192.895 32.0233 191.734 32.214C191.526 33.0113 191.422 33.7913 191.422 34.554C191.422 35.5593 191.656 36.3393 192.124 36.894C192.609 37.4487 193.294 37.726 194.178 37.726C195.512 37.726 196.596 37.2493 197.428 36.296C198.26 35.3427 198.953 34.268 199.508 33.072C199.542 33.0027 199.603 32.8727 199.69 32.682C199.776 32.474 199.854 32.37 199.924 32.37ZM197.636 28.288C197.636 28.0107 197.488 27.794 197.194 27.638C196.916 27.482 196.587 27.404 196.206 27.404C195.547 27.404 194.914 27.6207 194.308 28.054C193.701 28.4873 193.19 29.0073 192.774 29.614C192.375 30.2207 192.115 30.758 191.994 31.226C192.791 31.1393 193.632 30.914 194.516 30.55C195.4 30.186 196.136 29.7873 196.726 29.354C197.332 28.9207 197.636 28.5653 197.636 28.288ZM211.074 39.182C211.074 39.39 210.987 39.5633 210.814 39.702C210.641 39.858 210.433 39.936 210.19 39.936C210.017 39.936 209.869 39.8927 209.748 39.806C209.627 39.7367 209.566 39.6327 209.566 39.494C209.566 38.7833 209.618 37.6827 209.722 36.192C209.826 34.5973 209.878 33.2713 209.878 32.214C209.878 31.1913 209.843 30.3593 209.774 29.718C209.722 29.0593 209.583 28.73 209.358 28.73C208.769 28.73 208.119 29.4667 207.408 30.94C206.715 32.396 205.917 34.32 205.016 36.712L204.626 37.752C204.557 37.9253 204.435 38.064 204.262 38.168C204.106 38.272 203.941 38.324 203.768 38.324C203.56 38.324 203.421 38.3067 203.352 38.272C203.283 38.2373 203.239 38.1333 203.222 37.96L203.014 35.828L202.624 32.084C202.503 30.5933 202.355 29.2933 202.182 28.184C202.13 27.924 202.104 27.7247 202.104 27.586C202.104 27.326 202.217 27.118 202.442 26.962C202.667 26.7887 202.927 26.702 203.222 26.702C203.395 26.702 203.517 27.118 203.586 27.95C203.673 28.782 203.759 30.1253 203.846 31.98L203.95 33.358C204.089 35.1087 204.167 36.218 204.184 36.686C204.236 36.582 204.279 36.4693 204.314 36.348C204.366 36.2093 204.427 36.062 204.496 35.906C205.432 33.4793 206.307 31.46 207.122 29.848C207.954 28.2187 208.751 27.404 209.514 27.404C210.051 27.404 210.415 27.8633 210.606 28.782C210.814 29.6833 210.944 30.8447 210.996 32.266C211.048 33.8433 211.074 36.1487 211.074 39.182Z" fill="white"/>
<path d="M30.3712 54.6034C44.0701 54.6034 55.1753 43.4982 55.1753 29.7993C55.1753 16.1004 44.0701 4.99524 30.3712 4.99524C16.6723 4.99524 5.56714 16.1004 5.56714 29.7993C5.56714 43.4982 16.6723 54.6034 30.3712 54.6034Z" fill="#FFE9CC"/>
<path d="M30.4173 51.0364C42.1212 51.0364 51.6091 41.5485 51.6091 29.8446C51.6091 18.1408 42.1212 8.65289 30.4173 8.65289C18.7135 8.65289 9.22559 18.1408 9.22559 29.8446C9.22559 41.5485 18.7135 51.0364 30.4173 51.0364Z" fill="#FFD59E"/>
<path d="M27.9414 49.6407C27.3963 49.6324 26.8637 49.4757 26.4008 49.1876C26.341 49.1986 26.2804 49.2041 26.2196 49.2039C26.0484 49.2078 25.8817 49.1488 25.751 49.0381C25.5861 48.8949 25.3215 48.6103 25.1883 48.4626C25.1005 48.4737 25.0121 48.4791 24.9236 48.4789C24.6106 48.4865 24.3019 48.4037 24.0346 48.2406C23.7666 48.0666 23.5251 47.8548 23.3178 47.6116C22.7302 47.508 22.2072 47.1769 21.8623 46.69C21.6158 46.2369 21.4319 45.8798 21.3403 45.6976H21.3149C21.0167 45.705 20.7192 45.6656 20.4332 45.5807C20.0544 45.4466 19.8224 44.8168 19.7444 44.466C19.696 44.3302 19.6798 44.1851 19.6971 44.042C19.7144 43.8988 19.7648 43.7617 19.8441 43.6413C19.9211 43.5661 19.8269 43.306 19.7535 43.1882L19.6094 42.9164C19.2677 42.8375 18.9514 42.6535 18.9877 42.3436C19.0122 42.1288 19.1626 41.2371 19.2088 40.9688L18.9632 40.5075C18.8032 40.1789 18.7772 39.801 18.8907 39.4536C18.929 39.3396 18.9813 39.2309 19.0466 39.13C18.6361 39.2338 18.2179 39.3038 17.796 39.3394H17.7896C17.6827 39.3394 17.5975 39.3475 17.5078 39.3557C17.3909 39.3666 17.2676 39.3774 17.1453 39.3774C16.9061 39.3862 16.6691 39.3281 16.4611 39.2098C16.2618 39.2998 16.0454 39.3459 15.8267 39.3448C15.5257 39.3413 15.23 39.2652 14.9649 39.1228C14.3459 38.8011 14.1982 38.4377 14.1791 38.2011L13.6843 38.0734L13.6444 38.038C13.473 37.8826 13.3412 37.6884 13.2602 37.4716C13.1481 37.4415 13.0438 37.3874 12.9546 37.3131C12.8654 37.2388 12.7935 37.146 12.7436 37.0411C12.4109 37.0299 12.087 36.9311 11.8048 36.7546C11.5225 36.5781 11.2918 36.3303 11.1359 36.0361C10.8381 35.4183 10.7675 34.7152 10.9366 34.0505C10.8789 33.951 10.8443 33.8399 10.8352 33.7252C10.8261 33.6106 10.8428 33.4954 10.884 33.388C10.9692 33.1887 11.1559 32.8497 11.2601 32.6775C11.0827 32.3158 11.0334 31.9046 11.1205 31.5112C11.2051 31.2035 11.3329 30.9093 11.5003 30.6376C11.4205 30.0459 11.5774 29.4466 11.9371 28.9701C12.2905 28.5985 12.5778 28.313 12.7228 28.1699C12.6221 27.8804 12.5664 27.5772 12.5579 27.2709C12.5733 26.7425 13.5547 26.0701 14.0124 26.0701C14.0867 26.0689 14.1601 26.086 14.2263 26.1199H14.2399C14.3935 26.0949 14.5329 26.015 14.6323 25.8952L14.8452 25.6759C14.8304 25.5207 14.8452 25.3642 14.8887 25.2146C14.8749 25.1959 14.8625 25.1762 14.8516 25.1557C14.8029 25.079 14.7502 25.0049 14.6939 24.9336C14.4501 24.6645 14.3 24.3237 14.2661 23.9621C14.0526 23.8129 13.877 23.6157 13.7533 23.3865C13.6296 23.1572 13.5613 22.9021 13.5538 22.6417C13.5087 22.4338 13.5192 22.2177 13.5843 22.0152C13.6494 21.8126 13.7667 21.6308 13.9245 21.4881L13.774 21.0005L13.7822 20.947C13.8243 20.7196 13.9207 20.5057 14.0631 20.3235V20.3181C14.0312 20.2084 14.0232 20.0931 14.0398 19.98C14.0563 19.867 14.0971 19.7588 14.1592 19.6629C13.9911 19.3734 13.9038 19.0442 13.9062 18.7095C13.9085 18.3748 14.0006 18.0468 14.1728 17.7598C14.542 17.1818 15.1033 16.7527 15.7578 16.5481C15.8118 16.4466 15.8878 16.3585 15.9804 16.2902C16.0729 16.222 16.1796 16.1754 16.2925 16.1539C16.5073 16.1231 16.897 16.1077 17.0945 16.1013C17.3102 15.7613 17.6343 15.5039 18.0144 15.3709C18.3112 15.2838 18.6186 15.2381 18.9279 15.2349H18.9578C19.3524 14.925 19.8304 14.7395 20.3308 14.7021C20.4221 14.7022 20.5132 14.7117 20.6026 14.7302C21.1056 14.8371 21.4998 14.9304 21.6965 14.9794C21.8903 14.7415 22.1195 14.5349 22.3762 14.3668C22.4793 14.3123 22.5949 14.2858 22.7115 14.2897C23.2054 14.2897 24.2004 14.6939 24.2313 15.1824C24.2313 15.2331 24.3001 15.2902 24.4016 15.3364L24.4279 15.2812C24.2601 14.9916 24.1729 14.6623 24.1755 14.3276C24.178 13.9929 24.2702 13.665 24.4424 13.378C24.8111 12.8 25.3722 12.3709 26.0265 12.1664C26.0815 12.0665 26.158 11.9801 26.2505 11.9135C26.3429 11.8469 26.4491 11.8017 26.5612 11.7812C26.776 11.7504 27.1648 11.735 27.3633 11.7287C27.5788 11.3883 27.9029 11.1306 28.2831 10.9973C28.5775 10.9109 28.8825 10.8654 29.1894 10.8623H29.222C29.616 10.552 30.0938 10.3664 30.594 10.3294C30.6854 10.3296 30.7765 10.339 30.8659 10.3575C31.3689 10.4644 31.7613 10.5578 31.9589 10.6067C32.1526 10.3689 32.3819 10.1622 32.6385 9.9941C32.7417 9.93967 32.8573 9.91311 32.9739 9.91707C33.4678 9.91707 34.4628 10.3213 34.4936 10.8097C34.5018 10.9158 34.7601 11.0136 34.8978 11.0363L35.1969 11.1024C35.3529 10.9772 35.5417 10.8995 35.7406 10.8786C35.7961 10.8774 35.8511 10.8879 35.9022 10.9095C35.9532 10.931 35.9992 10.9631 36.037 11.0037C36.1838 11.1614 36.762 11.8564 36.9369 12.0649L37.4471 12.1791C37.8014 12.2726 38.1055 12.5001 38.2954 12.8134C38.4188 13.0543 38.4916 13.318 38.5092 13.5881C38.5268 13.8582 38.4889 14.1291 38.3978 14.384L38.4114 14.4021C38.5508 14.5957 38.6111 14.8353 38.5799 15.0718C38.5549 15.1825 38.4975 15.2831 38.415 15.3609L38.482 15.6727C38.7717 15.8277 39.0099 16.0639 39.1672 16.3524C39.1753 16.3524 39.2424 16.3524 39.2687 16.3524C39.4417 16.1172 39.6664 15.9251 39.9255 15.7907C40.1847 15.6564 40.4712 15.5834 40.7631 15.5775C40.8467 15.5776 40.9303 15.5833 41.0132 15.5947C41.6921 15.699 42.3122 16.0399 42.7641 16.5572C42.8784 16.5644 42.9896 16.5976 43.0892 16.6543C43.1887 16.711 43.2741 16.7897 43.3386 16.8843C43.4546 17.0656 43.6259 17.4172 43.7111 17.5966C44.1098 17.6545 44.4771 17.8462 44.7524 18.1404C44.9589 18.3836 45.1289 18.6556 45.2572 18.9479C45.7901 19.2164 46.1955 19.6844 46.3854 20.2501C46.4924 20.7522 46.5667 21.15 46.6002 21.3512C46.8965 21.4314 47.1784 21.5574 47.4358 21.7246C47.7602 21.9611 47.7983 22.6309 47.7747 22.9934C47.753 23.2716 47.6778 23.6277 47.4403 23.7528C47.3497 23.8026 47.3624 24.079 47.3968 24.2132L47.4557 24.5122C47.7611 24.6862 48.0104 24.9536 47.8871 25.2372C47.7965 25.4348 47.4004 26.2459 47.279 26.4888L47.3814 27.0026C47.4405 27.3631 47.3566 27.7325 47.1476 28.0321C46.9775 28.2428 46.7659 28.4164 46.526 28.542C46.2861 28.6677 46.023 28.7427 45.7529 28.7625L45.7411 28.7816C45.6749 28.9011 45.5811 29.0031 45.4674 29.0789C45.3537 29.1548 45.2235 29.2023 45.0877 29.2175C45.0117 29.2177 44.9364 29.2022 44.8666 29.1722L44.6119 29.3534C44.6113 29.7169 44.469 30.0658 44.2151 30.3259C43.9612 30.5861 43.6159 30.7369 43.2525 30.7463L42.7795 30.6657C42.7312 30.7415 42.6641 30.8034 42.5846 30.8453C42.5052 30.8873 42.4162 30.9078 42.3264 30.9049C42.3001 30.9049 42.2738 30.9049 42.2466 30.9004C42.0485 31.0109 41.8255 31.0689 41.5986 31.0689C41.2584 31.0629 40.9306 30.9404 40.6697 30.7219L40.116 30.5868C39.9681 30.6258 39.8159 30.6462 39.6629 30.6475C39.4277 30.6588 39.1968 30.5815 39.0158 30.4309L38.3896 29.8709C38.3896 29.8709 38.0951 29.6597 37.8848 29.4721C37.684 29.1917 37.574 28.8564 37.5695 28.5115L37.3084 28.3457C37.0752 28.3602 36.8416 28.3223 36.6249 28.2348C36.4082 28.1473 36.2138 28.0124 36.056 27.84C35.6352 27.5804 35.2339 27.2906 34.8552 26.9727C34.6613 26.807 34.4391 26.6777 34.1991 26.5912C34.0467 26.5451 33.909 26.4602 33.7994 26.3447C33.6454 26.138 33.746 25.7556 33.8719 25.4457C33.8159 25.2543 33.7917 25.0549 33.8004 24.8557C33.7316 24.7547 33.6883 24.6386 33.6739 24.5173C33.6596 24.396 33.6746 24.273 33.7179 24.1588C33.6535 24.0419 33.5557 23.8661 33.4959 23.7437C33.3958 23.5338 33.3361 23.3069 33.32 23.0749C33.0104 23.2767 32.688 23.4584 32.3549 23.6187C32.1246 23.7286 31.9161 23.8793 31.7395 24.0636C31.6364 24.1849 31.5028 24.2766 31.3526 24.3292H31.339C31.0357 24.2861 30.7587 24.1332 30.5605 23.8996C30.3624 23.873 30.1699 23.8146 29.9905 23.7265C29.9454 23.7318 29.9 23.7345 29.8545 23.7347C29.7553 23.7401 29.656 23.7237 29.5638 23.6866C29.4715 23.6495 29.3886 23.5926 29.3208 23.5199C29.1884 23.5326 28.9882 23.5498 28.8513 23.5561H28.8368C28.7352 23.5561 28.6338 23.5489 28.5332 23.5344C28.3889 23.8239 28.1537 24.0582 27.8635 24.2014L27.5164 24.6545C27.499 24.8462 27.4369 25.0312 27.3351 25.1945C27.2332 25.3579 27.0945 25.4951 26.9301 25.5952L26.1643 25.9405C26.1643 25.9405 25.8525 26.1217 25.5952 26.2414C25.5092 26.2773 25.4164 26.294 25.3233 26.2903C25.0718 26.276 24.8237 26.2257 24.5865 26.1408L24.33 26.3111C24.1952 26.6222 23.9815 26.8927 23.7102 27.0959C23.7872 27.3084 23.8181 27.5349 23.8008 27.7602L24.002 28.2931C24.1567 28.4088 24.2819 28.5594 24.3674 28.7326C24.4529 28.9058 24.4963 29.0968 24.4941 29.29L24.3862 30.1228C24.3862 30.1228 24.379 30.4853 24.3436 30.7644C24.3056 31.0572 23.9358 31.3988 23.7301 31.5683L23.741 31.8737C23.8831 32.0594 23.9829 32.2741 24.0331 32.5025C24.0834 32.731 24.083 32.9677 24.0319 33.1959C24.0566 33.69 24.0448 34.1853 23.9965 34.6776C23.9865 34.7597 23.9828 34.8424 23.9857 34.925C24.0989 34.943 24.2098 34.9734 24.3164 35.0157L24.8856 34.9858C25.1099 34.8418 25.3679 34.759 25.6341 34.7456C25.7539 34.7441 25.8726 34.7695 25.9812 34.8199L26.7416 35.1761C26.7416 35.1761 27.085 35.293 27.3397 35.4126C27.6133 35.6228 27.8153 35.9124 27.9179 36.2418L28.2124 36.3243C28.4132 36.2635 28.6216 36.2315 28.8314 36.2291C29.0926 36.2184 29.3498 36.2956 29.5618 36.4484C30.0393 36.5757 30.507 36.7374 30.9611 36.9324C31.1939 37.0371 31.4439 37.0986 31.6988 37.1136C31.8579 37.1134 32.0142 37.1553 32.1519 37.2351C32.3585 37.3882 32.3721 37.7788 32.3413 38.1159C32.4494 38.2833 32.5302 38.4669 32.5805 38.6597C32.6751 38.737 32.7498 38.8359 32.7983 38.948C32.8469 39.0601 32.8679 39.1822 32.8597 39.304C32.9557 39.3947 33.0989 39.5369 33.1923 39.6366C33.4399 39.909 33.5995 40.2498 33.6499 40.6145C33.6591 40.9109 33.5864 41.2041 33.4397 41.4618C33.5837 41.5937 33.6813 41.7685 33.7179 41.9603C33.7486 42.74 33.6801 43.5205 33.514 44.283C33.4872 44.3697 33.4648 44.4577 33.4469 44.5467C33.4017 44.9069 33.2404 45.2425 32.9874 45.5028C33.0134 45.7622 32.9781 46.0241 32.8844 46.2674C32.7908 46.5108 32.6414 46.7287 32.4482 46.9039C32.2094 47.1859 31.8686 47.3619 31.5003 47.3932C31.4433 47.393 31.3865 47.3867 31.3308 47.3742L31.0589 47.8047L31.0136 47.8319C30.8135 47.9479 30.5886 48.0144 30.3575 48.0258C30.295 48.1217 30.2125 48.203 30.1157 48.2641C30.0189 48.3253 29.91 48.3649 29.7965 48.3801C29.6859 48.6952 29.4931 48.9749 29.2382 49.1906C28.9834 49.4063 28.6755 49.5501 28.3465 49.6072C28.2126 49.6289 28.0771 49.6401 27.9414 49.6407Z" fill="#FFD59E"/>
<path d="M32.9812 10.15C33.447 10.15 34.2572 10.5442 34.2762 10.8306C34.298 11.1722 34.868 11.2665 34.868 11.2665L35.2586 11.3571C35.3974 11.2351 35.5658 11.1516 35.747 11.1152C35.771 11.114 35.7948 11.118 35.8171 11.1269C35.8393 11.1358 35.8593 11.1494 35.8757 11.1668C36.0479 11.3526 36.8173 12.2797 36.8173 12.2797L37.4037 12.4102C37.4037 12.4102 38.6724 12.6775 38.1667 14.3949C38.161 14.4087 38.1581 14.4237 38.1584 14.4387C38.1586 14.4537 38.1619 14.4685 38.1681 14.4822C38.1744 14.4959 38.1833 14.5081 38.1944 14.5182C38.2056 14.5283 38.2187 14.536 38.2329 14.5408C38.2329 14.5408 38.5891 15.0383 38.1676 15.273L38.2891 15.8331C38.624 15.9845 38.8885 16.2581 39.0286 16.598C39.0849 16.589 39.1419 16.5848 39.199 16.5853C39.2613 16.5852 39.3237 16.5889 39.3856 16.5962C39.5363 16.3639 39.7407 16.1713 39.9816 16.0349C40.2225 15.8984 40.4928 15.822 40.7695 15.8122C40.8428 15.8126 40.9161 15.8178 40.9888 15.8277C41.6435 15.9313 42.2372 16.2718 42.6572 16.7847H42.6744C42.7665 16.7815 42.858 16.8006 42.9412 16.8404C43.0243 16.8801 43.0967 16.9393 43.152 17.013C43.3079 17.2595 43.5653 17.8123 43.5653 17.8123C43.9512 17.8479 44.3121 18.019 44.5839 18.2954C44.7948 18.5404 44.9636 18.8188 45.0832 19.1192C45.0832 19.1192 46.0158 19.5777 46.1707 20.3063C46.3257 21.035 46.4082 21.5416 46.4082 21.5416C46.7262 21.6185 47.0299 21.7454 47.3081 21.9177C47.6334 22.1551 47.6452 23.4021 47.3425 23.5607C47.0398 23.7193 47.183 24.2784 47.183 24.2784L47.261 24.6708C47.261 24.6708 47.7857 24.9255 47.6851 25.1584C47.5845 25.3913 47.0507 26.4697 47.0507 26.4697L47.1685 27.0588C47.1685 27.0588 47.4404 28.3276 45.6632 28.5596C45.6482 28.5597 45.6334 28.563 45.6198 28.5692C45.6061 28.5754 45.5938 28.5844 45.5838 28.5955C45.5737 28.6067 45.5661 28.6198 45.5614 28.634C45.5567 28.6483 45.5549 28.6633 45.5563 28.6783C45.5563 28.6783 45.3651 29.0027 45.0968 29.0027C45.0101 28.9998 44.9268 28.9679 44.8603 28.9121L44.3963 29.2492C44.4052 29.4088 44.3826 29.5687 44.3297 29.7195C44.2768 29.8704 44.1947 30.0094 44.0881 30.1285C43.9814 30.2476 43.8523 30.3445 43.7082 30.4136C43.5641 30.4828 43.4077 30.5229 43.2481 30.5316L42.6463 30.4228C42.6379 30.4991 42.6011 30.5695 42.5432 30.6199C42.4852 30.6703 42.4104 30.697 42.3337 30.6947C42.2907 30.6939 42.2479 30.6887 42.2059 30.6793C42.0284 30.798 41.8195 30.8611 41.606 30.8605C41.2993 30.85 41.0067 30.7297 40.7813 30.5216L40.1197 30.3594C39.9754 30.4035 39.8256 30.4267 39.6747 30.4282C39.4957 30.4375 39.3194 30.3811 39.179 30.2697L38.5528 29.7078C38.5528 29.7078 38.2574 29.4975 38.048 29.3108C37.8387 29.1242 37.7988 28.3883 37.7988 28.3883L37.3874 28.1273H37.3294C37.124 28.1415 36.9181 28.1085 36.7274 28.0309C36.5367 27.9533 36.3663 27.8331 36.2292 27.6796C35.8055 27.419 35.4009 27.1286 35.0184 26.8105C34.5707 26.4099 34.1122 26.3782 33.9925 26.2142C33.8729 26.0502 34.1221 25.4702 34.1221 25.4702C34.1221 25.4702 33.9781 24.911 34.0578 24.8213C34.0578 24.8213 33.7533 24.4407 33.9944 24.1724C33.9944 24.1724 33.8059 23.8425 33.7098 23.6495C33.5732 23.3603 33.5259 23.0369 33.5739 22.7206C33.582 22.6958 33.5916 22.6716 33.6029 22.6481C33.5875 22.6481 33.5739 22.659 33.5585 22.6617C33.1485 22.9437 32.7191 23.1963 32.2734 23.4175C31.7296 23.664 31.5131 24.0682 31.3137 24.1135C31.3041 24.1149 31.2943 24.1149 31.2847 24.1135C31.0753 24.1135 30.6847 23.6912 30.6847 23.6912C30.6847 23.6912 30.1156 23.6006 30.0658 23.4873C30.0004 23.5024 29.9335 23.51 29.8664 23.5099C29.7818 23.5183 29.6967 23.5012 29.6219 23.4609C29.5471 23.4205 29.4862 23.3587 29.4468 23.2834C29.4468 23.2834 29.0689 23.3214 28.8532 23.3314H28.8097C28.6726 23.3295 28.5363 23.3109 28.4037 23.2761C28.3504 23.4417 28.2625 23.594 28.1458 23.7229C28.0291 23.8518 27.8862 23.9544 27.7267 24.0238L27.3108 24.563C27.3108 24.563 27.25 25.2055 26.8486 25.3868L26.0819 25.733C26.0819 25.733 25.7692 25.9142 25.5137 26.0329C25.458 26.0546 25.3984 26.0644 25.3388 26.0619C25.0757 26.0402 24.817 25.9816 24.5703 25.8879L24.1652 26.1598C24.0282 26.5182 23.7666 26.8151 23.4284 26.9963C23.5643 27.2383 23.6196 27.5173 23.5861 27.7929L23.8262 28.4272C23.8262 28.4272 24.341 28.8169 24.2794 29.2537L24.1715 30.0875C24.1715 30.0875 24.1643 30.45 24.1289 30.7282C24.0936 31.0064 23.509 31.4532 23.509 31.4532L23.5272 31.9399C23.5272 31.9399 24.0455 32.6132 23.8145 33.1479C23.8392 33.645 23.8283 34.1432 23.7818 34.6387C23.7613 34.7987 23.7613 34.9608 23.7818 35.1208C23.9553 35.1275 24.1261 35.1659 24.2857 35.2341L24.9663 35.1997C25.1668 35.0623 25.4 34.9804 25.6424 34.9622C25.7289 34.9608 25.8147 34.9788 25.8934 35.0148L26.6546 35.3718C26.6546 35.3718 26.9981 35.4887 27.2519 35.6075C27.5056 35.7262 27.7557 36.4186 27.7557 36.4186L28.2252 36.55C28.4234 36.4838 28.6307 36.4487 28.8396 36.4457C29.0646 36.4346 29.286 36.5051 29.4631 36.6442C29.944 36.7719 30.4153 36.9336 30.8732 37.1282C31.417 37.3837 31.862 37.2822 32.0269 37.4C32.1918 37.5178 32.1175 38.1504 32.1175 38.1504C32.1175 38.1504 32.4166 38.6443 32.3649 38.7531C32.3649 38.7531 32.7664 39.0249 32.6132 39.3557C32.6132 39.3557 32.8851 39.6176 33.0365 39.7753C33.2504 40.0128 33.3886 40.3088 33.4334 40.6254C33.4222 40.9404 33.3247 41.2464 33.1516 41.5099C33.2419 41.5578 33.3205 41.6253 33.3815 41.7075C33.4424 41.7896 33.4843 41.8844 33.5041 41.9847C33.5274 42.7261 33.4617 43.4676 33.3083 44.1933C33.1923 44.5367 33.1887 45.1104 32.7474 45.3895C32.7988 45.6326 32.7839 45.8851 32.7041 46.1204C32.6244 46.3558 32.4828 46.5654 32.2942 46.7271C32.1971 46.846 32.0774 46.9445 31.9421 47.017C31.8068 47.0894 31.6586 47.1345 31.5058 47.1495C31.4135 47.1534 31.3224 47.1276 31.2457 47.0761L30.9013 47.6198C30.728 47.7185 30.5333 47.7738 30.334 47.7811C30.2791 47.7813 30.2244 47.7752 30.1709 47.763C30.1709 47.763 30.3032 48.0466 29.6271 48.1708C29.541 48.4727 29.3726 48.7447 29.1407 48.9563C28.9088 49.1679 28.6225 49.3107 28.314 49.3689C28.1893 49.3889 28.0632 49.3989 27.937 49.3988C27.4032 49.3917 26.8831 49.2296 26.4399 48.9321C26.3694 48.9555 26.2957 48.9674 26.2215 48.9674C26.1047 48.9706 25.9906 48.9314 25.9006 48.8568C25.6804 48.6647 25.2753 48.2098 25.2753 48.2098C25.1597 48.2316 25.0423 48.2423 24.9246 48.2415C24.6557 48.2488 24.3903 48.179 24.1597 48.0403C23.8874 47.8666 23.6458 47.6488 23.4447 47.396C22.8949 47.3089 22.3999 47.0132 22.0627 46.5704C21.7056 45.917 21.479 45.4566 21.479 45.4566C21.479 45.4566 21.4156 45.4566 21.3159 45.4566C21.0433 45.463 20.7714 45.4278 20.5094 45.3524C20.1296 45.2182 19.759 44.0274 20.0037 43.7882C20.2484 43.5489 19.9493 43.055 19.9493 43.055L19.7617 42.7016C19.7617 42.7016 19.1862 42.611 19.218 42.3572C19.2497 42.1035 19.4509 40.9181 19.4509 40.9181L19.1681 40.3879C19.1681 40.3879 18.5455 39.2506 20.1777 38.5174C20.192 38.5128 20.2051 38.5053 20.2164 38.4953C20.2276 38.4854 20.2367 38.4733 20.2431 38.4597C20.2495 38.4461 20.253 38.4313 20.2534 38.4163C20.2539 38.4013 20.2512 38.3864 20.2456 38.3724C20.2692 38.2927 20.3027 38.2163 20.3453 38.145L20.3 38.1531C20.282 38.2538 20.2418 38.3492 20.1822 38.4323C20.1226 38.5154 20.0452 38.5841 19.9556 38.6334C19.26 38.8804 18.5375 39.0438 17.8033 39.1201H17.7707C17.5894 39.1201 17.3737 39.1582 17.1499 39.1582C16.9094 39.1716 16.6721 39.0976 16.482 38.9497C16.2854 39.0695 16.0587 39.1305 15.8286 39.1255C15.5638 39.1224 15.3038 39.0549 15.071 38.9289C14.239 38.4975 14.4194 38.0362 14.4194 38.0362L13.795 37.874C13.6039 37.7037 13.4761 37.4737 13.4325 37.2215C13.4019 37.2459 13.3637 37.2588 13.3246 37.2577C13.2267 37.2577 13.069 37.1843 12.8778 36.8264C12.8636 36.8271 12.8494 36.8271 12.8352 36.8264C12.5282 36.8295 12.2262 36.7484 11.962 36.5918C11.6979 36.4352 11.4818 36.2092 11.3372 35.9382C11.0521 35.3397 10.997 34.6572 11.1822 34.0206C11.1249 33.945 11.0867 33.8566 11.0709 33.7631C11.0551 33.6695 11.0622 33.5735 11.0916 33.4832C11.2067 33.2113 11.5175 32.6912 11.5175 32.6912C11.3276 32.3529 11.2634 31.9584 11.3363 31.5774C11.4188 31.2649 11.553 30.9684 11.7332 30.7001C11.6479 30.1503 11.7777 29.5888 12.0957 29.1323C12.6105 28.5931 12.9793 28.2369 12.9793 28.2369C12.8628 27.9314 12.7955 27.6093 12.78 27.2827C12.7908 26.9202 13.6228 26.3021 14.0079 26.3021C14.0453 26.3007 14.0824 26.3088 14.1158 26.3257C14.1605 26.349 14.2103 26.3612 14.2608 26.361C14.4706 26.323 14.6606 26.2131 14.7982 26.0502L15.0773 25.7638C15.0773 25.7638 15.0175 25.3542 15.1489 25.1974C15.1098 25.1496 15.0738 25.0993 15.041 25.0469C14.8598 24.7352 14.423 24.3591 14.4973 23.8425C14.279 23.724 14.0965 23.549 13.969 23.3359C13.8415 23.1228 13.7735 22.8793 13.7723 22.6309C13.7025 21.6956 14.1901 21.6077 14.1901 21.6077L13.9989 20.9906C14.0435 20.74 14.1712 20.5117 14.3614 20.3426C14.3614 20.3426 14.0596 20.2583 14.4058 19.6629C14.2327 19.4011 14.1359 19.0962 14.1263 18.7825C14.1167 18.4688 14.1946 18.1586 14.3514 17.8867C14.7109 17.3295 15.2628 16.9241 15.902 16.7475C15.9358 16.6586 15.9907 16.5792 16.0619 16.5161C16.133 16.453 16.2184 16.408 16.3107 16.385C16.5989 16.3433 17.2088 16.3315 17.2088 16.3315C17.3976 15.9927 17.7004 15.7316 18.0634 15.5947C18.3393 15.5137 18.625 15.471 18.9125 15.4679C18.9796 15.4679 19.0177 15.4679 19.0177 15.4679C19.3871 15.1637 19.839 14.9769 20.3154 14.9314C20.3922 14.9311 20.4687 14.939 20.5438 14.9549C21.2688 15.109 21.769 15.2368 21.769 15.2368C21.9683 14.9774 22.2071 14.7511 22.4768 14.5662C22.5455 14.5316 22.622 14.5153 22.6989 14.519C23.1647 14.519 23.9749 14.9132 23.993 15.1996C24.0111 15.486 24.3854 15.5893 24.5277 15.6228C24.5607 15.5012 24.6111 15.3849 24.6772 15.2776C24.5041 15.0156 24.4072 14.7107 24.3975 14.3968C24.3877 14.083 24.4654 13.7726 24.6219 13.5004C24.9819 12.9433 25.5341 12.5379 26.1734 12.3612C26.207 12.2723 26.2616 12.1929 26.3327 12.1298C26.4037 12.0666 26.489 12.0217 26.5812 11.9987C26.8703 11.9562 27.4802 11.9444 27.4802 11.9444C27.6688 11.6058 27.9713 11.3451 28.3339 11.2085C28.6097 11.1269 28.8955 11.0842 29.1831 11.0816C29.251 11.0816 29.2891 11.0816 29.2891 11.0816C29.6584 10.7772 30.1104 10.5904 30.5869 10.5451C30.6633 10.5448 30.7396 10.5527 30.8143 10.5687C31.5393 10.7227 32.0405 10.8505 32.0405 10.8505C32.2393 10.5905 32.4782 10.3638 32.7483 10.179C32.8169 10.1452 32.893 10.1293 32.9694 10.1328M32.9694 9.67965C32.8134 9.67538 32.659 9.71226 32.5217 9.78659C32.28 9.93946 32.062 10.1269 31.8746 10.343C31.6553 10.2905 31.3182 10.2116 30.9086 10.1255C30.8029 10.1029 30.695 10.0916 30.5869 10.092C30.0615 10.1223 29.5568 10.3077 29.1369 10.6249C28.8214 10.6324 28.5082 10.6809 28.2052 10.769C27.8099 10.8994 27.467 11.1536 27.2274 11.494C27.0135 11.5021 26.7081 11.5175 26.5133 11.5456C26.3809 11.5673 26.2546 11.6167 26.1426 11.6906C26.0307 11.7645 25.9355 11.8611 25.8635 11.9743C25.1898 12.2045 24.6145 12.657 24.2322 13.2575C24.0062 13.6179 23.9025 14.0416 23.9368 14.4656C23.5637 14.2278 23.1367 14.0879 22.6952 14.0587C22.5388 14.0544 22.384 14.0916 22.2466 14.1665C22.0051 14.3188 21.7873 14.506 21.6005 14.722C21.3812 14.6695 21.0431 14.5915 20.6344 14.5045C20.5286 14.4823 20.4208 14.4711 20.3127 14.471C19.7873 14.5019 19.2828 14.6876 18.8627 15.0048C18.5472 15.0119 18.234 15.0604 17.9311 15.1489C17.5358 15.2789 17.1931 15.5332 16.9541 15.8739C16.7403 15.882 16.4349 15.8974 16.24 15.9264C16.1077 15.948 15.9815 15.9973 15.8695 16.071C15.7575 16.1447 15.6624 16.2412 15.5902 16.3542C14.9171 16.5854 14.3422 17.0377 13.959 17.6374C13.7756 17.9405 13.6728 18.2855 13.6603 18.6395C13.6477 18.9935 13.7259 19.3449 13.8874 19.6602C13.7946 19.8508 13.7629 20.0654 13.7968 20.2746C13.6713 20.4654 13.5851 20.6792 13.543 20.9036L13.5258 21.0096L13.5575 21.112L13.6481 21.4111C13.5055 21.5811 13.4015 21.7801 13.3433 21.9944C13.2851 22.2086 13.2741 22.4328 13.311 22.6517C13.323 22.927 13.3934 23.1966 13.5175 23.4427C13.6415 23.6888 13.8164 23.9057 14.0306 24.0791C14.0917 24.4438 14.2526 24.7844 14.4955 25.0632C14.5435 25.1267 14.5906 25.1874 14.6269 25.2445C14.6041 25.3551 14.594 25.4679 14.597 25.5807L14.461 25.7203C14.4034 25.7858 14.3354 25.8415 14.2599 25.8852C14.1757 25.8517 14.0858 25.8347 13.9952 25.8354C13.4252 25.8354 12.3341 26.5876 12.315 27.2555C12.3175 27.5415 12.3624 27.8255 12.4483 28.0983C12.2879 28.2569 12.0441 28.5034 11.7559 28.8061C11.5597 29.0531 11.4142 29.3365 11.3278 29.6399C11.2413 29.9433 11.2156 30.2608 11.252 30.5742C11.092 30.8462 10.9686 31.1381 10.885 31.4423C10.7881 31.8472 10.8247 32.2725 10.9892 32.6549C10.8841 32.8416 10.7364 33.108 10.6584 33.2893C10.6071 33.4133 10.5827 33.5469 10.5867 33.681C10.5908 33.8152 10.6233 33.947 10.682 34.0677C10.5241 34.7614 10.6069 35.4882 10.9167 36.1286C11.0794 36.4435 11.3194 36.7119 11.6142 36.9086C11.9091 37.1054 12.2491 37.2239 12.6023 37.2532C12.7155 37.4316 12.8806 37.5711 13.0754 37.6529C13.1722 37.8589 13.309 38.0438 13.4778 38.1966L13.5584 38.2673L13.6617 38.2936L13.9653 38.3724C14.0344 38.5888 14.1507 38.7871 14.3059 38.9529C14.4611 39.1188 14.6512 39.248 14.8625 39.3312C15.16 39.4902 15.4913 39.5751 15.8286 39.5787C16.0414 39.5789 16.2525 39.5412 16.4521 39.4672C16.6706 39.5679 16.9093 39.6171 17.1499 39.6113C17.2822 39.6113 17.4127 39.5995 17.5369 39.5886C17.6202 39.5814 17.6991 39.5732 17.7707 39.5732C18.071 39.5553 18.3694 39.5141 18.6633 39.45C18.55 39.8424 18.5891 40.2633 18.773 40.6281L18.9796 41.0169C18.9225 41.3558 18.7984 42.118 18.7703 42.3273C18.7268 42.6898 18.9887 42.9852 19.4635 43.1212L19.5542 43.2907C19.5986 43.3655 19.631 43.4468 19.6502 43.5317C19.5552 43.6765 19.4948 43.8413 19.4737 44.0132C19.4527 44.1852 19.4715 44.3597 19.5288 44.5232C19.5524 44.6319 19.7816 45.5971 20.3635 45.8019C20.6364 45.8868 20.9204 45.9305 21.2063 45.9315C21.3087 46.1317 21.4691 46.439 21.6694 46.8069C21.8454 47.0682 22.0712 47.2922 22.3338 47.4662C22.5965 47.6402 22.8908 47.7608 23.2 47.821C23.4106 48.0561 23.6514 48.2624 23.916 48.4345C24.2201 48.6216 24.5722 48.7161 24.9291 48.7064C24.9917 48.7064 25.0497 48.7064 25.1022 48.7001C25.2472 48.8577 25.4584 49.0798 25.607 49.2103C25.7793 49.3574 25.9995 49.4364 26.226 49.4323C26.2696 49.432 26.3132 49.4293 26.3565 49.4241C26.838 49.705 27.3841 49.8564 27.9415 49.8637C28.0933 49.864 28.2448 49.8521 28.3946 49.8283C28.7441 49.7703 29.073 49.6238 29.3499 49.4028C29.6268 49.1819 29.8427 48.8938 29.977 48.5659C30.182 48.5129 30.3657 48.3977 30.5026 48.2361C30.7293 48.2068 30.948 48.1329 31.146 48.0186L31.2366 47.9633L31.2937 47.8727L31.4596 47.6107H31.5149C31.7271 47.5961 31.9343 47.5395 32.1245 47.4443C32.3148 47.3491 32.4843 47.2172 32.6232 47.0561C32.8242 46.8677 32.983 46.6387 33.0891 46.3844C33.1951 46.1301 33.2461 45.8562 33.2385 45.5807C33.4759 45.2959 33.6296 44.9508 33.6826 44.5839C33.6983 44.5027 33.7186 44.4226 33.7433 44.3437C33.9223 43.5448 33.9937 42.7255 33.9554 41.9077C33.9217 41.7246 33.8425 41.5529 33.7252 41.4084C33.851 41.1496 33.9075 40.8627 33.8892 40.5755C33.8331 40.1631 33.653 39.7776 33.3727 39.4699C33.2993 39.392 33.1914 39.2887 33.1062 39.198C33.094 38.9429 32.9844 38.7022 32.7999 38.5256C32.7458 38.3634 32.6731 38.208 32.5833 38.0625C32.624 37.8833 32.6191 37.6967 32.5691 37.5199C32.5191 37.343 32.4255 37.1816 32.297 37.0502C32.1275 36.9436 31.9317 36.8864 31.7315 36.8853C31.5024 36.8737 31.2773 36.8206 31.0672 36.7285C30.6142 36.5331 30.1478 36.3705 29.6715 36.2418C29.4269 36.0767 29.1364 35.9933 28.8414 36.0035C28.6319 36.0052 28.4236 36.0342 28.2215 36.0896L28.0938 36.0524C27.9754 35.7066 27.7468 35.4093 27.4431 35.206C27.2075 35.0954 26.9111 34.9903 26.8241 34.9604L26.0846 34.6133C25.9457 34.5492 25.7944 34.5167 25.6415 34.5182C25.3535 34.5299 25.073 34.6137 24.8258 34.7619L24.3591 34.7855C24.3147 34.7701 24.2685 34.7556 24.225 34.7438V34.7057C24.2741 34.215 24.2871 33.7212 24.264 33.2286C24.318 32.983 24.3197 32.7287 24.2688 32.4825C24.2179 32.2362 24.1155 32.0034 23.9685 31.7994V31.6698C24.2618 31.4524 24.4752 31.1444 24.5757 30.7935C24.6092 30.5352 24.6201 30.2207 24.6219 30.1283L24.727 29.319C24.7355 29.099 24.6925 28.88 24.6014 28.6796C24.5103 28.4791 24.3737 28.3027 24.2023 28.1644L24.0374 27.7276C24.0464 27.5447 24.0281 27.3614 23.983 27.1839C24.2081 26.9836 24.3905 26.7402 24.5195 26.4679L24.6301 26.3936C24.8574 26.4674 25.0937 26.5101 25.3324 26.5205C25.4569 26.5238 25.5806 26.5 25.6949 26.4507C25.9324 26.3438 26.2051 26.1879 26.2849 26.1417L27.0289 25.8055C27.2204 25.6969 27.384 25.5452 27.5067 25.3624C27.6294 25.1796 27.7078 24.9708 27.7358 24.7524L28.0204 24.3836C28.2824 24.2415 28.5038 24.0351 28.6638 23.7836C28.7118 23.7836 28.759 23.79 28.8043 23.79H28.8133H28.8677C28.9746 23.79 29.1206 23.7737 29.2438 23.7628C29.4183 23.9031 29.6372 23.9764 29.861 23.9694C29.8927 23.9694 29.9235 23.9694 29.9516 23.9694C30.1131 24.0389 30.2822 24.0894 30.4555 24.1198C30.6661 24.3657 30.9588 24.5267 31.2792 24.573H31.33L31.4097 24.5585C31.6011 24.4988 31.7718 24.3867 31.9027 24.2349C32.0612 24.0689 32.2481 23.9326 32.4546 23.8326C32.6952 23.7202 32.9293 23.5946 33.1561 23.4565C33.1895 23.5934 33.2371 23.7264 33.2984 23.8534C33.3464 23.9495 33.4162 24.0782 33.4796 24.1869C33.4176 24.435 33.4532 24.6975 33.5793 24.9201C33.5811 25.0945 33.6033 25.2682 33.6455 25.4375C33.5553 25.5975 33.5065 25.7774 33.5035 25.961C33.5005 26.1445 33.5434 26.326 33.6282 26.4888C33.7601 26.6397 33.9315 26.7508 34.123 26.8096C34.3388 26.8869 34.5389 27.0023 34.7139 27.1503C35.0911 27.4684 35.4909 27.7585 35.9102 28.0185C36.0815 28.2023 36.2899 28.3475 36.5216 28.4447C36.7533 28.5419 37.003 28.5888 37.2541 28.5822L37.3647 28.652C37.3786 29.0169 37.512 29.3672 37.7444 29.6489C37.9384 29.8229 38.1912 30.0114 38.2664 30.063L38.8745 30.6068C39.0977 30.7933 39.3823 30.8902 39.6729 30.8787C39.8255 30.8776 39.9775 30.8593 40.126 30.8243L40.5792 30.9357C40.8726 31.1668 41.2343 31.2943 41.6078 31.2982C41.8491 31.2976 42.087 31.2411 42.3029 31.1333H42.3355C42.436 31.1351 42.5359 31.1167 42.6293 31.0794C42.7226 31.042 42.8076 30.9864 42.8792 30.9158L43.1683 30.9675L43.22 30.9774H43.2735C43.6732 30.9656 44.0544 30.8061 44.3436 30.5299C44.6328 30.2536 44.8094 29.88 44.8395 29.4812L44.9174 29.4241C44.9768 29.4379 45.0376 29.4449 45.0986 29.445C45.2604 29.4348 45.4175 29.3864 45.5571 29.3039C45.6966 29.2213 45.8147 29.107 45.9016 28.9701C46.1835 28.9383 46.4562 28.8506 46.7038 28.7121C46.9514 28.5736 47.1688 28.3871 47.3434 28.1635C47.5909 27.8122 47.6887 27.3771 47.6153 26.9537L47.5292 26.5214C47.6815 26.2133 48.024 25.5245 48.1074 25.327C48.2533 24.9898 48.0875 24.6346 47.6715 24.3672L47.6334 24.1787C47.6124 24.0941 47.605 24.0066 47.6117 23.9196C47.744 23.8082 47.8491 23.6679 47.9187 23.5095C47.9883 23.3511 48.0206 23.1789 48.0131 23.0061C48.0213 22.8946 48.0802 21.9041 47.5818 21.5407C47.3444 21.3829 47.0851 21.2608 46.8124 21.1782C46.7716 20.9561 46.7063 20.6154 46.6202 20.2057C46.4324 19.5971 46.0106 19.088 45.4475 18.7902C45.3128 18.5046 45.1416 18.2378 44.9382 17.9963C44.659 17.6879 44.2878 17.4775 43.8797 17.3964C43.7891 17.2042 43.6477 16.9315 43.5435 16.762C43.4697 16.65 43.3733 16.5547 43.2605 16.4823C43.1476 16.4099 43.0208 16.3619 42.8883 16.3415C42.4048 15.8192 41.7585 15.4764 41.055 15.3691C40.9627 15.3567 40.8698 15.3503 40.7767 15.3501C40.4894 15.3533 40.2058 15.4159 39.9438 15.5339C39.6818 15.652 39.447 15.823 39.2542 16.0361C39.103 15.8306 38.913 15.6567 38.6951 15.5241L38.6733 15.4235C38.7412 15.3331 38.7891 15.2293 38.8138 15.119C38.8598 14.8489 38.8036 14.5714 38.6561 14.3405C38.7409 14.0697 38.7709 13.7847 38.7445 13.5021C38.718 13.2196 38.6356 12.9451 38.502 12.6947C38.2804 12.3269 37.9219 12.0619 37.5052 11.958L37.0656 11.8628C36.8463 11.5991 36.3506 11.0055 36.2074 10.8514C36.1487 10.788 36.0773 10.7376 35.9978 10.7036C35.9183 10.6695 35.8326 10.6526 35.7461 10.6539C35.5337 10.6669 35.3291 10.7387 35.1553 10.8614L34.9659 10.8197C34.88 10.8049 34.7971 10.7765 34.7203 10.7354C34.6115 10.0847 33.4769 9.69234 32.9803 9.69234L32.9694 9.67965Z" fill="#FFB657"/>
<path d="M40.494 45.4937C40.2142 45.4312 39.9635 45.2768 39.7817 45.0551C39.5835 45.0291 39.3909 44.9706 39.2117 44.882C39.1666 44.8877 39.1212 44.8907 39.0757 44.8911C38.9762 44.8966 38.8767 44.8801 38.7843 44.8428C38.6919 44.8055 38.6089 44.7484 38.541 44.6754C38.4087 44.6881 38.2084 44.7053 38.0725 44.7116H38.0625C37.6998 44.7164 37.3435 44.616 37.0367 44.4225C36.8054 44.2367 36.6301 43.9905 36.5301 43.7111C36.4931 43.716 36.4559 43.7184 36.4186 43.7184C36.2613 43.719 36.1067 43.6773 35.9709 43.5979C35.3583 43.1145 34.8101 42.5547 34.3397 41.9322C34.2909 41.8555 34.2383 41.7814 34.182 41.7101C33.9381 41.441 33.7881 41.1002 33.7542 40.7386C33.5407 40.5894 33.3651 40.3922 33.2414 40.163C33.1177 39.9337 33.0494 39.6786 33.0419 39.4182C32.9968 39.2103 33.0073 38.9942 33.0724 38.7917C33.1375 38.5891 33.2548 38.4073 33.4126 38.2646L33.2621 37.777L33.2703 37.7235C33.3123 37.4963 33.4084 37.2824 33.5503 37.1C33.5183 36.9902 33.5103 36.8747 33.5269 36.7615C33.5435 36.6483 33.5842 36.54 33.6464 36.4439C33.4783 36.1544 33.3909 35.8252 33.3933 35.4905C33.3957 35.1558 33.4878 34.8278 33.66 34.5408C34.0291 33.9629 34.5905 33.5338 35.245 33.3291C35.299 33.2276 35.375 33.1395 35.4675 33.0713C35.5601 33.003 35.6668 32.9564 35.7797 32.9349C35.9945 32.9041 36.3842 32.8887 36.5817 32.8824C36.7974 32.5423 37.1215 32.2849 37.5016 32.1519C37.7984 32.0649 38.1058 32.0191 38.4151 32.016H38.445C38.8396 31.706 39.3175 31.5205 39.8179 31.4831C39.9093 31.4833 40.0004 31.4927 40.0898 31.5112C40.5928 31.6181 40.987 31.7115 41.1837 31.7604C41.3775 31.5226 41.6067 31.3159 41.8633 31.1478C41.9665 31.0934 42.0821 31.0668 42.1987 31.0708C42.6926 31.0708 43.6876 31.4749 43.7184 31.9634C43.7257 32.0694 43.9849 32.1682 44.1226 32.1909L44.4217 32.257C44.5775 32.1313 44.7663 32.0532 44.9654 32.0323C45.0206 32.031 45.0754 32.0416 45.1262 32.0631C45.177 32.0847 45.2226 32.1168 45.26 32.1574C45.4077 32.3159 45.985 33.0101 46.1608 33.2186L46.671 33.3328C47.0251 33.4262 47.329 33.6537 47.5183 33.9671C47.642 34.2081 47.7149 34.4719 47.7327 34.7422C47.7505 35.0124 47.7127 35.2835 47.6217 35.5386L47.6353 35.5567C47.7748 35.7499 47.8351 35.9892 47.8038 36.2255C47.7789 36.3364 47.7215 36.4374 47.6389 36.5155L47.7041 36.8227C48.0367 36.9703 48.2985 37.2418 48.4339 37.5794C48.5693 37.9171 48.5676 38.2943 48.4291 38.6307L48.1636 39.0304C48.2008 39.0851 48.2267 39.1467 48.2397 39.2116C48.2651 39.3498 48.2383 39.4926 48.1645 39.6122C48.1861 39.8954 48.1208 40.1785 47.9773 40.4236C47.8339 40.6687 47.6191 40.8643 47.3616 40.9842L47.0145 41.4374C46.9971 41.6291 46.9349 41.814 46.8331 41.9774C46.7313 42.1408 46.5926 42.278 46.4281 42.378L45.6623 42.7233C45.6623 42.7233 45.3506 42.9046 45.0932 43.0242C45.0087 43.0596 44.9175 43.0763 44.8259 43.0731C44.5744 43.0589 44.3263 43.0085 44.0891 42.9236L43.8335 43.0931C43.7506 43.3119 43.6206 43.5098 43.4527 43.6729C43.2849 43.8359 43.0832 43.96 42.862 44.0365C42.4542 44.3164 42.0265 44.5663 41.5824 44.7841C41.3526 44.8939 41.1447 45.0447 40.9689 45.2291C40.8652 45.3502 40.7314 45.4418 40.581 45.4946L40.494 45.4937Z" fill="#FFD59E"/>
<path d="M42.195 31.291C42.6608 31.291 43.471 31.6852 43.4891 31.9716C43.5117 32.3132 44.0818 32.4075 44.0818 32.4075L44.4724 32.4981C44.6112 32.3761 44.7796 32.2926 44.9608 32.2561C44.9847 32.2553 45.0085 32.2594 45.0307 32.2683C45.0528 32.2772 45.0729 32.2907 45.0895 32.3078C45.2608 32.4945 46.0311 33.4207 46.0311 33.4207L46.6175 33.5521C46.6175 33.5521 47.8862 33.824 47.3805 35.5359C47.3748 35.5497 47.3719 35.5647 47.3722 35.5797C47.3724 35.5947 47.3757 35.6095 47.3819 35.6232C47.3881 35.6369 47.3971 35.6491 47.4082 35.6592C47.4194 35.6693 47.4324 35.677 47.4467 35.6818C47.4467 35.6818 47.8028 36.1802 47.3814 36.414L47.5029 36.975C47.6524 37.0315 47.7894 37.117 47.9059 37.2265C48.0225 37.336 48.1163 37.4674 48.182 37.6131C48.2477 37.7589 48.2841 37.9162 48.289 38.076C48.2939 38.2359 48.2673 38.3951 48.2106 38.5446L47.8681 39.0503C47.9099 39.0758 47.9453 39.1107 47.9715 39.1522C47.9977 39.1937 48.0139 39.2406 48.0189 39.2894C48.0239 39.3382 48.0175 39.3875 48.0003 39.4334C47.9831 39.4794 47.9556 39.5207 47.9197 39.5542C47.9597 39.8117 47.9109 40.0752 47.7813 40.3014C47.6517 40.5275 47.449 40.7028 47.2065 40.7985L46.7905 41.3377C46.7905 41.3377 46.7298 41.9802 46.3284 42.1615L45.5617 42.5076C45.5617 42.5076 45.249 42.6889 44.9935 42.8076C44.9378 42.8292 44.8782 42.8391 44.8186 42.8366C44.5555 42.8149 44.2968 42.7563 44.05 42.6626L43.645 42.9345C43.645 42.9345 43.3441 43.7293 42.7668 43.8136C42.3573 44.0957 41.9281 44.3483 41.4826 44.5694C40.9389 44.8168 40.7214 45.2201 40.5229 45.2663C40.513 45.2672 40.503 45.2672 40.493 45.2663C40.2846 45.2663 39.894 44.844 39.894 44.844C39.894 44.844 39.324 44.7533 39.275 44.6401C39.2097 44.6557 39.1428 44.6636 39.0756 44.6636C38.991 44.6718 38.9058 44.6545 38.8311 44.614C38.7563 44.5735 38.6954 44.5116 38.656 44.4362C38.656 44.4362 38.2781 44.4751 38.0625 44.4842H38.0126C37.7089 44.482 37.412 44.3941 37.1562 44.2304C36.9241 44.0167 36.7551 43.7434 36.6677 43.4402C36.5865 43.4726 36.4997 43.4889 36.4122 43.4882C36.2949 43.4885 36.1797 43.4572 36.0787 43.3976C35.5001 42.9337 34.9795 42.4018 34.5281 41.8135C34.3468 41.5017 33.91 41.1256 33.9843 40.6091C33.766 40.4905 33.5836 40.3156 33.456 40.1024C33.3285 39.8893 33.2606 39.6458 33.2593 39.3974C33.1895 38.4622 33.6771 38.3742 33.6771 38.3742L33.4859 37.7571C33.5317 37.5059 33.6611 37.2776 33.8529 37.1091C33.8529 37.1091 33.5511 37.0248 33.8973 36.4294C33.7242 36.1676 33.6275 35.8628 33.6179 35.549C33.6082 35.2353 33.6862 34.9251 33.843 34.6532C34.2025 34.096 34.7544 33.6906 35.3935 33.514C35.4274 33.4251 35.4823 33.3457 35.5534 33.2826C35.6246 33.2195 35.71 33.1745 35.8023 33.1515C36.0905 33.1098 36.7004 33.0981 36.7004 33.0981C36.8892 32.7592 37.192 32.4981 37.555 32.3613C37.8308 32.2802 38.1166 32.2375 38.4041 32.2344C38.4712 32.2344 38.5092 32.2344 38.5092 32.2344C38.8787 31.9303 39.3306 31.7434 39.807 31.6979C39.8837 31.6976 39.9603 31.7055 40.0354 31.7215C40.7604 31.8755 41.2606 32.0033 41.2606 32.0033C41.4598 31.7439 41.6987 31.5176 41.9684 31.3327C42.0371 31.2981 42.1136 31.2818 42.1904 31.2856M42.1904 30.8324C42.0325 30.8273 41.876 30.8646 41.7373 30.9403C41.4957 31.0926 41.278 31.2798 41.0911 31.4958C40.8718 31.4432 40.5338 31.3653 40.1251 31.2783C40.0193 31.2561 39.9115 31.2448 39.8034 31.2448C39.2779 31.2757 38.7734 31.4614 38.3534 31.7786C38.0379 31.7857 37.7247 31.8341 37.4217 31.9226C37.0265 32.0527 36.6838 32.307 36.4448 32.6477C36.2309 32.6558 35.9255 32.6712 35.7307 32.7002C35.5984 32.7218 35.4721 32.7711 35.3602 32.8448C35.2482 32.9185 35.153 33.015 35.0809 33.128C34.4078 33.3592 33.8328 33.8115 33.4496 34.4112C33.2663 34.7143 33.1635 35.0593 33.1509 35.4133C33.1384 35.7673 33.2166 36.1187 33.378 36.434C33.2853 36.6245 33.2536 36.8391 33.2874 37.0484C33.162 37.2392 33.0757 37.4529 33.0337 37.6773L33.0165 37.7834L33.0482 37.8858L33.1388 38.1848C32.9962 38.3549 32.8921 38.5539 32.8339 38.7681C32.7757 38.9823 32.7647 39.2066 32.8017 39.4255C32.8142 39.7025 32.8857 39.9737 33.0115 40.2208C33.1373 40.4679 33.3145 40.6852 33.5312 40.8583C33.5923 41.223 33.7533 41.5636 33.9961 41.8425C34.0474 41.9072 34.0952 41.9747 34.1393 42.0446C34.6293 42.7006 35.205 43.288 35.8512 43.7909C36.0118 43.8847 36.1936 43.9361 36.3795 43.9404C36.4944 44.2046 36.6758 44.4344 36.9061 44.6074C37.2357 44.8202 37.6194 44.9341 38.0117 44.9355H38.0815C38.1884 44.931 38.3343 44.9201 38.4576 44.9092C38.6322 45.0493 38.851 45.1226 39.0747 45.1158C39.1065 45.1158 39.1364 45.1158 39.1654 45.1158C39.3267 45.1859 39.4959 45.2365 39.6692 45.2663C39.8795 45.5121 40.172 45.6731 40.4921 45.7194H40.5438L40.6235 45.7049C40.8148 45.6456 40.9856 45.5338 41.1165 45.3823C41.2744 45.216 41.4611 45.0796 41.6675 44.9799C42.1108 44.7632 42.5378 44.5149 42.9453 44.2368C43.1826 44.1539 43.3997 44.0218 43.5824 43.8493C43.7651 43.6767 43.9093 43.4675 44.0056 43.2354L44.1153 43.162C44.3426 43.2357 44.5789 43.2784 44.8176 43.2888C44.9421 43.2921 45.0658 43.2683 45.1801 43.2191C45.4176 43.1121 45.6904 42.9562 45.7701 42.9091L46.5141 42.5738C46.7057 42.4652 46.8692 42.3135 46.9919 42.1308C47.1146 41.948 47.1931 41.7391 47.221 41.5207L47.5056 41.1519C47.7802 41.0119 48.0091 40.7963 48.1653 40.5306C48.3215 40.2649 48.3985 39.9601 48.3874 39.6521C48.4643 39.4996 48.4883 39.3258 48.4553 39.1582C48.4473 39.1183 48.4358 39.0791 48.4209 39.0412L48.5858 38.7975L48.6157 38.7531L48.6348 38.7032C48.7855 38.333 48.7939 37.92 48.6581 37.544C48.5224 37.1679 48.2523 36.8555 47.8998 36.6669L47.879 36.5762C47.9472 36.486 47.9954 36.3821 48.0203 36.2717C48.0666 36.0016 48.01 35.7238 47.8617 35.4933C47.9468 35.2225 47.977 34.9375 47.9505 34.6549C47.924 34.3723 47.8415 34.0978 47.7077 33.8475C47.4859 33.4798 47.1274 33.2149 46.7108 33.1107L46.2803 33.0147C46.061 32.751 45.5653 32.1583 45.4221 32.0033C45.3632 31.9401 45.2918 31.8899 45.2123 31.8558C45.1329 31.8218 45.0472 31.8048 44.9608 31.8057C44.7483 31.8186 44.5436 31.8908 44.37 32.0142L44.1805 31.9716C44.0943 31.9572 44.0111 31.9287 43.934 31.8873C43.8253 31.2366 42.6907 30.8442 42.195 30.8442L42.1904 30.8324Z" fill="#FFB657"/>
<path d="M19.169 40.407C19.169 40.407 18.5464 39.2696 20.1785 38.5365C20.1928 38.5318 20.206 38.5243 20.2172 38.5144C20.2285 38.5044 20.2376 38.4923 20.244 38.4787C20.2503 38.4651 20.2538 38.4504 20.2543 38.4353C20.2547 38.4203 20.2521 38.4054 20.2465 38.3915C20.2465 38.3915 20.3933 37.7961 20.8455 37.9637L21.1917 37.5106C21.1373 37.3602 21.1131 37.2006 21.1204 37.0409C21.1278 36.8812 21.1665 36.7244 21.2344 36.5797C21.3023 36.4349 21.3981 36.305 21.5163 36.1972C21.6344 36.0895 21.7727 36.0061 21.9231 35.9518L22.5302 35.883C22.5302 35.883 22.4677 35.544 22.8792 35.5159C23.048 35.3172 23.2795 35.182 23.5355 35.1325C23.7916 35.0831 24.0568 35.1225 24.2875 35.2441L24.9681 35.2096C24.9681 35.2096 25.4955 34.8381 25.8952 35.0284L26.6564 35.3854C26.6564 35.3854 26.9999 35.5023 27.2536 35.6211C27.5074 35.7398 27.7575 36.4321 27.7575 36.4321L28.2269 36.5636C28.2269 36.5636 29.0253 36.2754 29.4649 36.6542C29.9458 36.7818 30.417 36.9436 30.875 37.1381C31.4187 37.3937 31.8637 37.2922 32.0287 37.41C32.1936 37.5278 32.1193 38.1604 32.1193 38.1604C32.1193 38.1604 32.4183 38.6543 32.3667 38.763C32.3667 38.763 32.7682 39.0349 32.615 39.3657C32.615 39.3657 32.8869 39.6276 33.0373 39.7853C33.2519 40.0225 33.3905 40.3186 33.4352 40.6353C33.424 40.9504 33.3265 41.2564 33.1533 41.5198C33.2437 41.5678 33.3222 41.6353 33.3832 41.7175C33.4442 41.7996 33.4861 41.8943 33.5058 41.9947C33.5292 42.7361 33.4635 43.4776 33.3101 44.2032C33.1941 44.5467 33.1905 45.1204 32.7491 45.3995C32.8006 45.6426 32.7856 45.8951 32.7059 46.1304C32.6262 46.3658 32.4846 46.5753 32.296 46.7371C31.6317 47.3987 31.2475 47.086 31.2475 47.086L30.9031 47.6298C30.6826 47.7582 30.4253 47.8087 30.1727 47.773C30.1727 47.773 30.305 48.0566 29.6289 48.1808C29.5428 48.4827 29.3744 48.7547 29.1424 48.9663C28.9105 49.1779 28.6243 49.3207 28.3157 49.3788C27.6586 49.4679 26.9916 49.3125 26.4416 48.942C26.3523 48.9739 26.2567 48.9837 26.1628 48.9706C26.0689 48.9575 25.9796 48.9219 25.9024 48.8668C25.6822 48.6747 25.2771 48.2197 25.2771 48.2197C24.8969 48.2968 24.5017 48.2368 24.1615 48.0503C23.8891 47.8765 23.6475 47.6588 23.4465 47.4059C22.8967 47.3189 22.4017 47.0232 22.0644 46.5803C21.7074 45.9269 21.4808 45.4666 21.4808 45.4666C21.1543 45.4842 20.827 45.4503 20.5111 45.366C20.1314 45.2318 19.7607 44.041 20.0054 43.8018C20.2501 43.5625 19.9511 43.0686 19.9511 43.0686L19.7635 42.7152C19.7635 42.7152 19.188 42.6246 19.2197 42.3708C19.2514 42.1171 19.4526 40.9317 19.4526 40.9317L19.169 40.407Z" fill="url(#paint0_linear_205_29)"/>
<path d="M24.1779 38.7694C24.0664 38.88 23.8063 38.7984 23.5979 38.5882C23.3904 38.377 23.3124 38.116 23.4239 38.0054L24.032 37.4064C24.1444 37.2958 24.4035 37.3774 24.612 37.5877C24.8204 37.7997 24.8984 38.0598 24.786 38.1704L24.1779 38.7694Z" fill="#3B6B16"/>
<path d="M23.8706 44.2966C23.9703 44.419 23.8642 44.6691 23.6341 44.8567C23.4048 45.0443 23.1374 45.0968 23.0377 44.9754L22.4985 44.3138C22.3997 44.1915 22.5049 43.9405 22.7351 43.7538C22.9652 43.5662 23.2326 43.5127 23.3314 43.6351L23.8706 44.2966Z" fill="#3B6B16"/>
<path d="M31.1624 43.9531C31.0998 44.0972 30.8289 44.1199 30.5561 44.003C30.2842 43.886 30.1129 43.674 30.1745 43.5299L30.5108 42.7451C30.5724 42.6001 30.8434 42.5774 31.1161 42.6943C31.388 42.8112 31.5602 43.0233 31.4986 43.1674L31.1624 43.9531Z" fill="#3B6B16"/>
<path d="M28.8368 47.0416C28.8785 47.1939 28.68 47.3797 28.3937 47.4567C28.1073 47.5346 27.8418 47.4748 27.8001 47.3235L27.5762 46.4988C27.5355 46.3475 27.7339 46.1617 28.0203 46.0837C28.3067 46.0058 28.5722 46.0656 28.6139 46.2179L28.8368 47.0416Z" fill="#3B6B16"/>
<path d="M20.7731 41.3911C20.6263 41.335 20.5918 41.0649 20.6979 40.7876C20.8039 40.5103 21.0087 40.3345 21.1555 40.387L21.953 40.6906C22.0998 40.7468 22.1343 41.0169 22.0282 41.2942C21.9222 41.5715 21.7183 41.7473 21.5751 41.6947L20.7731 41.3911Z" fill="#3B6B16"/>
<path d="M28.9031 39.1871C28.9692 39.3294 28.8052 39.5496 28.536 39.672C28.2642 39.797 27.9923 39.7834 27.9288 39.6402L27.5663 38.8663C27.4993 38.724 27.6642 38.5038 27.9334 38.3815C28.2052 38.2564 28.4771 38.2709 28.5406 38.4132L28.9031 39.1871Z" fill="#3B6B16"/>
<path d="M26.2677 42.8801C26.1562 42.9907 25.8961 42.9091 25.6886 42.6988C25.4802 42.4877 25.4022 42.2267 25.5137 42.117L26.1218 41.5171C26.2342 41.4074 26.4934 41.489 26.7018 41.6983C26.9102 41.9095 26.9882 42.1705 26.8767 42.2811L26.2677 42.8801Z" fill="#3B6B16"/>
<path d="M30.8597 45.6034C30.3886 45.4756 29.9271 45.3148 29.4785 45.1222C28.9348 44.8666 29.4205 45.4847 29.9897 45.8055C30.5588 46.1263 31.5013 46.1281 30.8597 45.6034Z" fill="#D11B1B"/>
<path d="M21.4927 38.1649C21.4927 38.1649 20.5937 39.0177 20.7758 39.1029C20.958 39.1881 21.6821 39.5288 21.7664 39.2352C21.8506 38.9416 21.9839 38.0625 21.4927 38.1649Z" fill="#D11B1B"/>
<path d="M24.4062 46.0139C24.4062 46.0139 25.0279 45.7511 25.3061 46.1046C25.5843 46.458 25.1439 46.8042 25.1439 46.8042C25.1439 46.8042 24.1235 46.3801 24.4062 46.0139Z" fill="#D11B1B"/>
<path d="M30.9565 38.7785C30.9565 38.7785 30.3095 39.8052 30.739 39.9512C31.1686 40.0971 31.4323 38.9461 31.4323 38.9461C31.4323 38.9461 31.1749 38.4368 30.9565 38.7785Z" fill="#D11B1B"/>
<path d="M24.8068 42.3219C24.8068 42.3219 24.3238 42.7605 24.6419 42.9091C24.96 43.0578 25.1947 42.5593 25.1947 42.5593L24.8068 42.3219Z" fill="#D11B1B"/>
<path d="M37.4036 12.402C37.4036 12.402 38.6724 12.6694 38.1667 14.3867C38.1609 14.4006 38.1581 14.4155 38.1583 14.4305C38.1586 14.4456 38.1619 14.4604 38.1681 14.474C38.1743 14.4877 38.1833 14.5 38.1944 14.5101C38.2055 14.5201 38.2186 14.5278 38.2329 14.5326C38.2329 14.5326 38.589 15.0302 38.1676 15.2649L38.289 15.825C38.4387 15.8814 38.5757 15.9668 38.6923 16.0763C38.8089 16.1858 38.9028 16.3172 38.9685 16.463C39.0343 16.6087 39.0706 16.7661 39.0755 16.9259C39.0803 17.0858 39.0536 17.2451 38.9968 17.3946L38.6543 17.9012C38.6961 17.9267 38.7315 17.9616 38.7577 18.0031C38.7838 18.0445 38.8001 18.0915 38.8051 18.1403C38.8101 18.1891 38.8037 18.2384 38.7865 18.2843C38.7693 18.3302 38.7417 18.3715 38.7059 18.405C38.746 18.6625 38.6973 18.9259 38.5678 19.152C38.4384 19.3781 38.2359 19.5535 37.9936 19.6493L37.5776 20.1931C37.5776 20.1931 37.516 20.8356 37.1145 21.0169L36.3479 21.3621C36.3479 21.3621 36.0361 21.5434 35.7805 21.6621C35.525 21.7808 34.8362 21.5171 34.8362 21.5171L34.4311 21.789C34.4311 21.789 34.1303 22.5838 33.5539 22.668C33.144 22.9501 32.7145 23.2027 32.2688 23.4239C31.7251 23.6704 31.5085 24.0745 31.3091 24.1199C31.1097 24.1652 30.6811 23.7012 30.6811 23.7012C30.6811 23.7012 30.111 23.6105 30.0612 23.4973C30.0612 23.4973 29.5909 23.6214 29.4422 23.2934C29.4422 23.2934 29.0643 23.3314 28.8486 23.3414C28.5283 23.3502 28.2126 23.2627 27.9424 23.0904C27.7112 22.8743 27.5441 22.5986 27.4594 22.2938C27.3641 22.3311 27.2617 22.3467 27.1597 22.3395C27.0576 22.3323 26.9585 22.3024 26.8694 22.2521C26.2909 21.7881 25.7705 21.2559 25.3197 20.667C25.1385 20.3544 24.7016 19.9792 24.776 19.4626C24.5575 19.3443 24.375 19.1693 24.2474 18.9562C24.1199 18.743 24.052 18.4994 24.051 18.251C23.9803 17.3157 24.4678 17.2278 24.4678 17.2278L24.2775 16.6107C24.3221 16.3598 24.4498 16.1313 24.64 15.9618C24.64 15.9618 24.3382 15.8784 24.6853 15.283C24.5122 15.0211 24.4154 14.7161 24.4056 14.4023C24.3958 14.0884 24.4735 13.7781 24.63 13.5059C24.9901 12.9488 25.5422 12.5434 26.1815 12.3667C26.2151 12.2778 26.2698 12.1984 26.3408 12.1352C26.4118 12.0721 26.4971 12.0271 26.5894 12.0042C26.8785 11.9616 27.4884 11.9498 27.4884 11.9498C27.6769 11.6113 27.9794 11.3505 28.342 11.214C28.6514 11.1201 28.9742 11.0784 29.2972 11.0907C29.7205 10.7295 30.2669 10.5457 30.8225 10.5778C31.5475 10.7318 32.0486 10.8596 32.0486 10.8596C32.2474 10.5996 32.4863 10.3729 32.7564 10.1881C33.1044 9.98689 34.2499 10.4808 34.2725 10.8225C34.2952 11.1641 34.8643 11.2584 34.8643 11.2584L35.2549 11.349C35.2549 11.349 35.7008 10.9729 35.8721 11.1587C36.0434 11.3445 36.8137 12.2715 36.8137 12.2715L37.4036 12.402Z" fill="url(#paint1_linear_205_29)"/>
<path d="M35.3872 17.2713C35.3763 17.1136 35.6074 16.9704 35.9029 16.9496C36.1992 16.9287 36.4466 17.0402 36.4593 17.1961L36.5182 18.048C36.5291 18.2047 36.298 18.3488 36.0026 18.3697C35.7062 18.3896 35.4588 18.2791 35.4461 18.1232L35.3872 17.2713Z" fill="#3B6B16"/>
<path d="M31.3907 13.4415C31.233 13.4369 31.1116 13.1941 31.1188 12.8977C31.127 12.6014 31.2602 12.3639 31.417 12.3685L32.2707 12.3893C32.4284 12.3893 32.5498 12.6367 32.5426 12.9331C32.5353 13.2303 32.4021 13.4668 32.2453 13.4632L31.3907 13.4415Z" fill="#3B6B16"/>
<path d="M26.9074 19.2016C26.8377 19.0603 26.9981 18.8391 27.2636 18.7086C27.5291 18.5772 27.8019 18.5854 27.8708 18.7268L28.2487 19.4925C28.3176 19.6339 28.1581 19.855 27.8925 19.9855C27.6261 20.116 27.3542 20.1079 27.2844 19.9674L26.9074 19.2016Z" fill="#3B6B16"/>
<path d="M26.0747 15.4262C25.9324 15.3582 25.9206 15.0864 26.0475 14.8181C26.1752 14.5508 26.3937 14.3876 26.535 14.4556L27.3072 14.8181C27.4485 14.8861 27.4603 15.158 27.3334 15.4253C27.2056 15.6972 26.9881 15.8558 26.8459 15.7878L26.0747 15.4262Z" fill="#3B6B16"/>
<path d="M35.6156 12.9802C35.7533 12.905 35.9781 13.0545 36.1222 13.3155C36.2645 13.5765 36.2672 13.8484 36.1294 13.9236L35.3791 14.3314C35.2413 14.4066 35.0166 14.2562 34.8725 13.9961C34.7302 13.7351 34.7275 13.4632 34.8652 13.388L35.6156 12.9802Z" fill="#3B6B16"/>
<path d="M31.9951 20.5873C31.8438 20.5447 31.7867 20.2783 31.8664 19.9928C31.9462 19.7073 32.1383 19.5098 32.2851 19.5523L33.1071 19.7825C33.2593 19.8251 33.3164 20.0907 33.2367 20.377C33.1569 20.6625 32.9693 20.8601 32.818 20.8175L31.9951 20.5873Z" fill="#3B6B16"/>
<path d="M30.9031 16.1829C30.8922 16.0261 31.1233 15.882 31.4196 15.8621C31.7151 15.8412 31.9634 15.9527 31.9752 16.1086L32.0341 16.9604C32.0459 17.1172 31.8148 17.2613 31.5184 17.2813C31.2221 17.3021 30.9747 17.1906 30.9629 17.0348L30.9031 16.1829Z" fill="#3B6B16"/>
<path d="M25.8508 17.8975C26.2558 17.6225 26.6798 17.3766 27.1196 17.1616C27.6633 16.9142 26.883 16.8825 26.2686 17.1054C25.6542 17.3284 25.0361 18.0443 25.8508 17.8975Z" fill="#D11B1B"/>
<path d="M37.5939 15.6255C37.5939 15.6255 37.5314 14.3876 37.3483 14.4701C37.1653 14.5525 36.4339 14.8833 36.6034 15.1371C36.7729 15.3908 37.352 16.0651 37.5939 15.6255Z" fill="#D11B1B"/>
<path d="M29.7386 12.7301C29.7386 12.7301 29.5329 13.3735 29.0852 13.3554C28.6375 13.3373 28.6592 12.7772 28.6592 12.7772C28.6592 12.7772 29.6443 12.2779 29.7386 12.7301Z" fill="#D11B1B"/>
<path d="M30.9692 22.4125C30.9692 22.4125 30.6067 21.2525 30.2207 21.4845C29.8346 21.7165 30.5333 22.6626 30.5333 22.6626C30.5333 22.6626 31.0889 22.7985 30.9692 22.4125Z" fill="#D11B1B"/>
<path d="M32.2806 15.4361C32.2806 15.4361 32.2616 14.7845 31.9417 14.9286C31.6218 15.0727 31.851 15.5766 31.851 15.5766L32.2806 15.4361Z" fill="#D11B1B"/>
<path d="M17.1046 24.4923C17.1046 24.4923 17.9982 23.5534 19.1944 24.8847C19.2031 24.897 19.2142 24.9074 19.227 24.9151C19.2399 24.9229 19.2542 24.9279 19.2691 24.9299C19.284 24.9319 19.2992 24.9307 19.3136 24.9265C19.3281 24.9223 19.3415 24.9152 19.353 24.9056C19.353 24.9056 19.9638 24.8639 19.9421 25.3451L20.4858 25.5363C20.6126 25.4387 20.7573 25.367 20.9117 25.3254C21.0662 25.2837 21.2273 25.2729 21.386 25.2935C21.5446 25.3141 21.6976 25.3658 21.8363 25.4455C21.9749 25.5253 22.0965 25.6316 22.1941 25.7583L22.4442 26.3157C22.4442 26.3157 22.7478 26.1535 22.8974 26.5368C23.1376 26.6379 23.3362 26.8176 23.4607 27.0466C23.5852 27.2755 23.6282 27.5399 23.5825 27.7965L23.8226 28.4309C23.8226 28.4309 24.3374 28.8206 24.2758 29.2574L24.1679 30.0911C24.1679 30.0911 24.1607 30.4536 24.1253 30.7318C24.09 31.0101 23.5054 31.4568 23.5054 31.4568L23.5236 31.9435C23.5236 31.9435 24.0419 32.6168 23.8109 33.1515C23.8356 33.6486 23.8247 34.1468 23.7782 34.6423C23.7012 35.2377 23.9332 35.631 23.8689 35.8204C23.8045 36.0098 23.1819 36.1358 23.1819 36.1358C23.1819 36.1358 22.8022 36.5708 22.6835 36.5554C22.6835 36.5554 22.5421 37.0212 22.185 36.975C22.185 36.975 22.0192 37.3176 21.9132 37.5051C21.7518 37.7804 21.512 38.0013 21.2244 38.1395C20.9206 38.2243 20.5993 38.2243 20.2955 38.1395C20.2775 38.2402 20.2373 38.3356 20.1777 38.4187C20.1181 38.5018 20.0407 38.5705 19.9511 38.6198C19.2522 38.8683 18.5259 39.0317 17.7879 39.1065C17.4254 39.1001 16.8817 39.2714 16.4775 38.9361C16.262 39.0593 16.0173 39.1223 15.7691 39.1186C15.5209 39.115 15.2782 39.0447 15.0664 38.9153C14.2345 38.4839 14.4149 38.0226 14.4149 38.0226L13.7904 37.8604C13.5994 37.6901 13.4716 37.4601 13.4279 37.2079C13.4279 37.2079 13.1987 37.4209 12.8733 36.8137C12.5595 36.8234 12.2491 36.7456 11.977 36.5889C11.7049 36.4322 11.4818 36.2028 11.3327 35.9265C11.0476 35.3279 10.9925 34.6454 11.1777 34.0088C11.1204 33.9332 11.0822 33.8448 11.0664 33.7513C11.0506 33.6577 11.0577 33.5617 11.0871 33.4714C11.2022 33.1996 11.513 32.6794 11.513 32.6794C11.3231 32.3411 11.2589 31.9466 11.3318 31.5656C11.4143 31.2531 11.5485 30.9566 11.7287 30.6883C11.6434 30.1386 11.7732 29.577 12.0912 29.1205C12.606 28.5813 12.9748 28.2251 12.9748 28.2251C12.8583 27.9196 12.791 27.5975 12.7754 27.2709C12.7881 26.8685 13.8095 26.1535 14.1113 26.3139C14.413 26.4743 14.7937 26.042 14.7937 26.042L15.0728 25.7556C15.0728 25.7556 14.9867 25.1783 15.235 25.1303C15.4833 25.0823 16.6759 24.9137 16.6759 24.9137L17.1046 24.4923Z" fill="url(#paint2_linear_205_29)"/>
<path d="M20.1886 28.7653C20.0499 28.6919 20.049 28.42 20.1886 28.1572C20.3263 27.8944 20.5511 27.7412 20.6897 27.8137L21.4464 28.2106C21.5851 28.284 21.586 28.5559 21.4464 28.8187C21.3087 29.0815 21.0839 29.2356 20.9453 29.1622L20.1886 28.7653Z" fill="#3B6B16"/>
<path d="M14.8307 30.1555C14.7447 30.2869 14.4737 30.2624 14.2254 30.1002C13.9771 29.938 13.8447 29.7005 13.9308 29.5682L14.3967 28.8532C14.4873 28.7218 14.7537 28.7462 15.0029 28.9076C15.2512 29.0698 15.3827 29.3081 15.2975 29.4395L14.8307 30.1555Z" fill="#3B6B16"/>
<path d="M17.3773 36.9959C17.2214 36.9805 17.1172 36.7294 17.1453 36.434C17.1734 36.1386 17.3266 35.9111 17.4797 35.9256L18.3298 36.0071C18.4866 36.0226 18.5908 36.2736 18.5618 36.569C18.5337 36.8645 18.3805 37.0919 18.2274 37.0765L17.3773 36.9959Z" fill="#3B6B16"/>
<path d="M13.7278 35.7217C13.5955 35.8068 13.3581 35.6745 13.1968 35.4253C13.0355 35.1761 13.0155 34.9051 13.1442 34.819L13.8611 34.355C13.9925 34.2698 14.2308 34.4031 14.3921 34.6514C14.5525 34.9006 14.5734 35.1725 14.4447 35.2577L13.7278 35.7217Z" fill="#3B6B16"/>
<path d="M16.656 26.3193C16.6641 26.1625 16.9115 26.0474 17.2079 26.0646C17.5042 26.0809 17.7371 26.2214 17.7281 26.3782L17.6819 27.231C17.6737 27.3878 17.4263 27.5029 17.1299 27.4856C16.8336 27.4693 16.6007 27.3289 16.6089 27.1721L16.656 26.3193Z" fill="#3B6B16"/>
<path d="M21.2298 33.3935C21.1138 33.4995 20.8574 33.4089 20.6562 33.1914C20.455 32.973 20.3843 32.7102 20.5012 32.6032L21.1292 32.0241C21.2443 31.9181 21.5017 32.0087 21.702 32.2262C21.9032 32.4446 21.9739 32.7075 21.857 32.8144L21.2298 33.3935Z" fill="#3B6B16"/>
<path d="M16.9097 32.0069C16.7701 31.9344 16.7692 31.6616 16.9097 31.3997C17.0474 31.1369 17.2722 30.9829 17.4118 31.0563L18.1676 31.4532C18.3071 31.5257 18.308 31.7985 18.1676 32.0613C18.0298 32.3232 17.8051 32.4773 17.6655 32.4039L16.9097 32.0069Z" fill="#3B6B16"/>
<path d="M15.7135 37.2097C15.6918 36.7222 15.7042 36.2337 15.7507 35.748C15.8286 35.1507 15.3882 35.8023 15.2559 36.4421C15.1236 37.082 15.4108 37.98 15.7135 37.2097Z" fill="#D11B1B"/>
<path d="M19.9474 26.023C19.9474 26.023 18.8599 25.4267 18.8355 25.6261C18.811 25.8254 18.7068 26.6229 19.0113 26.6093C19.3158 26.5957 20.1948 26.4625 19.9474 26.023Z" fill="#D11B1B"/>
<path d="M13.3581 31.1877C13.3581 31.1877 13.7977 31.6997 13.5466 32.0722C13.2956 32.4447 12.8307 32.1311 12.8307 32.1311C12.8307 32.1311 12.9231 31.03 13.3581 31.1877Z" fill="#D11B1B"/>
<path d="M22.2439 35.2251C22.2439 35.2251 21.0658 34.9206 21.0603 35.3746C21.0549 35.8286 22.2285 35.7289 22.2285 35.7289C22.2285 35.7289 22.6354 35.3266 22.2439 35.2251Z" fill="#D11B1B"/>
<path d="M16.9959 30.45C16.9959 30.45 16.4313 30.1237 16.386 30.4726C16.3407 30.8215 16.888 30.8913 16.888 30.8913L16.9959 30.45Z" fill="#D11B1B"/>
<path d="M47.1649 27.0507C47.1649 27.0507 47.4368 28.3194 45.6596 28.5514C45.6446 28.5516 45.6298 28.5549 45.6162 28.5611C45.6025 28.5673 45.5902 28.5762 45.5802 28.5874C45.5701 28.5985 45.5625 28.6116 45.5578 28.6259C45.5531 28.6401 45.5513 28.6552 45.5527 28.6701C45.5527 28.6701 45.241 29.1985 44.8567 28.9076L44.3927 29.2447C44.4016 29.4043 44.379 29.5641 44.3261 29.715C44.2732 29.8659 44.1911 30.0048 44.0845 30.1239C43.9778 30.243 43.8487 30.3399 43.7046 30.4091C43.5605 30.4783 43.4041 30.5184 43.2445 30.527L42.6427 30.4183C42.6427 30.4183 42.6047 30.7608 42.2023 30.6702C41.9835 30.8098 41.7239 30.8711 41.4658 30.8441C41.2078 30.8171 40.9664 30.7034 40.7813 30.5216L40.1197 30.3594C40.1197 30.3594 39.5071 30.5633 39.179 30.2688L38.5528 29.7069C38.5528 29.7069 38.2574 29.4966 38.049 29.3099C37.8405 29.1233 37.7988 28.3874 37.7988 28.3874L37.3883 28.1264C37.3883 28.1264 36.54 28.1735 36.2292 27.6796C35.8055 27.419 35.4009 27.1286 35.0185 26.8105C34.5708 26.4099 34.1122 26.3782 33.9926 26.2142C33.873 26.0502 34.1222 25.4702 34.1222 25.4702C34.1222 25.4702 33.9781 24.911 34.0578 24.8213C34.0578 24.8213 33.7533 24.4407 33.9944 24.1724C33.9944 24.1724 33.8059 23.8425 33.7098 23.6495C33.5732 23.3603 33.5259 23.0369 33.5739 22.7206C33.6754 22.4221 33.8569 22.1572 34.0986 21.9548C34.0259 21.8828 33.9703 21.7955 33.9356 21.6992C33.901 21.603 33.8882 21.5002 33.8983 21.3984C34.089 20.6816 34.3649 19.9904 34.7203 19.3394C34.9315 19.0448 35.1 18.4966 35.6021 18.3552C35.6226 18.1079 35.7091 17.8707 35.8526 17.6683C35.9961 17.4658 36.1912 17.3056 36.4177 17.2043C37.2442 16.762 37.5215 17.1716 37.5215 17.1716L38.0091 16.7484C38.2573 16.6883 38.5185 16.7138 38.7504 16.8209C38.7504 16.8209 38.7051 16.511 39.3848 16.5871C39.5543 16.3228 39.7941 16.1109 40.0772 15.9752C40.3604 15.8394 40.6757 15.7852 40.9879 15.8186C41.6428 15.9223 42.2368 16.2629 42.6572 16.7756C42.7519 16.7711 42.8462 16.7895 42.9322 16.8292C43.0182 16.869 43.0933 16.9289 43.1511 17.004C43.307 17.2505 43.5644 17.8033 43.5644 17.8033C43.9504 17.8388 44.3112 18.01 44.583 18.2863C44.7939 18.5314 44.9627 18.8097 45.0824 19.1101C45.0824 19.1101 46.0149 19.5687 46.1699 20.2982C46.3248 21.0277 46.4073 21.5325 46.4073 21.5325C46.7253 21.6094 47.029 21.7364 47.3072 21.9086C47.6325 22.146 47.6443 23.393 47.3416 23.5516C47.039 23.7102 47.1821 24.2694 47.1821 24.2694L47.2601 24.6618C47.2601 24.6618 47.7848 24.9164 47.6842 25.1493C47.5836 25.3823 47.0498 26.4607 47.0498 26.4607L47.1649 27.0507Z" fill="url(#paint3_linear_205_29)"/>
<path d="M41.8969 27.1757C42.0355 27.1023 42.2594 27.2555 42.3999 27.5183C42.5385 27.7802 42.5376 28.053 42.3999 28.1264L41.645 28.5251C41.5054 28.5985 41.2825 28.4454 41.142 28.1826C41.0033 27.9207 41.0042 27.6488 41.142 27.5754L41.8969 27.1757Z" fill="#3B6B16"/>
<path d="M43.7818 21.972C43.722 21.8261 43.896 21.6168 44.1697 21.5035C44.4415 21.3902 44.7134 21.4129 44.775 21.5615L45.1013 22.3508C45.1611 22.4958 44.9871 22.7052 44.7134 22.8185C44.4415 22.9317 44.1697 22.9091 44.108 22.7605L43.7818 21.972Z" fill="#3B6B16"/>
<path d="M36.7031 20.2021C36.8046 20.0816 37.0701 20.1378 37.2985 20.3281C37.526 20.5184 37.6284 20.7704 37.5278 20.8909L36.984 21.5461C36.8834 21.6666 36.617 21.6104 36.3895 21.4201C36.1621 21.2298 36.0597 20.9779 36.1602 20.8573L36.7031 20.2021Z" fill="#3B6B16"/>
<path d="M39.8161 17.9129C39.8161 17.7561 40.0644 17.6347 40.3598 17.641C40.6571 17.6492 40.8936 17.7833 40.8891 17.9401L40.8664 18.7938C40.8664 18.9506 40.6181 19.072 40.3226 19.0657C40.0263 19.0575 39.7889 18.9234 39.7934 18.7666L39.8161 17.9129Z" fill="#3B6B16"/>
<path d="M45.9124 25.6469C46.0366 25.7429 45.9912 26.0094 45.81 26.2468C45.6287 26.4815 45.3822 26.5948 45.2572 26.4987L44.5802 25.9776C44.4561 25.8825 44.5014 25.6151 44.6826 25.3786C44.8639 25.1439 45.1113 25.0306 45.2354 25.1267L45.9124 25.6469Z" fill="#3B6B16"/>
<path d="M37.4925 25.4158C37.4698 25.2599 37.6891 25.0995 37.9827 25.0533C38.2764 25.0107 38.5328 25.1022 38.5555 25.2581L38.6778 26.1027C38.6996 26.2586 38.4803 26.419 38.1866 26.4652C37.893 26.5078 37.6365 26.4154 37.6139 26.2604L37.4925 25.4158Z" fill="#3B6B16"/>
<path d="M41.0785 22.6381C41.2181 22.5647 41.441 22.7179 41.5815 22.9798C41.7202 23.2426 41.7192 23.5145 41.5815 23.5879L40.8266 23.9866C40.6879 24.06 40.4641 23.9069 40.3236 23.645C40.185 23.3822 40.1859 23.1103 40.3236 23.0369L41.0785 22.6381Z" fill="#3B6B16"/>
<path d="M37.4662 18.7077C37.8804 18.966 38.2758 19.2531 38.6497 19.5669C39.0983 19.9683 38.8092 19.2379 38.357 18.7657C37.9048 18.2936 37.0022 18.0226 37.4662 18.7077Z" fill="#D11B1B"/>
<path d="M44.2948 28.5288C44.2948 28.5288 45.4005 27.9705 45.2509 27.8364C45.1014 27.7023 44.5042 27.1676 44.3401 27.4249C44.1761 27.6823 43.7946 28.4853 44.2948 28.5288Z" fill="#D11B1B"/>
<path d="M43.7637 20.1731C43.7637 20.1731 43.0931 20.2456 42.9273 19.8288C42.7614 19.4119 43.2843 19.2053 43.2843 19.2053C43.2843 19.2053 44.1398 19.904 43.7637 20.1731Z" fill="#D11B1B"/>
<path d="M35.4081 25.2164C35.4081 25.2164 36.3234 24.4198 35.9519 24.1561C35.5803 23.8924 34.9994 24.9192 34.9994 24.9192C34.9994 24.9192 35.1027 25.4819 35.4081 25.2164Z" fill="#D11B1B"/>
<path d="M42.3219 23.5924C42.3219 23.5924 42.9109 23.3115 42.649 23.0767C42.3871 22.842 42.0146 23.258 42.0146 23.258L42.3219 23.5924Z" fill="#D11B1B"/>
<path d="M46.6175 33.5485C46.6175 33.5485 47.8863 33.8204 47.3806 35.5323C47.3747 35.5461 47.3717 35.5611 47.3719 35.5761C47.3721 35.5912 47.3754 35.606 47.3816 35.6198C47.3878 35.6335 47.3968 35.6457 47.408 35.6558C47.4193 35.6659 47.4324 35.6735 47.4467 35.6782C47.4467 35.6782 47.8029 36.1766 47.3815 36.4104L47.5029 36.9714C47.6525 37.0279 47.7895 37.1134 47.906 37.2229C48.0225 37.3324 48.1163 37.4638 48.1821 37.6095C48.2478 37.7553 48.2842 37.9126 48.2891 38.0724C48.294 38.2323 48.2674 38.3915 48.2107 38.541L47.8681 39.0467C47.91 39.0722 47.9454 39.1071 47.9716 39.1486C47.9977 39.1901 48.0139 39.237 48.0189 39.2858C48.0239 39.3346 48.0176 39.3839 48.0004 39.4298C47.9832 39.4757 47.9556 39.5171 47.9198 39.5506C47.9598 39.8081 47.911 40.0716 47.7814 40.2978C47.6517 40.5239 47.449 40.6992 47.2066 40.7949L46.7906 41.3341C46.7906 41.3341 46.7299 41.9766 46.3284 42.1579L45.5617 42.504C45.5617 42.504 45.2491 42.6853 44.9935 42.804C44.738 42.9227 44.0501 42.659 44.0501 42.659L43.645 42.9309C43.645 42.9309 43.3441 43.7257 42.7669 43.81C42.3573 44.0921 41.9282 44.3447 41.4827 44.5658C40.939 44.8132 40.7215 45.2165 40.523 45.2627C40.3245 45.3089 39.8941 44.8431 39.8941 44.8431C39.8941 44.8431 39.324 44.7525 39.2751 44.6392C39.2751 44.6392 38.8038 44.7633 38.6561 44.4353C38.6561 44.4353 38.2782 44.4742 38.0625 44.4833C37.7422 44.4918 37.4266 44.4044 37.1563 44.2323C36.9241 44.0186 36.7551 43.7452 36.6678 43.442C36.5727 43.4793 36.4705 43.4949 36.3686 43.4877C36.2667 43.4805 36.1677 43.4506 36.0787 43.4003C35.5 42.9356 34.9794 42.4028 34.5281 41.8135C34.3469 41.5017 33.9101 41.1256 33.9844 40.6091C33.7661 40.4906 33.5836 40.3156 33.4561 40.1025C33.3286 39.8893 33.2606 39.6458 33.2594 39.3974C33.1896 38.4622 33.6772 38.3743 33.6772 38.3743L33.486 37.7571C33.5318 37.5059 33.6611 37.2776 33.853 37.1091C33.853 37.1091 33.5512 37.0249 33.8974 36.4295C33.7243 36.1676 33.6275 35.8628 33.6179 35.5491C33.6083 35.2353 33.6863 34.9251 33.843 34.6532C34.2026 34.0961 34.7545 33.6906 35.3936 33.514C35.4275 33.4251 35.4823 33.3458 35.5535 33.2826C35.6247 33.2195 35.71 33.1745 35.8023 33.1515C36.0905 33.1099 36.7004 33.0981 36.7004 33.0981C36.8893 32.7592 37.192 32.4982 37.555 32.3613C37.8641 32.2675 38.1866 32.2258 38.5093 32.238C38.9332 31.8772 39.4797 31.6935 40.0354 31.7251C40.7604 31.8792 41.2607 32.007 41.2607 32.007C41.4599 31.7476 41.6987 31.5213 41.9685 31.3363C42.3174 31.1351 43.4629 31.6281 43.4846 31.9707C43.5064 32.3133 44.0773 32.4066 44.0773 32.4066L44.4679 32.4972C44.4679 32.4972 44.9129 32.1211 45.0851 32.3069C45.2572 32.4927 46.0266 33.4198 46.0266 33.4198L46.6175 33.5485Z" fill="url(#paint4_linear_205_29)"/>
<path d="M44.6011 38.4168C44.5902 38.26 44.8213 38.1159 45.1167 38.0951C45.4131 38.0752 45.6605 38.1857 45.6723 38.3416L45.7321 39.1935C45.743 39.3512 45.5119 39.4943 45.2155 39.5152C44.9201 39.536 44.6718 39.4246 44.66 39.2687L44.6011 38.4168Z" fill="#3B6B16"/>
<path d="M40.6 34.587C40.4432 34.587 40.3218 34.3396 40.3281 34.0433C40.3354 33.746 40.4686 33.5095 40.6263 33.5131L41.48 33.5339C41.6367 33.5385 41.7582 33.7814 41.7518 34.0777C41.7446 34.374 41.6114 34.6115 41.4537 34.6069L40.6 34.587Z" fill="#3B6B16"/>
<path d="M36.1204 40.3472C36.0515 40.2058 36.211 39.9847 36.4766 39.8542C36.743 39.7237 37.0149 39.7309 37.0846 39.8723L37.4616 40.6381C37.5314 40.7794 37.371 41.0006 37.1055 41.1311C36.84 41.2625 36.5672 41.2543 36.4983 41.1129L36.1204 40.3472Z" fill="#3B6B16"/>
<path d="M35.2876 36.5717C35.1462 36.5046 35.1344 36.2328 35.2613 35.9645C35.3891 35.6926 35.6066 35.534 35.7489 35.602L36.5201 35.969C36.6624 36.0361 36.6741 36.308 36.5473 36.5762C36.4195 36.8481 36.2011 37.0067 36.0588 36.9387L35.2876 36.5717Z" fill="#3B6B16"/>
<path d="M44.8268 34.1258C44.9645 34.0505 45.1893 34.201 45.3334 34.4611C45.4747 34.7221 45.4784 34.994 45.3397 35.0692L44.5902 35.4779C44.4516 35.5531 44.2277 35.4027 44.0836 35.1417C43.9414 34.8816 43.9386 34.6088 44.0764 34.5336L44.8268 34.1258Z" fill="#3B6B16"/>
<path d="M41.209 41.7328C41.0576 41.6902 40.9996 41.4247 41.0794 41.1383C41.16 40.8529 41.3512 40.6562 41.499 40.6979L42.3209 40.9281C42.4723 40.9707 42.5303 41.2371 42.4505 41.5226C42.3699 41.8081 42.1787 42.0056 42.0309 41.963L41.209 41.7328Z" fill="#3B6B16"/>
<path d="M40.1196 37.3294C40.1088 37.1717 40.3399 37.0285 40.6353 37.0076C40.9316 36.9868 41.179 37.0983 41.1917 37.2541L41.2506 38.106C41.2615 38.2628 41.0304 38.4069 40.735 38.4277C40.4386 38.4477 40.1912 38.3371 40.1785 38.1812L40.1196 37.3294Z" fill="#3B6B16"/>
<path d="M35.0637 39.0431C35.4676 38.7689 35.89 38.523 36.3279 38.3072C36.8771 38.0598 36.0923 38.029 35.4769 38.251C34.8616 38.473 34.2498 39.1899 35.0637 39.0431Z" fill="#D11B1B"/>
<path d="M46.8078 36.7711C46.8078 36.7711 46.7453 35.5341 46.5622 35.6166C46.3791 35.699 45.6469 36.0289 45.8173 36.2827C45.9876 36.5364 46.5658 37.2107 46.8078 36.7711Z" fill="#D11B1B"/>
<path d="M38.9524 33.8765C38.9524 33.8765 38.7467 34.5191 38.2981 34.5018C37.8495 34.4846 37.8721 33.9227 37.8721 33.9227C37.8721 33.9227 38.8581 33.4234 38.9524 33.8765Z" fill="#D11B1B"/>
<path d="M40.1831 43.558C40.1831 43.558 39.8206 42.3989 39.4345 42.63C39.0485 42.8611 39.7463 43.8081 39.7463 43.8081C39.7463 43.8081 40.3027 43.9441 40.1831 43.558Z" fill="#D11B1B"/>
<path d="M41.4936 36.5817C41.4936 36.5817 41.4746 35.9301 41.1547 36.0751C40.8348 36.2201 41.0641 36.7221 41.0641 36.7221L41.4936 36.5817Z" fill="#D11B1B"/>
<path d="M27.1332 16.7828C27.1332 16.7828 28.4019 17.0547 27.8962 18.7666C27.8903 18.7805 27.8874 18.7954 27.8875 18.8104C27.8877 18.8255 27.891 18.8404 27.8972 18.8541C27.9035 18.8678 27.9125 18.8801 27.9237 18.8901C27.9349 18.9002 27.9481 18.9078 27.9624 18.9125C27.9624 18.9125 28.3185 19.4109 27.8971 19.6448L28.0186 20.2057C28.1681 20.2623 28.3051 20.3477 28.4216 20.4572C28.5381 20.5667 28.632 20.6981 28.6977 20.8439C28.7634 20.9896 28.7998 21.1469 28.8047 21.3068C28.8096 21.4666 28.783 21.6258 28.7263 21.7753L28.3838 22.281C28.4256 22.3066 28.461 22.3414 28.4872 22.3829C28.5134 22.4244 28.5296 22.4714 28.5346 22.5202C28.5396 22.5689 28.5332 22.6182 28.516 22.6642C28.4988 22.7101 28.4712 22.7514 28.4354 22.7849C28.4754 23.0425 28.4266 23.306 28.297 23.5321C28.1674 23.7582 27.9647 23.9335 27.7222 24.0292L27.3062 24.5684C27.3062 24.5684 27.2455 25.2109 26.8441 25.3922L26.0774 25.7384C26.0774 25.7384 25.7647 25.9196 25.5091 26.0383C25.2536 26.1571 24.5657 25.8933 24.5657 25.8933L24.1606 26.1652C24.1606 26.1652 23.8598 26.96 23.2825 27.0443C22.8729 27.3264 22.4438 27.579 21.9983 27.8001C21.4546 28.0475 21.2371 28.4508 21.0386 28.497C20.8401 28.5432 20.4097 28.0774 20.4097 28.0774C20.4097 28.0774 19.8396 27.9868 19.7907 27.8735C19.7907 27.8735 19.3195 27.9977 19.1717 27.6696C19.1717 27.6696 18.7938 27.7086 18.5781 27.7176C18.2578 27.7261 17.9422 27.6387 17.6719 27.4666C17.4397 27.2529 17.2708 26.9795 17.1834 26.6763C17.0883 26.7136 16.9861 26.7292 16.8842 26.722C16.7823 26.7148 16.6833 26.685 16.5944 26.6347C16.0157 26.1699 15.4951 25.6371 15.0438 25.0478C14.8625 24.7361 14.4257 24.36 14.5 23.8434C14.2817 23.7249 14.0993 23.5499 13.9717 23.3368C13.8442 23.1236 13.7763 22.8801 13.775 22.6318C13.7052 21.6965 14.1928 21.6086 14.1928 21.6086L14.0016 20.9914C14.0462 20.7409 14.1739 20.5126 14.3641 20.3435C14.3641 20.3435 14.0623 20.2592 14.4085 19.6638C14.2354 19.402 14.1386 19.0971 14.129 18.7834C14.1194 18.4697 14.1974 18.1595 14.3541 17.8875C14.7137 17.3304 15.2656 16.9249 15.9047 16.7484C15.9386 16.6595 15.9934 16.5801 16.0646 16.517C16.1357 16.4538 16.2211 16.4089 16.3134 16.3859C16.6016 16.3442 17.2115 16.3324 17.2115 16.3324C17.4004 15.9935 17.7031 15.7325 18.0661 15.5956C18.3787 15.5012 18.705 15.4601 19.0313 15.4742C19.4551 15.1134 20.0017 14.9297 20.5574 14.9613C21.2824 15.1153 21.7826 15.2431 21.7826 15.2431C21.9819 14.9837 22.2207 14.7574 22.4904 14.5725C22.8393 14.3713 23.9848 14.8643 24.0066 15.2068C24.0283 15.5494 24.5993 15.6428 24.5993 15.6428L24.9899 15.7334C24.9899 15.7334 25.4348 15.3573 25.607 15.5431C25.7792 15.7288 26.5486 16.6559 26.5486 16.6559L27.1332 16.7828Z" fill="url(#paint5_linear_205_29)"/>
<path d="M25.1167 21.6512C25.1058 21.4944 25.3369 21.3503 25.6324 21.3295C25.9287 21.3095 26.1761 21.4201 26.1879 21.576L26.2477 22.4278C26.2586 22.5855 26.0275 22.7287 25.7311 22.7496C25.4357 22.7704 25.1874 22.6589 25.1756 22.5031L25.1167 21.6512Z" fill="#3B6B16"/>
<path d="M21.1156 17.8214C20.9588 17.8214 20.8374 17.574 20.8437 17.2776C20.851 16.9804 20.9842 16.7439 21.1419 16.7475L21.9956 16.7683C22.1524 16.7683 22.2738 17.0157 22.2675 17.3121C22.2602 17.6084 22.127 17.8459 21.9693 17.8413L21.1156 17.8214Z" fill="#3B6B16"/>
<path d="M16.636 23.5815C16.5671 23.4402 16.7266 23.219 16.9922 23.0885C17.2586 22.958 17.5305 22.9653 17.6003 23.1067L17.9773 23.8724C18.0471 24.0138 17.8866 24.2349 17.6211 24.3654C17.3556 24.4968 17.0828 24.4887 17.0139 24.3473L16.636 23.5815Z" fill="#3B6B16"/>
<path d="M15.8032 19.8061C15.6618 19.739 15.65 19.4671 15.7769 19.1989C15.9047 18.927 16.1222 18.7684 16.2645 18.8364L17.0357 19.2034C17.178 19.2705 17.1898 19.5423 17.0629 19.8106C16.9351 20.0779 16.7167 20.2411 16.5744 20.1731L15.8032 19.8061Z" fill="#3B6B16"/>
<path d="M25.3424 17.3601C25.4801 17.2849 25.7049 17.4354 25.849 17.6955C25.9904 17.9565 25.994 18.2283 25.8553 18.3035L25.1059 18.7123C24.9672 18.7875 24.7434 18.637 24.5993 18.376C24.457 18.116 24.4543 17.8432 24.592 17.768L25.3424 17.3601Z" fill="#3B6B16"/>
<path d="M21.7246 24.9672C21.5732 24.9246 21.5152 24.6591 21.595 24.3727C21.6756 24.0872 21.8669 23.8906 22.0146 23.9323L22.8366 24.1625C22.9879 24.2051 23.0459 24.4715 22.9661 24.757C22.8855 25.0424 22.6943 25.24 22.5466 25.1974L21.7246 24.9672Z" fill="#3B6B16"/>
<path d="M20.6353 20.5637C20.6244 20.406 20.8555 20.2629 21.1509 20.242C21.4473 20.2212 21.6947 20.3326 21.7073 20.4885L21.7663 21.3404C21.7771 21.4972 21.546 21.6413 21.2506 21.6621C20.9543 21.682 20.7068 21.5715 20.6942 21.4156L20.6353 20.5637Z" fill="#3B6B16"/>
<path d="M15.5793 22.2775C15.9832 22.0033 16.4056 21.7574 16.8435 21.5416C17.3927 21.2942 16.6079 21.2634 15.9925 21.4854C15.3772 21.7074 14.7655 22.4243 15.5793 22.2775Z" fill="#D11B1B"/>
<path d="M27.3234 20.0055C27.3234 20.0055 27.2609 18.7685 27.0778 18.8509C26.8948 18.9334 26.1634 19.2633 26.3329 19.517C26.5024 19.7708 27.0815 20.445 27.3234 20.0055Z" fill="#D11B1B"/>
<path d="M19.468 17.1109C19.468 17.1109 19.2623 17.7534 18.8137 17.7362C18.3651 17.719 18.3878 17.1571 18.3878 17.1571C18.3878 17.1571 19.3738 16.6578 19.468 17.1109Z" fill="#D11B1B"/>
<path d="M20.6987 26.7924C20.6987 26.7924 20.3407 25.6333 19.9501 25.8644C19.5595 26.0955 20.2619 27.0425 20.2619 27.0425C20.2619 27.0425 20.8183 27.1785 20.6987 26.7924Z" fill="#D11B1B"/>
<path d="M22.0092 19.816C22.0092 19.816 21.9902 19.1644 21.6703 19.3094C21.3504 19.4544 21.5797 19.9565 21.5797 19.9565L22.0092 19.816Z" fill="#D11B1B"/>
<path d="M30.372 35.7978C33.4171 35.7978 35.8856 33.3292 35.8856 30.2841C35.8856 27.239 33.4171 24.7705 30.372 24.7705C27.3269 24.7705 24.8584 27.239 24.8584 30.2841C24.8584 33.3292 27.3269 35.7978 30.372 35.7978Z" fill="#FFE9CC"/>
<path d="M30.3711 24.9971C31.4168 24.9971 32.439 25.3072 33.3085 25.8881C34.1779 26.4691 34.8556 27.2948 35.2557 28.2609C35.6559 29.2269 35.7606 30.29 35.5566 31.3156C35.3526 32.3412 34.849 33.2832 34.1096 34.0226C33.3702 34.7621 32.4282 35.2656 31.4026 35.4696C30.377 35.6736 29.3139 35.5689 28.3478 35.1687C27.3818 34.7686 26.556 34.0909 25.9751 33.2215C25.3941 32.352 25.0841 31.3298 25.0841 30.2841C25.0841 28.8819 25.6411 27.5371 26.6326 26.5456C27.6241 25.5541 28.9689 24.9971 30.3711 24.9971ZM30.3711 24.5439C29.2359 24.5441 28.1261 24.8809 27.1823 25.5118C26.2384 26.1426 25.5028 27.0392 25.0685 28.0881C24.6342 29.137 24.5207 30.2911 24.7422 31.4045C24.9638 32.518 25.5106 33.5407 26.3134 34.3434C27.1162 35.1461 28.139 35.6927 29.2525 35.9141C30.366 36.1355 31.5201 36.0218 32.5689 35.5873C33.6177 35.1528 34.5142 34.4171 35.1449 33.4731C35.7756 32.5292 36.1122 31.4194 36.1122 30.2841C36.1103 28.7622 35.5048 27.3031 34.4285 26.227C33.3522 25.1509 31.8931 24.5456 30.3711 24.5439Z" fill="#FFC06E"/>
<path d="M30.3811 34.8108C32.8757 34.8108 34.8979 32.7886 34.8979 30.2941C34.8979 27.7996 32.8757 25.7773 30.3811 25.7773C27.8866 25.7773 25.8644 27.7996 25.8644 30.2941C25.8644 32.7886 27.8866 34.8108 30.3811 34.8108Z" fill="#FFD59E"/>
<path d="M30.3811 34.249C32.5603 34.249 34.3269 32.4824 34.3269 30.3032C34.3269 28.124 32.5603 26.3574 30.3811 26.3574C28.2019 26.3574 26.4353 28.124 26.4353 30.3032C26.4353 32.4824 28.2019 34.249 30.3811 34.249Z" fill="#FFBB00"/>
<path d="M30.3213 30.8506C30.3213 30.8506 29.4151 31.0771 29.5284 31.4922C29.5686 31.6146 29.6436 31.7226 29.7441 31.803C29.8447 31.8835 29.9666 31.933 30.0948 31.9453L30.6612 31.9073C30.6612 31.9073 30.8877 31.1143 30.3213 30.8506Z" fill="#FFE99A"/>
<path d="M30.7372 28.2451C30.7372 28.2451 29.831 29.3399 30.208 29.6416C30.4147 29.7496 30.6467 29.7995 30.8795 29.7863C31.1122 29.773 31.3371 29.6971 31.5302 29.5664C31.5251 29.2961 31.4492 29.0318 31.3101 28.7999C31.1709 28.5681 30.9734 28.3768 30.7372 28.2451Z" fill="#FFE99A"/>
<path d="M28.585 29.1514C28.585 29.1514 27.6787 29.3779 27.792 29.793C27.8323 29.9154 27.9072 30.0234 28.0078 30.1038C28.1084 30.1843 28.2302 30.2337 28.3584 30.2461L28.9248 30.2081C28.9248 30.2081 29.1514 29.4151 28.585 29.1514Z" fill="#FFE99A"/>
<path d="M31.232 32.5C31.1169 32.5598 30.933 32.432 30.8206 32.2145C30.7082 31.9979 30.71 31.7731 30.8251 31.7142L31.4504 31.3907C31.5655 31.3309 31.7495 31.4587 31.8619 31.6762C31.9743 31.8928 31.9724 32.1175 31.8574 32.1764L31.232 32.5Z" fill="#FF2F0A"/>
<path d="M29.8808 29.1595C29.8355 29.281 29.609 29.3109 29.3842 29.2257C29.1549 29.1414 29.0054 28.9737 29.0498 28.8523L29.2945 28.1926C29.3389 28.0711 29.5618 28.0412 29.7911 28.1255C30.0204 28.2107 30.1699 28.3783 30.1246 28.4998L29.8808 29.1595Z" fill="#00C40A"/>
<path d="M27.8717 32.2362C27.7566 32.2951 27.5717 32.1673 27.4593 31.9507C27.3469 31.7332 27.3497 31.5094 27.4648 31.4496L28.0937 31.1261C28.2088 31.0662 28.3937 31.194 28.506 31.4115C28.6184 31.629 28.6157 31.8529 28.5006 31.9127L27.8717 32.2362Z" fill="#FF2F0A"/>
<path d="M33.737 31.9743C33.8276 32.065 33.7615 32.2807 33.5875 32.4528C33.4144 32.625 33.1996 32.6903 33.1081 32.5978L32.6123 32.0985C32.5217 32.0079 32.5879 31.7922 32.7619 31.62C32.935 31.4478 33.1497 31.3826 33.2413 31.475L33.737 31.9743Z" fill="#00C40A"/>
<path d="M29.7178 32.8896C29.7178 32.8896 28.8116 33.1162 28.9248 33.5313C28.9651 33.6536 29.04 33.7616 29.1406 33.8421C29.2412 33.9226 29.363 33.972 29.4912 33.9844L30.0577 33.9463C30.0577 33.9463 30.2842 33.1534 29.7178 32.8896Z" fill="#FFE99A"/>
<path d="M33.0782 28.1689C33.0782 28.1689 32.1719 28.3955 32.2852 28.8115C32.3254 28.9338 32.4004 29.0418 32.501 29.1223C32.6016 29.2028 32.7234 29.2522 32.8516 29.2646L33.418 29.2265C33.418 29.2265 33.6446 28.4336 33.0782 28.1689Z" fill="#FFE99A"/>
<path opacity="0.47" d="M28.5849 26.7915C28.5849 26.7915 27.376 27.9995 28.3584 28.9058C29.3407 29.812 29.8084 29.3208 30.3213 29.5474C30.8342 29.774 30.9258 30.2651 31.2085 30.6431C31.4913 31.021 33.8521 31.2656 33.814 32.2471C34.2333 31.5089 34.4032 30.6551 34.2984 29.8126C34.1936 28.9701 33.8196 28.1839 33.2321 27.571C32.6447 26.9581 31.8751 26.5512 31.0378 26.4107C30.2005 26.2703 29.3402 26.4038 28.5849 26.7915Z" fill="#FFF2D7"/>
<defs>
<linearGradient id="paint0_linear_205_29" x1="28.2467" y1="38.4432" x2="24.2647" y2="45.8793" gradientUnits="userSpaceOnUse">
<stop stop-color="#FF8521"/>
<stop offset="1" stop-color="#E85F1E"/>
</linearGradient>
<linearGradient id="paint1_linear_205_29" x1="32.9616" y1="20.5352" x2="29.9097" y2="12.6621" gradientUnits="userSpaceOnUse">
<stop stop-color="#FF8521"/>
<stop offset="1" stop-color="#E85F1E"/>
</linearGradient>
<linearGradient id="paint2_linear_205_29" x1="21.7064" y1="32.544" x2="13.4065" y2="31.0114" gradientUnits="userSpaceOnUse">
<stop stop-color="#FF8521"/>
<stop offset="1" stop-color="#E85F1E"/>
</linearGradient>
<linearGradient id="paint3_linear_205_29" x1="37.9221" y1="26.2895" x2="43.8815" y2="20.3126" gradientUnits="userSpaceOnUse">
<stop stop-color="#FF8521"/>
<stop offset="1" stop-color="#E85F1E"/>
</linearGradient>
<linearGradient id="paint4_linear_205_29" x1="42.1691" y1="41.6922" x2="39.1163" y2="33.8194" gradientUnits="userSpaceOnUse">
<stop stop-color="#FF8521"/>
<stop offset="1" stop-color="#E85F1E"/>
</linearGradient>
<linearGradient id="paint5_linear_205_29" x1="22.6855" y1="24.9116" x2="19.6331" y2="17.0397" gradientUnits="userSpaceOnUse">
<stop stop-color="#FF8521"/>
<stop offset="1" stop-color="#E85F1E"/>
</linearGradient>
</defs>
</svg>
