<svg width="51" height="51" viewBox="0 0 51 51" fill="none" xmlns="http://www.w3.org/2000/svg">
<g clip-path="url(#clip0_265_39)">
<path d="M25.3711 50.6034C39.07 50.6034 50.1752 39.4982 50.1752 25.7993C50.1752 12.1004 39.07 0.995239 25.3711 0.995239C11.6722 0.995239 0.567078 12.1004 0.567078 25.7993C0.567078 39.4982 11.6722 50.6034 25.3711 50.6034Z" fill="#FFE9CC"/>
<path d="M25.4174 47.0364C37.1213 47.0364 46.6091 37.5485 46.6091 25.8446C46.6091 14.1408 37.1213 4.65289 25.4174 4.65289C13.7135 4.65289 4.22565 14.1408 4.22565 25.8446C4.22565 37.5485 13.7135 47.0364 25.4174 47.0364Z" fill="#FFD59E"/>
<path d="M22.9415 45.6407C22.3964 45.6324 21.8638 45.4757 21.4009 45.1876C21.3411 45.1986 21.2804 45.2041 21.2196 45.2039C21.0484 45.2078 20.8817 45.1488 20.7511 45.0381C20.5862 44.8949 20.3215 44.6103 20.1883 44.4626C20.1006 44.4737 20.0122 44.4791 19.9237 44.4789C19.6106 44.4865 19.302 44.4037 19.0347 44.2406C18.7666 44.0666 18.5252 43.8548 18.3178 43.6116C17.7302 43.508 17.2072 43.1769 16.8624 42.69C16.6159 42.2369 16.4319 41.8798 16.3404 41.6976H16.315C16.0168 41.705 15.7192 41.6656 15.4332 41.5807C15.0544 41.4466 14.8224 40.8168 14.7445 40.466C14.6961 40.3302 14.6799 40.1851 14.6972 40.042C14.7145 39.8988 14.7648 39.7617 14.8442 39.6413C14.9212 39.5661 14.8269 39.306 14.7535 39.1882L14.6094 38.9164C14.2678 38.8375 13.9515 38.6535 13.9878 38.3436C14.0122 38.1288 14.1627 37.2371 14.2089 36.9688L13.9633 36.5075C13.8033 36.1789 13.7773 35.801 13.8908 35.4536C13.929 35.3396 13.9814 35.2309 14.0467 35.13C13.6362 35.2338 13.2179 35.3038 12.796 35.3394H12.7897C12.6828 35.3394 12.5976 35.3475 12.5079 35.3557C12.3909 35.3666 12.2677 35.3774 12.1454 35.3774C11.9061 35.3862 11.6692 35.3281 11.4611 35.2098C11.2618 35.2998 11.0455 35.3459 10.8268 35.3448C10.5258 35.3413 10.2301 35.2652 9.96491 35.1228C9.34595 34.8011 9.19823 34.4377 9.1792 34.2011L8.68438 34.0734L8.64451 34.038C8.47306 33.8826 8.34131 33.6884 8.26026 33.4716C8.14813 33.4415 8.04387 33.3874 7.95469 33.3131C7.8655 33.2388 7.79351 33.146 7.7437 33.0411C7.41098 33.0299 7.08711 32.9311 6.80482 32.7546C6.52253 32.5781 6.29182 32.3303 6.13601 32.0361C5.83812 31.4183 5.76753 30.7152 5.93663 30.0505C5.87898 29.951 5.84433 29.8399 5.83524 29.7252C5.82614 29.6106 5.84283 29.4954 5.88407 29.388C5.96926 29.1887 6.15595 28.8497 6.26016 28.6775C6.08272 28.3158 6.0335 27.9046 6.1206 27.5112C6.20512 27.2035 6.33297 26.9093 6.50032 26.6376C6.42053 26.0459 6.57751 25.4466 6.93713 24.9701C7.29057 24.5985 7.57785 24.313 7.72285 24.1699C7.62213 23.8804 7.56651 23.5772 7.55791 23.2709C7.57332 22.7425 8.55479 22.0701 9.01244 22.0701C9.08675 22.0689 9.16019 22.086 9.22632 22.1199H9.23991C9.39357 22.0949 9.53297 22.015 9.63232 21.8952L9.84529 21.6759C9.83045 21.5207 9.84522 21.3642 9.88879 21.2146C9.87496 21.1959 9.86254 21.1762 9.85163 21.1557C9.80291 21.079 9.75028 21.0049 9.69395 20.9336C9.45013 20.6645 9.30005 20.3237 9.26619 19.9621C9.05267 19.8129 8.87703 19.6157 8.75334 19.3865C8.62966 19.1572 8.56135 18.9021 8.55388 18.6417C8.50878 18.4338 8.5193 18.2177 8.58437 18.0152C8.64945 17.8126 8.76678 17.6308 8.92454 17.4881L8.7741 17.0005L8.78226 16.947C8.82438 16.7196 8.92075 16.5057 9.06319 16.3235V16.3181C9.03122 16.2084 9.02325 16.0931 9.03982 15.98C9.0564 15.867 9.09713 15.7588 9.15926 15.6629C8.9912 15.3734 8.90382 15.0442 8.90621 14.7095C8.9086 14.3748 9.00068 14.0468 9.17285 13.7598C9.54202 13.1818 10.1033 12.7527 10.7579 12.5481C10.8118 12.4466 10.8879 12.3585 10.9804 12.2902C11.073 12.222 11.1796 12.1754 11.2926 12.1539C11.5074 12.1231 11.897 12.1077 12.0946 12.1013C12.3103 11.7613 12.6344 11.5039 13.0144 11.3709C13.3113 11.2838 13.6186 11.2381 13.9279 11.2349H13.9579C14.3525 10.925 14.8304 10.7395 15.3308 10.7021C15.4222 10.7022 15.5132 10.7117 15.6027 10.7302C16.1057 10.8371 16.4999 10.9304 16.6965 10.9794C16.8903 10.7415 17.1196 10.5349 17.3762 10.3668C17.4794 10.3123 17.595 10.2858 17.7115 10.2897C18.2054 10.2897 19.2005 10.6939 19.2313 11.1824C19.2313 11.2331 19.3002 11.2902 19.4017 11.3364L19.428 11.2812C19.2601 10.9916 19.173 10.6623 19.1755 10.3276C19.1781 9.99293 19.2703 9.66504 19.4425 9.37804C19.8111 8.80001 20.3722 8.37085 21.0266 8.16639C21.0815 8.06652 21.158 7.98013 21.2505 7.91351C21.343 7.84689 21.4492 7.8017 21.5613 7.78123C21.7761 7.75042 22.1649 7.73501 22.3633 7.72867C22.5789 7.38831 22.903 7.13063 23.2832 6.99732C23.5776 6.91087 23.8826 6.86543 24.1894 6.86229H24.222C24.6161 6.55195 25.0939 6.36639 25.5941 6.32942C25.6854 6.32962 25.7765 6.33904 25.866 6.35751C26.3689 6.46445 26.7614 6.55779 26.9589 6.60673C27.1527 6.36887 27.382 6.16224 27.6386 5.9941C27.7418 5.93967 27.8573 5.91311 27.9739 5.91707C28.4678 5.91707 29.4629 6.32126 29.4937 6.80973C29.5019 6.91576 29.7601 7.01364 29.8979 7.03629L30.1969 7.10245C30.353 6.97719 30.5417 6.89948 30.7407 6.8786C30.7961 6.87739 30.8512 6.8879 30.9022 6.90946C30.9533 6.93101 30.9992 6.96312 31.037 7.00367C31.1839 7.16135 31.762 7.85645 31.9369 8.06489L32.4472 8.17907C32.8014 8.27262 33.1056 8.50005 33.2954 8.81345C33.4189 9.05435 33.4917 9.31799 33.5093 9.58811C33.5269 9.85823 33.489 10.1291 33.3978 10.384L33.4114 10.4021C33.5509 10.5957 33.6112 10.8353 33.58 11.0718C33.555 11.1825 33.4976 11.2831 33.415 11.3609L33.4821 11.6727C33.7718 11.8277 34.0099 12.0639 34.1672 12.3524C34.1754 12.3524 34.2424 12.3524 34.2687 12.3524C34.4417 12.1172 34.6665 11.9251 34.9256 11.7907C35.1847 11.6564 35.4713 11.5834 35.7631 11.5775C35.8468 11.5776 35.9304 11.5833 36.0133 11.5947C36.6921 11.699 37.3123 12.0399 37.7641 12.5572C37.8785 12.5644 37.9897 12.5976 38.0892 12.6543C38.1888 12.711 38.2741 12.7897 38.3387 12.8843C38.4547 13.0656 38.626 13.4172 38.7112 13.5966C39.1099 13.6545 39.4771 13.8462 39.7524 14.1404C39.959 14.3836 40.129 14.6556 40.2572 14.9479C40.7902 15.2164 41.1956 15.6844 41.3855 16.2501C41.4924 16.7522 41.5668 17.15 41.6003 17.3512C41.8966 17.4314 42.1785 17.5574 42.4359 17.7246C42.7603 17.9611 42.7984 18.6309 42.7748 18.9934C42.753 19.2716 42.6778 19.6277 42.4404 19.7528C42.3498 19.8026 42.3624 20.079 42.3969 20.2132L42.4558 20.5122C42.7612 20.6862 43.0104 20.9536 42.8872 21.2372C42.7965 21.4348 42.4005 22.2459 42.2791 22.4888L42.3815 23.0026C42.4406 23.3631 42.3567 23.7325 42.1477 24.0321C41.9776 24.2428 41.766 24.4164 41.5261 24.542C41.2862 24.6677 41.023 24.7427 40.7529 24.7625L40.7412 24.7816C40.675 24.9011 40.5811 25.0031 40.4674 25.0789C40.3538 25.1548 40.2236 25.2023 40.0878 25.2175C40.0117 25.2177 39.9365 25.2022 39.8666 25.1722L39.612 25.3534C39.6114 25.7169 39.469 26.0658 39.2152 26.3259C38.9613 26.5861 38.616 26.7369 38.2526 26.7463L37.7795 26.6657C37.7313 26.7415 37.6641 26.8034 37.5847 26.8453C37.5052 26.8873 37.4162 26.9078 37.3264 26.9049C37.3001 26.9049 37.2739 26.9049 37.2467 26.9004C37.0486 27.0109 36.8255 27.0689 36.5987 27.0689C36.2585 27.0629 35.9306 26.9404 35.6698 26.7219L35.1161 26.5868C34.9681 26.6258 34.8159 26.6462 34.6629 26.6475C34.4278 26.6588 34.1969 26.5815 34.0159 26.4309L33.3897 25.8709C33.3897 25.8709 33.0951 25.6597 32.8849 25.4721C32.6841 25.1917 32.574 24.8564 32.5695 24.5115L32.3085 24.3457C32.0752 24.3602 31.8417 24.3223 31.625 24.2348C31.4083 24.1473 31.2139 24.0124 31.0561 23.84C30.6353 23.5804 30.234 23.2906 29.8553 22.9727C29.6614 22.807 29.4391 22.6777 29.1992 22.5912C29.0468 22.5451 28.909 22.4602 28.7995 22.3447C28.6454 22.138 28.746 21.7556 28.872 21.4457C28.8159 21.2543 28.7918 21.0549 28.8004 20.8557C28.7317 20.7547 28.6883 20.6386 28.674 20.5173C28.6596 20.396 28.6747 20.273 28.7179 20.1588C28.6536 20.0419 28.5557 19.8661 28.4959 19.7437C28.3958 19.5338 28.3362 19.3069 28.3201 19.0749C28.0104 19.2767 27.688 19.4584 27.3549 19.6187C27.1246 19.7286 26.9161 19.8793 26.7396 20.0636C26.6365 20.1849 26.5029 20.2766 26.3526 20.3292H26.339C26.0357 20.2861 25.7587 20.1332 25.5606 19.8996C25.3625 19.873 25.17 19.8146 24.9905 19.7265C24.9454 19.7318 24.9 19.7345 24.8546 19.7347C24.7553 19.7401 24.6561 19.7237 24.5638 19.6866C24.4716 19.6495 24.3886 19.5926 24.3208 19.5199C24.1885 19.5326 23.9882 19.5498 23.8514 19.5561H23.8369C23.7353 19.5561 23.6338 19.5489 23.5333 19.5344C23.389 19.8239 23.1537 20.0582 22.8636 20.2014L22.5165 20.6545C22.4991 20.8462 22.4369 21.0312 22.3351 21.1945C22.2333 21.3579 22.0946 21.4951 21.9301 21.5952L21.1644 21.9405C21.1644 21.9405 20.8526 22.1217 20.5952 22.2414C20.5093 22.2773 20.4165 22.294 20.3234 22.2903C20.0719 22.276 19.8237 22.2257 19.5866 22.1408L19.3301 22.3111C19.1952 22.6222 18.9816 22.8927 18.7102 23.0959C18.7873 23.3084 18.8182 23.5349 18.8009 23.7602L19.002 24.2931C19.1567 24.4088 19.2819 24.5594 19.3675 24.7326C19.453 24.9058 19.4964 25.0968 19.4941 25.29L19.3863 26.1228C19.3863 26.1228 19.379 26.4853 19.3437 26.7644C19.3056 27.0572 18.9359 27.3988 18.7302 27.5683L18.741 27.8737C18.8832 28.0594 18.9829 28.2741 19.0332 28.5025C19.0834 28.731 19.083 28.9677 19.0319 29.1959C19.0566 29.69 19.0448 30.1853 18.9966 30.6776C18.9865 30.7597 18.9829 30.8424 18.9857 30.925C19.099 30.943 19.2099 30.9734 19.3165 31.0157L19.8856 30.9858C20.11 30.8418 20.368 30.759 20.6342 30.7456C20.754 30.7441 20.8726 30.7695 20.9813 30.8199L21.7416 31.1761C21.7416 31.1761 22.0851 31.293 22.3398 31.4126C22.6134 31.6228 22.8153 31.9124 22.9179 32.2418L23.2125 32.3243C23.4133 32.2635 23.6217 32.2315 23.8314 32.2291C24.0926 32.2184 24.3498 32.2956 24.5619 32.4484C25.0394 32.5757 25.507 32.7374 25.9611 32.9324C26.194 33.0371 26.444 33.0986 26.6988 33.1136C26.8579 33.1134 27.0143 33.1553 27.1519 33.2351C27.3586 33.3882 27.3722 33.7788 27.3414 34.1159C27.4495 34.2833 27.5302 34.4669 27.5806 34.6597C27.6751 34.737 27.7498 34.8359 27.7984 34.948C27.8469 35.0601 27.868 35.1822 27.8597 35.304C27.9558 35.3947 28.099 35.5369 28.1923 35.6366C28.44 35.909 28.5995 36.2498 28.65 36.6145C28.6592 36.9109 28.5865 37.2041 28.4397 37.4618C28.5837 37.5937 28.6813 37.7685 28.7179 37.9603C28.7486 38.74 28.6801 39.5205 28.514 40.283C28.4873 40.3697 28.4649 40.4577 28.447 40.5467C28.4018 40.9069 28.2405 41.2425 27.9875 41.5028C28.0134 41.7622 27.9781 42.0241 27.8845 42.2674C27.7908 42.5108 27.6414 42.7287 27.4483 42.9039C27.2095 43.1859 26.8686 43.3619 26.5004 43.3932C26.4433 43.393 26.3865 43.3867 26.3309 43.3742L26.059 43.8047L26.0137 43.8319C25.8136 43.9479 25.5886 44.0144 25.3576 44.0258C25.295 44.1217 25.2125 44.203 25.1157 44.2641C25.0189 44.3253 24.9101 44.3649 24.7966 44.3801C24.6859 44.6952 24.4932 44.9749 24.2383 45.1906C23.9834 45.4063 23.6756 45.5501 23.3466 45.6072C23.2127 45.6289 23.0772 45.6401 22.9415 45.6407Z" fill="#FFD59E"/>
<path d="M27.9812 6.15C28.447 6.15 29.2572 6.54422 29.2762 6.83059C29.298 7.17225 29.868 7.2665 29.868 7.2665L30.2586 7.35712C30.3974 7.23506 30.5658 7.15162 30.747 7.11515C30.771 7.11397 30.7948 7.11797 30.8171 7.12689C30.8393 7.1358 30.8593 7.14942 30.8757 7.16681C31.0479 7.35259 31.8173 8.27969 31.8173 8.27969L32.4037 8.41019C32.4037 8.41019 33.6724 8.67753 33.1667 10.3949C33.161 10.4087 33.1581 10.4237 33.1584 10.4387C33.1586 10.4537 33.1619 10.4685 33.1681 10.4822C33.1744 10.4959 33.1833 10.5081 33.1944 10.5182C33.2056 10.5283 33.2187 10.536 33.2329 10.5408C33.2329 10.5408 33.5891 11.0383 33.1676 11.273L33.2891 11.8331C33.624 11.9845 33.8885 12.2581 34.0286 12.598C34.0849 12.589 34.1419 12.5848 34.199 12.5853C34.2613 12.5852 34.3237 12.5889 34.3856 12.5962C34.5363 12.3639 34.7407 12.1713 34.9816 12.0349C35.2225 11.8984 35.4928 11.822 35.7695 11.8122C35.8428 11.8126 35.9161 11.8178 35.9888 11.8277C36.6435 11.9313 37.2372 12.2718 37.6572 12.7847H37.6744C37.7665 12.7815 37.858 12.8006 37.9412 12.8404C38.0243 12.8801 38.0967 12.9393 38.152 13.013C38.3079 13.2595 38.5653 13.8123 38.5653 13.8123C38.9512 13.8479 39.3121 14.019 39.5839 14.2954C39.7948 14.5404 39.9636 14.8188 40.0832 15.1192C40.0832 15.1192 41.0158 15.5777 41.1707 16.3063C41.3257 17.035 41.4082 17.5416 41.4082 17.5416C41.7262 17.6185 42.0299 17.7454 42.3081 17.9177C42.6334 18.1551 42.6452 19.4021 42.3425 19.5607C42.0398 19.7193 42.183 20.2784 42.183 20.2784L42.261 20.6708C42.261 20.6708 42.7857 20.9255 42.6851 21.1584C42.5845 21.3913 42.0507 22.4697 42.0507 22.4697L42.1685 23.0588C42.1685 23.0588 42.4404 24.3276 40.6632 24.5596C40.6482 24.5597 40.6334 24.563 40.6198 24.5692C40.6061 24.5754 40.5938 24.5844 40.5838 24.5955C40.5737 24.6067 40.5661 24.6198 40.5614 24.634C40.5567 24.6483 40.5549 24.6633 40.5563 24.6783C40.5563 24.6783 40.3651 25.0027 40.0968 25.0027C40.0101 24.9998 39.9268 24.9679 39.8603 24.9121L39.3963 25.2492C39.4052 25.4088 39.3826 25.5687 39.3297 25.7195C39.2768 25.8704 39.1947 26.0094 39.0881 26.1285C38.9814 26.2476 38.8523 26.3445 38.7082 26.4136C38.5641 26.4828 38.4077 26.5229 38.2481 26.5316L37.6463 26.4228C37.6379 26.4991 37.6011 26.5695 37.5432 26.6199C37.4852 26.6703 37.4104 26.697 37.3337 26.6947C37.2907 26.6939 37.2479 26.6887 37.2059 26.6793C37.0284 26.798 36.8195 26.8611 36.606 26.8605C36.2993 26.85 36.0067 26.7297 35.7813 26.5216L35.1197 26.3594C34.9754 26.4035 34.8256 26.4267 34.6747 26.4282C34.4957 26.4375 34.3194 26.3811 34.179 26.2697L33.5528 25.7078C33.5528 25.7078 33.2574 25.4975 33.048 25.3108C32.8387 25.1242 32.7988 24.3883 32.7988 24.3883L32.3874 24.1273H32.3294C32.124 24.1415 31.9181 24.1085 31.7274 24.0309C31.5367 23.9533 31.3663 23.8331 31.2292 23.6796C30.8055 23.419 30.4009 23.1286 30.0184 22.8105C29.5707 22.4099 29.1122 22.3782 28.9925 22.2142C28.8729 22.0502 29.1221 21.4702 29.1221 21.4702C29.1221 21.4702 28.9781 20.911 29.0578 20.8213C29.0578 20.8213 28.7533 20.4407 28.9944 20.1724C28.9944 20.1724 28.8059 19.8425 28.7098 19.6495C28.5732 19.3603 28.5259 19.0369 28.5739 18.7206C28.582 18.6958 28.5916 18.6716 28.6029 18.6481C28.5875 18.6481 28.5739 18.659 28.5585 18.6617C28.1485 18.9437 27.7191 19.1963 27.2734 19.4175C26.7296 19.664 26.5131 20.0682 26.3137 20.1135C26.3041 20.1149 26.2943 20.1149 26.2847 20.1135C26.0753 20.1135 25.6847 19.6912 25.6847 19.6912C25.6847 19.6912 25.1156 19.6006 25.0658 19.4873C25.0004 19.5024 24.9335 19.51 24.8664 19.5099C24.7818 19.5183 24.6967 19.5012 24.6219 19.4609C24.5471 19.4205 24.4862 19.3587 24.4468 19.2834C24.4468 19.2834 24.0689 19.3214 23.8532 19.3314H23.8097C23.6726 19.3295 23.5363 19.3109 23.4037 19.2761C23.3504 19.4417 23.2625 19.594 23.1458 19.7229C23.0291 19.8518 22.8862 19.9544 22.7267 20.0238L22.3108 20.563C22.3108 20.563 22.25 21.2055 21.8486 21.3868L21.0819 21.733C21.0819 21.733 20.7692 21.9142 20.5137 22.0329C20.458 22.0546 20.3984 22.0644 20.3388 22.0619C20.0757 22.0402 19.817 21.9816 19.5703 21.8879L19.1652 22.1598C19.0282 22.5182 18.7666 22.8151 18.4284 22.9963C18.5643 23.2383 18.6196 23.5173 18.5861 23.7929L18.8262 24.4272C18.8262 24.4272 19.341 24.8169 19.2794 25.2537L19.1715 26.0875C19.1715 26.0875 19.1643 26.45 19.1289 26.7282C19.0936 27.0064 18.509 27.4532 18.509 27.4532L18.5272 27.9399C18.5272 27.9399 19.0455 28.6132 18.8145 29.1479C18.8392 29.645 18.8283 30.1432 18.7818 30.6387C18.7613 30.7987 18.7613 30.9608 18.7818 31.1208C18.9553 31.1275 19.1261 31.1659 19.2857 31.2341L19.9663 31.1997C20.1668 31.0623 20.4 30.9804 20.6424 30.9622C20.7289 30.9608 20.8147 30.9788 20.8934 31.0148L21.6546 31.3718C21.6546 31.3718 21.9981 31.4887 22.2519 31.6075C22.5056 31.7262 22.7557 32.4186 22.7557 32.4186L23.2252 32.55C23.4234 32.4838 23.6307 32.4487 23.8396 32.4457C24.0646 32.4346 24.286 32.5051 24.4631 32.6442C24.944 32.7719 25.4153 32.9336 25.8732 33.1282C26.417 33.3837 26.862 33.2822 27.0269 33.4C27.1918 33.5178 27.1175 34.1504 27.1175 34.1504C27.1175 34.1504 27.4166 34.6443 27.3649 34.7531C27.3649 34.7531 27.7664 35.0249 27.6132 35.3557C27.6132 35.3557 27.8851 35.6176 28.0365 35.7753C28.2504 36.0128 28.3886 36.3088 28.4334 36.6254C28.4222 36.9404 28.3247 37.2464 28.1516 37.5099C28.2419 37.5578 28.3205 37.6253 28.3815 37.7075C28.4424 37.7896 28.4843 37.8844 28.5041 37.9847C28.5274 38.7261 28.4617 39.4676 28.3083 40.1933C28.1923 40.5367 28.1887 41.1104 27.7474 41.3895C27.7988 41.6326 27.7839 41.8851 27.7041 42.1204C27.6244 42.3558 27.4828 42.5654 27.2942 42.7271C27.1971 42.846 27.0774 42.9445 26.9421 43.017C26.8068 43.0894 26.6586 43.1345 26.5058 43.1495C26.4135 43.1534 26.3224 43.1276 26.2457 43.0761L25.9013 43.6198C25.728 43.7185 25.5333 43.7738 25.334 43.7811C25.2791 43.7813 25.2244 43.7752 25.1709 43.763C25.1709 43.763 25.3032 44.0466 24.6271 44.1708C24.541 44.4727 24.3726 44.7447 24.1407 44.9563C23.9088 45.1679 23.6225 45.3107 23.314 45.3689C23.1893 45.3889 23.0632 45.3989 22.937 45.3988C22.4032 45.3917 21.8831 45.2296 21.4399 44.9321C21.3694 44.9555 21.2957 44.9674 21.2215 44.9674C21.1047 44.9706 20.9906 44.9314 20.9006 44.8568C20.6804 44.6647 20.2753 44.2098 20.2753 44.2098C20.1597 44.2316 20.0423 44.2423 19.9246 44.2415C19.6557 44.2488 19.3903 44.179 19.1597 44.0403C18.8874 43.8666 18.6458 43.6488 18.4447 43.396C17.8949 43.3089 17.3999 43.0132 17.0627 42.5704C16.7056 41.917 16.479 41.4566 16.479 41.4566C16.479 41.4566 16.4156 41.4566 16.3159 41.4566C16.0433 41.463 15.7714 41.4278 15.5094 41.3524C15.1296 41.2182 14.759 40.0274 15.0037 39.7882C15.2484 39.5489 14.9493 39.055 14.9493 39.055L14.7617 38.7016C14.7617 38.7016 14.1862 38.611 14.218 38.3572C14.2497 38.1035 14.4509 36.9181 14.4509 36.9181L14.1681 36.3879C14.1681 36.3879 13.5455 35.2506 15.1777 34.5174C15.192 34.5128 15.2051 34.5053 15.2164 34.4953C15.2276 34.4854 15.2367 34.4733 15.2431 34.4597C15.2495 34.4461 15.253 34.4313 15.2534 34.4163C15.2539 34.4013 15.2512 34.3864 15.2456 34.3724C15.2692 34.2927 15.3027 34.2163 15.3453 34.145L15.3 34.1531C15.282 34.2538 15.2418 34.3492 15.1822 34.4323C15.1226 34.5154 15.0452 34.5841 14.9556 34.6334C14.26 34.8804 13.5375 35.0438 12.8033 35.1201H12.7707C12.5894 35.1201 12.3737 35.1582 12.1499 35.1582C11.9094 35.1716 11.6721 35.0976 11.482 34.9497C11.2854 35.0695 11.0587 35.1305 10.8286 35.1255C10.5638 35.1224 10.3038 35.0549 10.071 34.9289C9.23902 34.4975 9.41936 34.0362 9.41936 34.0362L8.79495 33.874C8.60388 33.7037 8.4761 33.4737 8.43245 33.2215C8.4019 33.2459 8.36371 33.2588 8.32461 33.2577C8.22674 33.2577 8.06905 33.1843 7.87783 32.8264C7.86364 32.8271 7.84942 32.8271 7.83524 32.8264C7.52819 32.8295 7.22615 32.7484 6.96202 32.5918C6.69788 32.4352 6.48177 32.2092 6.3372 31.9382C6.05215 31.3397 5.997 30.6572 6.18224 30.0206C6.12489 29.945 6.0867 29.8566 6.07092 29.7631C6.05514 29.6695 6.06224 29.5735 6.09161 29.4832C6.2067 29.2113 6.51755 28.6912 6.51755 28.6912C6.32761 28.3529 6.26341 27.9584 6.3363 27.5774C6.4188 27.2649 6.55296 26.9684 6.73324 26.7001C6.64787 26.1503 6.7777 25.5888 7.09574 25.1323C7.61049 24.5931 7.97933 24.2369 7.97933 24.2369C7.86281 23.9314 7.79552 23.6093 7.77995 23.2827C7.79083 22.9202 8.62277 22.3021 9.00792 22.3021C9.04529 22.3007 9.0824 22.3088 9.11577 22.3257C9.16051 22.349 9.21028 22.3612 9.26077 22.361C9.47059 22.323 9.66062 22.2131 9.79817 22.0502L10.0773 21.7638C10.0773 21.7638 10.0175 21.3542 10.1489 21.1974C10.1098 21.1496 10.0738 21.0993 10.041 21.0469C9.8598 20.7352 9.42299 20.3591 9.4973 19.8425C9.279 19.724 9.09655 19.549 8.96901 19.3359C8.84148 19.1228 8.77354 18.8793 8.7723 18.6309C8.70252 17.6956 9.19008 17.6077 9.19008 17.6077L8.99886 16.9906C9.04347 16.74 9.17117 16.5117 9.36136 16.3426C9.36136 16.3426 9.05958 16.2583 9.40577 15.6629C9.23267 15.4011 9.13589 15.0962 9.12629 14.7825C9.11669 14.4688 9.19463 14.1586 9.35139 13.8867C9.71094 13.3295 10.2628 12.9241 10.902 12.7475C10.9358 12.6586 10.9907 12.5792 11.0619 12.5161C11.133 12.453 11.2184 12.408 11.3107 12.385C11.5989 12.3433 12.2088 12.3315 12.2088 12.3315C12.3976 11.9927 12.7004 11.7316 13.0634 11.5947C13.3393 11.5137 13.625 11.471 13.9125 11.4679C13.9796 11.4679 14.0177 11.4679 14.0177 11.4679C14.3871 11.1637 14.839 10.9769 15.3154 10.9314C15.3922 10.9311 15.4687 10.939 15.5438 10.9549C16.2688 11.109 16.769 11.2368 16.769 11.2368C16.9683 10.9774 17.2071 10.7511 17.4768 10.5662C17.5455 10.5316 17.622 10.5153 17.6989 10.519C18.1647 10.519 18.9749 10.9132 18.993 11.1996C19.0111 11.486 19.3854 11.5893 19.5277 11.6228C19.5607 11.5012 19.6111 11.3849 19.6772 11.2776C19.5041 11.0156 19.4072 10.7107 19.3975 10.3968C19.3877 10.083 19.4654 9.77261 19.6219 9.5004C19.9819 8.94332 20.5341 8.53791 21.1734 8.36125C21.207 8.27234 21.2616 8.1929 21.3327 8.12976C21.4037 8.06662 21.489 8.02166 21.5812 7.99875C21.8703 7.95615 22.4802 7.94437 22.4802 7.94437C22.6688 7.6058 22.9713 7.34505 23.3339 7.2085C23.6097 7.12695 23.8955 7.08424 24.1831 7.08162C24.251 7.08162 24.2891 7.08162 24.2891 7.08162C24.6584 6.77725 25.1104 6.59039 25.5869 6.54512C25.6633 6.54484 25.7396 6.55274 25.8143 6.56869C26.5393 6.72275 27.0405 6.85053 27.0405 6.85053C27.2393 6.59052 27.4782 6.36383 27.7483 6.179C27.8169 6.14517 27.893 6.12927 27.9694 6.13278M27.9694 5.67965C27.8134 5.67538 27.659 5.71226 27.5217 5.78659C27.28 5.93946 27.062 6.12694 26.8746 6.34303C26.6553 6.29047 26.3182 6.21162 25.9086 6.12553C25.8029 6.10285 25.695 6.09161 25.5869 6.092C25.0615 6.12226 24.5568 6.30771 24.1369 6.62487C23.8214 6.63243 23.5082 6.68086 23.2052 6.76897C22.8099 6.89937 22.467 7.15357 22.2274 7.49397C22.0135 7.50212 21.7081 7.51753 21.5133 7.54562C21.3809 7.56734 21.2546 7.61675 21.1426 7.69061C21.0307 7.76448 20.9355 7.86114 20.8635 7.97428C20.1898 8.20445 19.6145 8.65701 19.2322 9.25753C19.0062 9.61785 18.9025 10.0416 18.9368 10.4656C18.5637 10.2278 18.1367 10.0879 17.6952 10.0587C17.5388 10.0544 17.384 10.0916 17.2466 10.1665C17.0051 10.3188 16.7873 10.506 16.6005 10.722C16.3812 10.6695 16.0431 10.5915 15.6344 10.5045C15.5286 10.4823 15.4208 10.4711 15.3127 10.471C14.7873 10.5019 14.2828 10.6876 13.8627 11.0048C13.5472 11.0119 13.234 11.0604 12.9311 11.1489C12.5358 11.2789 12.1931 11.5332 11.9541 11.8739C11.7403 11.882 11.4349 11.8974 11.24 11.9264C11.1077 11.948 10.9815 11.9973 10.8695 12.071C10.7575 12.1447 10.6624 12.2412 10.5902 12.3542C9.91714 12.5854 9.34216 13.0377 8.95899 13.6374C8.77563 13.9405 8.6728 14.2855 8.66027 14.6395C8.64774 14.9935 8.72593 15.3449 8.88739 15.6602C8.79459 15.8508 8.76294 16.0654 8.79677 16.2746C8.67132 16.4654 8.58507 16.6792 8.54302 16.9036L8.5258 17.0096L8.55752 17.112L8.64814 17.4111C8.5055 17.5811 8.40148 17.7801 8.34327 17.9944C8.28507 18.2086 8.27406 18.4328 8.31102 18.6517C8.32304 18.927 8.39341 19.1966 8.51746 19.4427C8.6415 19.6888 8.8164 19.9057 9.03058 20.0791C9.09172 20.4438 9.25263 20.7844 9.49549 21.0632C9.54352 21.1267 9.59064 21.1874 9.62689 21.2445C9.60405 21.3551 9.59402 21.4679 9.59699 21.5807L9.46105 21.7203C9.40337 21.7858 9.33542 21.8415 9.25986 21.8852C9.1757 21.8517 9.08583 21.8347 8.99524 21.8354C8.4252 21.8354 7.33408 22.5876 7.31505 23.2555C7.31747 23.5415 7.36236 23.8255 7.44827 24.0983C7.28786 24.2569 7.04408 24.5034 6.75589 24.8061C6.55972 25.0531 6.41424 25.3365 6.32778 25.6399C6.24131 25.9433 6.21557 26.2608 6.25202 26.5742C6.09204 26.8462 5.96863 27.1381 5.88499 27.4423C5.78813 27.8472 5.82469 28.2725 5.9892 28.6549C5.88408 28.8416 5.73636 29.108 5.65842 29.2893C5.60711 29.4133 5.58268 29.5469 5.58674 29.681C5.5908 29.8152 5.62326 29.947 5.68199 30.0677C5.52411 30.7614 5.60689 31.4882 5.9167 32.1286C6.07936 32.4435 6.31938 32.7119 6.61423 32.9086C6.90908 33.1054 7.24909 33.2239 7.60233 33.2532C7.71553 33.4316 7.88061 33.5711 8.07539 33.6529C8.17225 33.8589 8.30901 34.0438 8.47777 34.1966L8.55842 34.2673L8.66174 34.2936L8.96533 34.3724C9.03437 34.5888 9.1507 34.7871 9.30588 34.9529C9.46106 35.1188 9.6512 35.248 9.86252 35.3312C10.16 35.4902 10.4913 35.5751 10.8286 35.5787C11.0414 35.5789 11.2525 35.5412 11.4521 35.4672C11.6706 35.5679 11.9093 35.6171 12.1499 35.6113C12.2822 35.6113 12.4127 35.5995 12.5369 35.5886C12.6202 35.5814 12.6991 35.5732 12.7707 35.5732C13.071 35.5553 13.3694 35.5141 13.6633 35.45C13.55 35.8424 13.5891 36.2633 13.773 36.6281L13.9796 37.0169C13.9225 37.3558 13.7984 38.118 13.7703 38.3273C13.7268 38.6898 13.9887 38.9852 14.4635 39.1212L14.5542 39.2907C14.5986 39.3655 14.631 39.4468 14.6502 39.5317C14.5552 39.6765 14.4948 39.8413 14.4737 40.0132C14.4527 40.1852 14.4715 40.3597 14.5288 40.5232C14.5524 40.6319 14.7816 41.5971 15.3635 41.8019C15.6364 41.8868 15.9204 41.9305 16.2063 41.9315C16.3087 42.1317 16.4691 42.439 16.6694 42.8069C16.8454 43.0682 17.0712 43.2922 17.3338 43.4662C17.5965 43.6402 17.8908 43.7608 18.2 43.821C18.4106 44.0561 18.6514 44.2624 18.916 44.4345C19.2201 44.6216 19.5722 44.7161 19.9291 44.7064C19.9917 44.7064 20.0497 44.7064 20.1022 44.7001C20.2472 44.8577 20.4584 45.0798 20.607 45.2103C20.7793 45.3574 20.9995 45.4364 21.226 45.4323C21.2696 45.432 21.3132 45.4293 21.3565 45.4241C21.838 45.705 22.3841 45.8564 22.9415 45.8637C23.0933 45.864 23.2448 45.8521 23.3946 45.8283C23.7441 45.7703 24.073 45.6238 24.3499 45.4028C24.6268 45.1819 24.8427 44.8938 24.977 44.5659C25.182 44.5129 25.3657 44.3977 25.5026 44.2361C25.7293 44.2068 25.948 44.1329 26.146 44.0186L26.2366 43.9633L26.2937 43.8727L26.4596 43.6107H26.5149C26.7271 43.5961 26.9343 43.5395 27.1245 43.4443C27.3148 43.3491 27.4843 43.2172 27.6232 43.0561C27.8242 42.8677 27.983 42.6387 28.0891 42.3844C28.1951 42.1301 28.2461 41.8562 28.2385 41.5807C28.4759 41.2959 28.6296 40.9508 28.6826 40.5839C28.6983 40.5027 28.7186 40.4226 28.7433 40.3437C28.9223 39.5448 28.9937 38.7255 28.9554 37.9077C28.9217 37.7246 28.8425 37.5529 28.7252 37.4084C28.851 37.1496 28.9075 36.8627 28.8892 36.5755C28.8331 36.1631 28.653 35.7776 28.3727 35.4699C28.2993 35.392 28.1914 35.2887 28.1062 35.198C28.094 34.9429 27.9844 34.7022 27.7999 34.5256C27.7458 34.3634 27.6731 34.208 27.5833 34.0625C27.624 33.8833 27.6191 33.6967 27.5691 33.5199C27.5191 33.343 27.4255 33.1816 27.297 33.0502C27.1275 32.9436 26.9317 32.8864 26.7315 32.8853C26.5024 32.8737 26.2773 32.8206 26.0672 32.7285C25.6142 32.5331 25.1478 32.3705 24.6715 32.2418C24.4269 32.0767 24.1364 31.9933 23.8414 32.0035C23.6319 32.0052 23.4236 32.0342 23.2215 32.0896L23.0938 32.0524C22.9754 31.7066 22.7468 31.4093 22.4431 31.206C22.2075 31.0954 21.9111 30.9903 21.8241 30.9604L21.0846 30.6133C20.9457 30.5492 20.7944 30.5167 20.6415 30.5182C20.3535 30.5299 20.073 30.6137 19.8258 30.7619L19.3591 30.7855C19.3147 30.7701 19.2685 30.7556 19.225 30.7438V30.7057C19.2741 30.215 19.2871 29.7212 19.264 29.2286C19.318 28.983 19.3197 28.7287 19.2688 28.4825C19.2179 28.2362 19.1155 28.0034 18.9685 27.7994V27.6698C19.2618 27.4524 19.4752 27.1444 19.5757 26.7935C19.6092 26.5352 19.6201 26.2207 19.6219 26.1283L19.727 25.319C19.7355 25.099 19.6925 24.88 19.6014 24.6796C19.5103 24.4791 19.3737 24.3027 19.2023 24.1644L19.0374 23.7276C19.0464 23.5447 19.0281 23.3614 18.983 23.1839C19.2081 22.9836 19.3905 22.7402 19.5195 22.4679L19.6301 22.3936C19.8574 22.4674 20.0937 22.5101 20.3324 22.5205C20.4569 22.5238 20.5806 22.5 20.6949 22.4507C20.9324 22.3438 21.2051 22.1879 21.2849 22.1417L22.0289 21.8055C22.2204 21.6969 22.384 21.5452 22.5067 21.3624C22.6294 21.1796 22.7078 20.9708 22.7358 20.7524L23.0204 20.3836C23.2824 20.2415 23.5038 20.0351 23.6638 19.7836C23.7118 19.7836 23.759 19.79 23.8043 19.79H23.8133H23.8677C23.9746 19.79 24.1206 19.7737 24.2438 19.7628C24.4183 19.9031 24.6372 19.9764 24.861 19.9694C24.8927 19.9694 24.9235 19.9694 24.9516 19.9694C25.1131 20.0389 25.2822 20.0894 25.4555 20.1198C25.6661 20.3657 25.9588 20.5267 26.2792 20.573H26.33L26.4097 20.5585C26.6011 20.4988 26.7718 20.3867 26.9027 20.2349C27.0612 20.0689 27.2481 19.9326 27.4546 19.8326C27.6952 19.7202 27.9293 19.5946 28.1561 19.4565C28.1895 19.5934 28.2371 19.7264 28.2984 19.8534C28.3464 19.9495 28.4162 20.0782 28.4796 20.1869C28.4176 20.435 28.4532 20.6975 28.5793 20.9201C28.5811 21.0945 28.6033 21.2682 28.6455 21.4375C28.5553 21.5975 28.5065 21.7774 28.5035 21.961C28.5005 22.1445 28.5434 22.326 28.6282 22.4888C28.7601 22.6397 28.9315 22.7508 29.123 22.8096C29.3388 22.8869 29.5389 23.0023 29.7139 23.1503C30.0911 23.4684 30.4909 23.7585 30.9102 24.0185C31.0815 24.2023 31.2899 24.3475 31.5216 24.4447C31.7533 24.5419 32.003 24.5888 32.2541 24.5822L32.3647 24.652C32.3786 25.0169 32.512 25.3672 32.7444 25.6489C32.9384 25.8229 33.1912 26.0114 33.2664 26.063L33.8745 26.6068C34.0977 26.7933 34.3823 26.8902 34.6729 26.8787C34.8255 26.8776 34.9775 26.8593 35.126 26.8243L35.5792 26.9357C35.8726 27.1668 36.2343 27.2943 36.6078 27.2982C36.8491 27.2976 37.087 27.2411 37.3029 27.1333H37.3355C37.436 27.1351 37.5359 27.1167 37.6293 27.0794C37.7226 27.042 37.8076 26.9864 37.8792 26.9158L38.1683 26.9675L38.22 26.9774H38.2735C38.6732 26.9656 39.0544 26.8061 39.3436 26.5299C39.6328 26.2536 39.8094 25.88 39.8395 25.4812L39.9174 25.4241C39.9768 25.4379 40.0376 25.4449 40.0986 25.445C40.2604 25.4348 40.4175 25.3864 40.5571 25.3039C40.6966 25.2213 40.8147 25.107 40.9016 24.9701C41.1835 24.9383 41.4562 24.8506 41.7038 24.7121C41.9514 24.5736 42.1688 24.3871 42.3434 24.1635C42.5909 23.8122 42.6887 23.3771 42.6153 22.9537L42.5292 22.5214C42.6815 22.2133 43.024 21.5245 43.1074 21.327C43.2533 20.9898 43.0875 20.6346 42.6715 20.3672L42.6334 20.1787C42.6124 20.0941 42.605 20.0066 42.6117 19.9196C42.744 19.8082 42.8491 19.6679 42.9187 19.5095C42.9883 19.3511 43.0206 19.1789 43.0131 19.0061C43.0213 18.8946 43.0802 17.9041 42.5818 17.5407C42.3444 17.3829 42.0851 17.2608 41.8124 17.1782C41.7716 16.9561 41.7063 16.6154 41.6202 16.2057C41.4324 15.5971 41.0106 15.088 40.4475 14.7902C40.3128 14.5046 40.1416 14.2378 39.9382 13.9963C39.659 13.6879 39.2878 13.4775 38.8797 13.3964C38.7891 13.2042 38.6477 12.9315 38.5435 12.762C38.4697 12.65 38.3733 12.5547 38.2605 12.4823C38.1476 12.4099 38.0208 12.3619 37.8883 12.3415C37.4048 11.8192 36.7585 11.4764 36.055 11.3691C35.9627 11.3567 35.8698 11.3503 35.7767 11.3501C35.4894 11.3533 35.2058 11.4159 34.9438 11.5339C34.6818 11.652 34.447 11.823 34.2542 12.0361C34.103 11.8306 33.913 11.6567 33.6951 11.5241L33.6733 11.4235C33.7412 11.3331 33.7891 11.2293 33.8138 11.119C33.8598 10.8489 33.8036 10.5714 33.6561 10.3405C33.7409 10.0697 33.7709 9.78469 33.7445 9.50214C33.718 9.21959 33.6356 8.94513 33.502 8.69475C33.2804 8.32687 32.9219 8.06191 32.5052 7.95797L32.0656 7.86281C31.8463 7.59909 31.3506 7.0055 31.2074 6.85144C31.1487 6.78799 31.0773 6.73761 30.9978 6.70358C30.9183 6.66954 30.8326 6.6526 30.7461 6.65387C30.5337 6.66687 30.3291 6.73873 30.1553 6.8614L29.9659 6.81972C29.88 6.80492 29.7971 6.77646 29.7203 6.73544C29.6115 6.08475 28.4769 5.69234 27.9803 5.69234L27.9694 5.67965Z" fill="#FFB657"/>
<path d="M35.494 41.4937C35.2142 41.4312 34.9634 41.2768 34.7817 41.0551C34.5834 41.0291 34.3908 40.9706 34.2116 40.882C34.1665 40.8877 34.1211 40.8907 34.0757 40.8911C33.9762 40.8966 33.8767 40.8801 33.7843 40.8428C33.6919 40.8055 33.6088 40.7484 33.541 40.6754C33.4087 40.6881 33.2084 40.7053 33.0725 40.7116H33.0625C32.6998 40.7164 32.3435 40.616 32.0366 40.4225C31.8054 40.2367 31.6301 39.9905 31.53 39.7111C31.4931 39.716 31.4558 39.7184 31.4186 39.7184C31.2612 39.719 31.1067 39.6773 30.9709 39.5979C30.3583 39.1145 29.8101 38.5547 29.3396 37.9322C29.2909 37.8555 29.2383 37.7814 29.1819 37.7101C28.9381 37.441 28.788 37.1002 28.7542 36.7386C28.5407 36.5894 28.365 36.3922 28.2413 36.163C28.1177 35.9337 28.0493 35.6786 28.0419 35.4182C27.9968 35.2103 28.0073 34.9942 28.0724 34.7917C28.1374 34.5891 28.2548 34.4073 28.4125 34.2646L28.2621 33.777L28.2703 33.7235C28.3123 33.4963 28.4083 33.2824 28.5503 33.1C28.5183 32.9902 28.5103 32.8747 28.5269 32.7615C28.5435 32.6483 28.5842 32.54 28.6463 32.4439C28.4783 32.1544 28.3909 31.8252 28.3933 31.4905C28.3957 31.1558 28.4878 30.8278 28.6599 30.5408C29.0291 29.9629 29.5904 29.5338 30.245 29.3291C30.2989 29.2276 30.375 29.1395 30.4675 29.0713C30.5601 29.003 30.6667 28.9564 30.7797 28.9349C30.9944 28.9041 31.3841 28.8887 31.5817 28.8824C31.7974 28.5423 32.1214 28.2849 32.5015 28.1519C32.7983 28.0649 33.1057 28.0191 33.415 28.016H33.4449C33.8396 27.706 34.3175 27.5205 34.8179 27.4831C34.9092 27.4833 35.0003 27.4927 35.0898 27.5112C35.5928 27.6181 35.987 27.7115 36.1836 27.7604C36.3774 27.5226 36.6067 27.3159 36.8633 27.1478C36.9665 27.0934 37.0821 27.0668 37.1986 27.0708C37.6925 27.0708 38.6876 27.4749 38.7184 27.9634C38.7257 28.0694 38.9848 28.1682 39.1226 28.1909L39.4217 28.257C39.5775 28.1313 39.7663 28.0532 39.9654 28.0323C40.0206 28.031 40.0754 28.0416 40.1261 28.0631C40.1769 28.0847 40.2225 28.1168 40.2599 28.1574C40.4077 28.3159 40.9849 29.0101 41.1608 29.2186L41.671 29.3328C42.0251 29.4262 42.329 29.6537 42.5183 29.9671C42.6419 30.2081 42.7149 30.4719 42.7327 30.7422C42.7504 31.0124 42.7126 31.2835 42.6216 31.5386L42.6352 31.5567C42.7747 31.7499 42.835 31.9892 42.8038 32.2255C42.7789 32.3364 42.7214 32.4374 42.6388 32.5155L42.7041 32.8227C43.0366 32.9703 43.2984 33.2418 43.4338 33.5794C43.5693 33.9171 43.5675 34.2943 43.4291 34.6307L43.1636 35.0304C43.2008 35.0851 43.2267 35.1467 43.2397 35.2116C43.2651 35.3498 43.2383 35.4926 43.1645 35.6122C43.186 35.8954 43.1207 36.1785 42.9773 36.4236C42.8338 36.6687 42.619 36.8643 42.3615 36.9842L42.0144 37.4374C41.997 37.6291 41.9349 37.814 41.8331 37.9774C41.7312 38.1408 41.5925 38.278 41.4281 38.378L40.6623 38.7233C40.6623 38.7233 40.3506 38.9046 40.0932 39.0242C40.0087 39.0596 39.9175 39.0763 39.8258 39.0731C39.5744 39.0589 39.3262 39.0085 39.0891 38.9236L38.8335 39.0931C38.7506 39.3119 38.6206 39.5098 38.4527 39.6729C38.2848 39.8359 38.0832 39.96 37.862 40.0365C37.4542 40.3164 37.0265 40.5663 36.5824 40.7841C36.3525 40.8939 36.1446 41.0447 35.9688 41.2291C35.8652 41.3502 35.7314 41.4418 35.581 41.4946L35.494 41.4937Z" fill="#FFD59E"/>
<path d="M37.195 27.291C37.6608 27.291 38.471 27.6852 38.4891 27.9716C38.5118 28.3132 39.0818 28.4075 39.0818 28.4075L39.4724 28.4981C39.6112 28.3761 39.7797 28.2926 39.9609 28.2561C39.9848 28.2553 40.0086 28.2594 40.0307 28.2683C40.0529 28.2772 40.0729 28.2907 40.0896 28.3078C40.2609 28.4945 41.0312 29.4207 41.0312 29.4207L41.6175 29.5521C41.6175 29.5521 42.8863 29.824 42.3806 31.5359C42.3748 31.5497 42.372 31.5647 42.3722 31.5797C42.3725 31.5947 42.3758 31.6095 42.382 31.6232C42.3882 31.6369 42.3971 31.6491 42.4083 31.6592C42.4194 31.6693 42.4325 31.677 42.4467 31.6818C42.4467 31.6818 42.8029 32.1802 42.3815 32.414L42.5029 32.975C42.6525 33.0315 42.7895 33.117 42.906 33.2265C43.0225 33.336 43.1163 33.4674 43.1821 33.6131C43.2478 33.7589 43.2841 33.9162 43.2891 34.076C43.294 34.2359 43.2674 34.3951 43.2107 34.5446L42.8681 35.0503C42.91 35.0758 42.9454 35.1107 42.9716 35.1522C42.9977 35.1937 43.0139 35.2406 43.0189 35.2894C43.0239 35.3382 43.0176 35.3875 43.0004 35.4334C42.9832 35.4794 42.9556 35.5207 42.9198 35.5542C42.9598 35.8117 42.911 36.0752 42.7814 36.3014C42.6517 36.5275 42.449 36.7028 42.2066 36.7985L41.7906 37.3377C41.7906 37.3377 41.7299 37.9802 41.3284 38.1615L40.5617 38.5076C40.5617 38.5076 40.2491 38.6889 39.9935 38.8076C39.9378 38.8292 39.8783 38.8391 39.8186 38.8366C39.5556 38.8149 39.2969 38.7563 39.0501 38.6626L38.645 38.9345C38.645 38.9345 38.3441 39.7293 37.7669 39.8136C37.3573 40.0957 36.9282 40.3483 36.4827 40.5694C35.939 40.8168 35.7215 41.2201 35.523 41.2663C35.513 41.2672 35.503 41.2672 35.4931 41.2663C35.2846 41.2663 34.894 40.844 34.894 40.844C34.894 40.844 34.324 40.7533 34.2751 40.6401C34.2098 40.6557 34.1429 40.6636 34.0757 40.6636C33.9911 40.6718 33.9059 40.6545 33.8311 40.614C33.7564 40.5735 33.6954 40.5116 33.6561 40.4362C33.6561 40.4362 33.2782 40.4751 33.0625 40.4842H33.0127C32.709 40.482 32.4121 40.3941 32.1563 40.2304C31.9241 40.0167 31.7551 39.7434 31.6678 39.4402C31.5865 39.4726 31.4997 39.4889 31.4122 39.4882C31.2949 39.4885 31.1798 39.4572 31.0787 39.3976C30.5002 38.9337 29.9796 38.4018 29.5281 37.8135C29.3469 37.5017 28.9101 37.1256 28.9844 36.6091C28.7661 36.4905 28.5836 36.3156 28.4561 36.1024C28.3286 35.8893 28.2606 35.6458 28.2594 35.3974C28.1896 34.4622 28.6772 34.3742 28.6772 34.3742L28.486 33.7571C28.5318 33.5059 28.6611 33.2776 28.853 33.1091C28.853 33.1091 28.5512 33.0248 28.8974 32.4294C28.7243 32.1676 28.6275 31.8628 28.6179 31.549C28.6083 31.2353 28.6863 30.9251 28.843 30.6532C29.2026 30.096 29.7545 29.6906 30.3936 29.514C30.4275 29.4251 30.4823 29.3457 30.5535 29.2826C30.6246 29.2195 30.71 29.1745 30.8023 29.1515C31.0905 29.1098 31.7004 29.0981 31.7004 29.0981C31.8893 28.7592 32.192 28.4981 32.555 28.3613C32.8309 28.2802 33.1166 28.2375 33.4042 28.2344C33.4712 28.2344 33.5093 28.2344 33.5093 28.2344C33.8788 27.9303 34.3307 27.7434 34.807 27.6979C34.8838 27.6976 34.9603 27.7055 35.0354 27.7215C35.7604 27.8755 36.2607 28.0033 36.2607 28.0033C36.4599 27.7439 36.6987 27.5176 36.9685 27.3327C37.0372 27.2981 37.1136 27.2818 37.1905 27.2856M37.1905 26.8324C37.0325 26.8273 36.8761 26.8646 36.7374 26.9403C36.4958 27.0926 36.2781 27.2798 36.0912 27.4958C35.8719 27.4432 35.5339 27.3653 35.1251 27.2783C35.0193 27.2561 34.9115 27.2448 34.8034 27.2448C34.278 27.2757 33.7735 27.4614 33.3534 27.7786C33.0379 27.7857 32.7247 27.8341 32.4218 27.9226C32.0265 28.0527 31.6838 28.307 31.4449 28.6477C31.231 28.6558 30.9256 28.6712 30.7307 28.7002C30.5984 28.7218 30.4722 28.7711 30.3602 28.8448C30.2483 28.9185 30.1531 29.015 30.081 29.128C29.4079 29.3592 28.8329 29.8115 28.4497 30.4112C28.2663 30.7143 28.1635 31.0593 28.151 31.4133C28.1385 31.7673 28.2166 32.1187 28.3781 32.434C28.2853 32.6245 28.2537 32.8391 28.2875 33.0484C28.162 33.2392 28.0758 33.4529 28.0337 33.6773L28.0165 33.7834L28.0482 33.8858L28.1389 34.1848C27.9962 34.3549 27.8922 34.5539 27.834 34.7681C27.7758 34.9823 27.7648 35.2066 27.8017 35.4255C27.8142 35.7025 27.8858 35.9737 28.0116 36.2208C28.1374 36.4679 28.3146 36.6852 28.5313 36.8583C28.5924 37.223 28.7533 37.5636 28.9962 37.8425C29.0475 37.9072 29.0953 37.9747 29.1394 38.0446C29.6293 38.7006 30.2051 39.288 30.8513 39.7909C31.0119 39.8847 31.1937 39.9361 31.3796 39.9404C31.4944 40.2046 31.6759 40.4344 31.9061 40.6074C32.2357 40.8202 32.6194 40.9341 33.0118 40.9355H33.0815C33.1885 40.931 33.3344 40.9201 33.4576 40.9092C33.6322 41.0493 33.851 41.1226 34.0748 41.1158C34.1065 41.1158 34.1364 41.1158 34.1654 41.1158C34.3268 41.1859 34.4959 41.2365 34.6693 41.2663C34.8796 41.5121 35.172 41.6731 35.4922 41.7194H35.5438L35.6236 41.7049C35.8148 41.6456 35.9856 41.5338 36.1166 41.3823C36.2744 41.216 36.4611 41.0796 36.6676 40.9799C37.1108 40.7632 37.5379 40.5149 37.9454 40.2368C38.1827 40.1539 38.3997 40.0218 38.5825 39.8493C38.7652 39.6767 38.9094 39.4675 39.0057 39.2354L39.1154 39.162C39.3427 39.2357 39.5789 39.2784 39.8177 39.2888C39.9422 39.2921 40.0659 39.2683 40.1802 39.2191C40.4176 39.1121 40.6904 38.9562 40.7702 38.9091L41.5142 38.5738C41.7057 38.4652 41.8693 38.3135 41.992 38.1308C42.1147 37.948 42.1931 37.7391 42.2211 37.5207L42.5056 37.1519C42.7802 37.0119 43.0091 36.7963 43.1653 36.5306C43.3216 36.2649 43.3986 35.9601 43.3874 35.6521C43.4644 35.4996 43.4883 35.3258 43.4554 35.1582C43.4473 35.1183 43.4358 35.0791 43.421 35.0412L43.5859 34.7975L43.6158 34.7531L43.6348 34.7032C43.7856 34.333 43.7939 33.92 43.6582 33.544C43.5225 33.1679 43.2523 32.8555 42.8999 32.6669L42.879 32.5762C42.9473 32.486 42.9955 32.3821 43.0204 32.2717C43.0667 32.0016 43.0101 31.7238 42.8618 31.4933C42.9468 31.2225 42.977 30.9375 42.9506 30.6549C42.9241 30.3723 42.8416 30.0978 42.7077 29.8475C42.4859 29.4798 42.1275 29.2149 41.7109 29.1107L41.2804 29.0147C41.0611 28.751 40.5654 28.1583 40.4222 28.0033C40.3633 27.9401 40.2918 27.8899 40.2124 27.8558C40.133 27.8218 40.0473 27.8048 39.9609 27.8057C39.7483 27.8186 39.5436 27.8908 39.37 28.0142L39.1806 27.9716C39.0944 27.9572 39.0111 27.9287 38.9341 27.8873C38.8254 27.2366 37.6907 26.8442 37.195 26.8442L37.1905 26.8324Z" fill="#FFB657"/>
<path d="M14.169 36.407C14.169 36.407 13.5464 35.2696 15.1786 34.5365C15.1929 34.5318 15.206 34.5243 15.2173 34.5144C15.2286 34.5044 15.2377 34.4923 15.244 34.4787C15.2504 34.4651 15.2539 34.4504 15.2543 34.4353C15.2548 34.4203 15.2521 34.4054 15.2466 34.3915C15.2466 34.3915 15.3934 33.7961 15.8456 33.9637L16.1918 33.5106C16.1374 33.3602 16.1132 33.2006 16.1205 33.0409C16.1278 32.8812 16.1666 32.7244 16.2345 32.5797C16.3024 32.4349 16.3982 32.305 16.5163 32.1972C16.6345 32.0895 16.7727 32.0061 16.9231 31.9518L17.5303 31.883C17.5303 31.883 17.4678 31.544 17.8792 31.5159C18.048 31.3172 18.2796 31.182 18.5356 31.1325C18.7916 31.0831 19.0569 31.1225 19.2875 31.2441L19.9681 31.2096C19.9681 31.2096 20.4956 30.8381 20.8952 31.0284L21.6565 31.3854C21.6565 31.3854 21.9999 31.5023 22.2537 31.6211C22.5074 31.7398 22.7576 32.4321 22.7576 32.4321L23.227 32.5636C23.227 32.5636 24.0254 32.2754 24.4649 32.6542C24.9459 32.7818 25.4171 32.9436 25.8751 33.1381C26.4188 33.3937 26.8638 33.2922 27.0287 33.41C27.1937 33.5278 27.1193 34.1604 27.1193 34.1604C27.1193 34.1604 27.4184 34.6543 27.3667 34.763C27.3667 34.763 27.7682 35.0349 27.6151 35.3657C27.6151 35.3657 27.8869 35.6276 28.0374 35.7853C28.252 36.0225 28.3906 36.3186 28.4352 36.6353C28.424 36.9504 28.3265 37.2564 28.1534 37.5198C28.2437 37.5678 28.3223 37.6353 28.3833 37.7175C28.4443 37.7996 28.4862 37.8943 28.5059 37.9947C28.5293 38.7361 28.4635 39.4776 28.3102 40.2032C28.1942 40.5467 28.1905 41.1204 27.7492 41.3995C27.8006 41.6426 27.7857 41.8951 27.706 42.1304C27.6262 42.3658 27.4847 42.5753 27.2961 42.7371C26.6318 43.3987 26.2475 43.086 26.2475 43.086L25.9031 43.6298C25.6827 43.7582 25.4254 43.8087 25.1727 43.773C25.1727 43.773 25.305 44.0566 24.629 44.1808C24.5429 44.4827 24.3744 44.7547 24.1425 44.9663C23.9106 45.1779 23.6243 45.3207 23.3158 45.3788C22.6587 45.4679 21.9917 45.3125 21.4417 44.942C21.3524 44.9739 21.2567 44.9837 21.1628 44.9706C21.069 44.9575 20.9796 44.9219 20.9025 44.8668C20.6822 44.6747 20.2772 44.2197 20.2772 44.2197C19.8969 44.2968 19.5017 44.2368 19.1616 44.0503C18.8892 43.8765 18.6476 43.6588 18.4465 43.4059C17.8968 43.3189 17.4017 43.0232 17.0645 42.5803C16.7074 41.9269 16.4809 41.4666 16.4809 41.4666C16.1544 41.4842 15.8271 41.4503 15.5112 41.366C15.1315 41.2318 14.7608 40.041 15.0055 39.8018C15.2502 39.5625 14.9511 39.0686 14.9511 39.0686L14.7635 38.7152C14.7635 38.7152 14.1881 38.6246 14.2198 38.3708C14.2515 38.1171 14.4527 36.9317 14.4527 36.9317L14.169 36.407Z" fill="url(#paint0_linear_265_39)"/>
<path d="M19.1778 34.7694C19.0664 34.88 18.8063 34.7984 18.5978 34.5882C18.3903 34.377 18.3124 34.116 18.4238 34.0054L19.0319 33.4064C19.1443 33.2958 19.4035 33.3774 19.6119 33.5877C19.8204 33.7997 19.8983 34.0598 19.7859 34.1704L19.1778 34.7694Z" fill="#3B6B16"/>
<path d="M18.8706 40.2966C18.9703 40.419 18.8643 40.6691 18.6341 40.8567C18.4048 41.0443 18.1375 41.0968 18.0378 40.9754L17.4986 40.3138C17.3998 40.1915 17.5049 39.9405 17.7351 39.7538C17.9653 39.5662 18.2326 39.5127 18.3314 39.6351L18.8706 40.2966Z" fill="#3B6B16"/>
<path d="M26.1623 39.9531C26.0998 40.0972 25.8288 40.1199 25.556 40.003C25.2841 39.886 25.1129 39.674 25.1745 39.5299L25.5107 38.7451C25.5723 38.6001 25.8433 38.5774 26.1161 38.6943C26.3879 38.8112 26.5601 39.0233 26.4985 39.1674L26.1623 39.9531Z" fill="#3B6B16"/>
<path d="M23.8369 43.0416C23.8786 43.1939 23.6801 43.3797 23.3937 43.4567C23.1074 43.5346 22.8418 43.4748 22.8001 43.3235L22.5763 42.4988C22.5355 42.3475 22.734 42.1617 23.0204 42.0837C23.3067 42.0058 23.5723 42.0656 23.614 42.2179L23.8369 43.0416Z" fill="#3B6B16"/>
<path d="M15.7731 37.3911C15.6263 37.335 15.5918 37.0649 15.6979 36.7876C15.8039 36.5103 16.0087 36.3345 16.1555 36.387L16.953 36.6906C17.0998 36.7468 17.1343 37.0169 17.0282 37.2942C16.9222 37.5715 16.7183 37.7473 16.5751 37.6947L15.7731 37.3911Z" fill="#3B6B16"/>
<path d="M23.903 35.1871C23.9692 35.3294 23.8051 35.5496 23.536 35.672C23.2641 35.797 22.9922 35.7834 22.9288 35.6402L22.5663 34.8663C22.4992 34.724 22.6642 34.5038 22.9333 34.3815C23.2052 34.2564 23.4771 34.2709 23.5405 34.4132L23.903 35.1871Z" fill="#3B6B16"/>
<path d="M21.2676 38.8801C21.1562 38.9907 20.8961 38.9091 20.6886 38.6988C20.4801 38.4877 20.4022 38.2267 20.5136 38.117L21.1217 37.5171C21.2341 37.4074 21.4933 37.489 21.7017 37.6983C21.9102 37.9095 21.9881 38.1705 21.8766 38.2811L21.2676 38.8801Z" fill="#3B6B16"/>
<path d="M25.8596 41.6034C25.3885 41.4756 24.927 41.3148 24.4785 41.1222C23.9347 40.8666 24.4205 41.4847 24.9896 41.8055C25.5587 42.1263 26.5012 42.1281 25.8596 41.6034Z" fill="#D11B1B"/>
<path d="M16.4926 34.1649C16.4926 34.1649 15.5936 35.0177 15.7758 35.1029C15.9579 35.1881 16.682 35.5288 16.7663 35.2352C16.8506 34.9416 16.9838 34.0625 16.4926 34.1649Z" fill="#D11B1B"/>
<path d="M19.4062 42.0139C19.4062 42.0139 20.0279 41.7511 20.3061 42.1046C20.5843 42.458 20.1439 42.8042 20.1439 42.8042C20.1439 42.8042 19.1235 42.3801 19.4062 42.0139Z" fill="#D11B1B"/>
<path d="M25.9566 34.7785C25.9566 34.7785 25.3095 35.8052 25.7391 35.9512C26.1687 36.0971 26.4324 34.9461 26.4324 34.9461C26.4324 34.9461 26.175 34.4368 25.9566 34.7785Z" fill="#D11B1B"/>
<path d="M19.8068 38.3219C19.8068 38.3219 19.3237 38.7605 19.6418 38.9091C19.9599 39.0578 20.1946 38.5593 20.1946 38.5593L19.8068 38.3219Z" fill="#D11B1B"/>
<path d="M32.4036 8.40205C32.4036 8.40205 33.6724 8.66939 33.1667 10.3867C33.1609 10.4006 33.1581 10.4155 33.1583 10.4305C33.1586 10.4456 33.1619 10.4604 33.1681 10.474C33.1743 10.4877 33.1833 10.5 33.1944 10.5101C33.2055 10.5201 33.2186 10.5278 33.2329 10.5326C33.2329 10.5326 33.589 11.0302 33.1676 11.2649L33.289 11.825C33.4387 11.8814 33.5757 11.9668 33.6923 12.0763C33.8089 12.1858 33.9028 12.3172 33.9685 12.463C34.0343 12.6087 34.0706 12.7661 34.0755 12.9259C34.0803 13.0858 34.0536 13.2451 33.9968 13.3946L33.6543 13.9012C33.6961 13.9267 33.7315 13.9616 33.7577 14.0031C33.7838 14.0445 33.8001 14.0915 33.8051 14.1403C33.8101 14.1891 33.8037 14.2384 33.7865 14.2843C33.7693 14.3302 33.7417 14.3715 33.7059 14.405C33.746 14.6625 33.6973 14.9259 33.5678 15.152C33.4384 15.3781 33.2359 15.5535 32.9936 15.6493L32.5776 16.1931C32.5776 16.1931 32.516 16.8356 32.1145 17.0169L31.3479 17.3621C31.3479 17.3621 31.0361 17.5434 30.7805 17.6621C30.525 17.7808 29.8362 17.5171 29.8362 17.5171L29.4311 17.789C29.4311 17.789 29.1303 18.5838 28.5539 18.668C28.144 18.9501 27.7145 19.2027 27.2688 19.4239C26.7251 19.6704 26.5085 20.0745 26.3091 20.1199C26.1097 20.1652 25.6811 19.7012 25.6811 19.7012C25.6811 19.7012 25.111 19.6105 25.0612 19.4973C25.0612 19.4973 24.5909 19.6214 24.4422 19.2934C24.4422 19.2934 24.0643 19.3314 23.8486 19.3414C23.5283 19.3502 23.2126 19.2627 22.9424 19.0904C22.7112 18.8743 22.5441 18.5986 22.4594 18.2938C22.3641 18.3311 22.2617 18.3467 22.1597 18.3395C22.0576 18.3323 21.9585 18.3024 21.8694 18.2521C21.2909 17.7881 20.7705 17.2559 20.3197 16.667C20.1385 16.3544 19.7016 15.9792 19.776 15.4626C19.5575 15.3443 19.375 15.1693 19.2474 14.9562C19.1199 14.743 19.052 14.4994 19.051 14.251C18.9803 13.3157 19.4678 13.2278 19.4678 13.2278L19.2775 12.6107C19.3221 12.3598 19.4498 12.1313 19.64 11.9618C19.64 11.9618 19.3382 11.8784 19.6853 11.283C19.5122 11.0211 19.4154 10.7161 19.4056 10.4023C19.3958 10.0884 19.4735 9.77807 19.63 9.50586C19.9901 8.94877 20.5422 8.54337 21.1815 8.3667C21.2151 8.27779 21.2698 8.19835 21.3408 8.13521C21.4118 8.07207 21.4971 8.02712 21.5894 8.0042C21.8785 7.96161 22.4884 7.94983 22.4884 7.94983C22.6769 7.61125 22.9794 7.35051 23.342 7.21395C23.6514 7.1201 23.9742 7.07844 24.2972 7.0907C24.7205 6.72946 25.2669 6.54568 25.8225 6.57776C26.5475 6.73183 27.0486 6.85961 27.0486 6.85961C27.2474 6.59959 27.4863 6.37291 27.7564 6.18808C28.1044 5.98689 29.2499 6.4808 29.2725 6.82245C29.2952 7.16411 29.8643 7.25836 29.8643 7.25836L30.2549 7.34898C30.2549 7.34898 30.7008 6.97289 30.8721 7.15867C31.0434 7.34445 31.8137 8.27155 31.8137 8.27155L32.4036 8.40205Z" fill="url(#paint1_linear_265_39)"/>
<path d="M30.3872 13.2713C30.3764 13.1136 30.6075 12.9704 30.9029 12.9496C31.1992 12.9287 31.4466 13.0402 31.4593 13.1961L31.5182 14.048C31.5291 14.2047 31.298 14.3488 31.0026 14.3697C30.7062 14.3896 30.4588 14.2791 30.4461 14.1232L30.3872 13.2713Z" fill="#3B6B16"/>
<path d="M26.3907 9.44147C26.233 9.43694 26.1116 9.19407 26.1188 8.89772C26.127 8.60138 26.2602 8.36394 26.417 8.36847L27.2707 8.38932C27.4284 8.38932 27.5498 8.63672 27.5426 8.93307C27.5353 9.23032 27.4021 9.46685 27.2453 9.46322L26.3907 9.44147Z" fill="#3B6B16"/>
<path d="M21.9074 15.2016C21.8377 15.0603 21.9981 14.8391 22.2636 14.7086C22.5291 14.5772 22.8019 14.5854 22.8708 14.7268L23.2487 15.4925C23.3176 15.6339 23.1581 15.855 22.8925 15.9855C22.6261 16.116 22.3542 16.1079 22.2844 15.9674L21.9074 15.2016Z" fill="#3B6B16"/>
<path d="M21.0747 11.4262C20.9324 11.3582 20.9206 11.0864 21.0475 10.8181C21.1752 10.5508 21.3937 10.3876 21.535 10.4556L22.3072 10.8181C22.4485 10.8861 22.4603 11.158 22.3334 11.4253C22.2056 11.6972 21.9881 11.8558 21.8459 11.7878L21.0747 11.4262Z" fill="#3B6B16"/>
<path d="M30.6156 8.9802C30.7534 8.90498 30.9781 9.05451 31.1222 9.31551C31.2645 9.57651 31.2672 9.84839 31.1295 9.92361L30.3791 10.3314C30.2413 10.4066 30.0166 10.2562 29.8725 9.99611C29.7302 9.73511 29.7275 9.46323 29.8652 9.38801L30.6156 8.9802Z" fill="#3B6B16"/>
<path d="M26.9951 16.5873C26.8438 16.5447 26.7867 16.2783 26.8664 15.9928C26.9462 15.7073 27.1383 15.5098 27.2851 15.5523L28.1071 15.7825C28.2593 15.8251 28.3164 16.0907 28.2367 16.377C28.1569 16.6625 27.9693 16.8601 27.818 16.8175L26.9951 16.5873Z" fill="#3B6B16"/>
<path d="M25.9031 12.1829C25.8923 12.0261 26.1234 11.882 26.4197 11.8621C26.7151 11.8412 26.9635 11.9527 26.9752 12.1086L27.0341 12.9604C27.0459 13.1172 26.8148 13.2613 26.5185 13.2813C26.2221 13.3021 25.9747 13.1906 25.963 13.0348L25.9031 12.1829Z" fill="#3B6B16"/>
<path d="M20.8508 13.8975C21.2558 13.6225 21.6797 13.3766 22.1195 13.1616C22.6633 12.9142 21.883 12.8825 21.2685 13.1054C20.6541 13.3284 20.036 14.0443 20.8508 13.8975Z" fill="#D11B1B"/>
<path d="M32.594 11.6255C32.594 11.6255 32.5314 10.3876 32.3484 10.4701C32.1653 10.5525 31.434 10.8833 31.6034 11.1371C31.7729 11.3908 32.352 12.0651 32.594 11.6255Z" fill="#D11B1B"/>
<path d="M24.7386 8.73011C24.7386 8.73011 24.5329 9.37354 24.0852 9.35542C23.6375 9.33729 23.6592 8.77723 23.6592 8.77723C23.6592 8.77723 24.6443 8.27789 24.7386 8.73011Z" fill="#D11B1B"/>
<path d="M25.9693 18.4125C25.9693 18.4125 25.6068 17.2525 25.2207 17.4845C24.8347 17.7165 25.5334 18.6626 25.5334 18.6626C25.5334 18.6626 26.0889 18.7985 25.9693 18.4125Z" fill="#D11B1B"/>
<path d="M27.2806 11.4361C27.2806 11.4361 27.2616 10.7845 26.9417 10.9286C26.6218 11.0727 26.851 11.5766 26.851 11.5766L27.2806 11.4361Z" fill="#D11B1B"/>
<path d="M12.1045 20.4923C12.1045 20.4923 12.9981 19.5534 14.1944 20.8847C14.203 20.897 14.2141 20.9074 14.227 20.9151C14.2398 20.9229 14.2542 20.9279 14.2691 20.9299C14.284 20.9319 14.2991 20.9307 14.3136 20.9265C14.328 20.9223 14.3414 20.9152 14.3529 20.9056C14.3529 20.9056 14.9638 20.8639 14.942 21.3451L15.4858 21.5363C15.6125 21.4387 15.7572 21.367 15.9117 21.3254C16.0661 21.2837 16.2273 21.2729 16.3859 21.2935C16.5445 21.3141 16.6975 21.3658 16.8362 21.4455C16.9749 21.5253 17.0965 21.6316 17.194 21.7583L17.4442 22.3157C17.4442 22.3157 17.7478 22.1535 17.8973 22.5368C18.1375 22.6379 18.3362 22.8176 18.4607 23.0466C18.5852 23.2755 18.6281 23.5399 18.5824 23.7965L18.8226 24.4309C18.8226 24.4309 19.3373 24.8206 19.2757 25.2574L19.1679 26.0911C19.1679 26.0911 19.1606 26.4536 19.1253 26.7318C19.0899 27.0101 18.5054 27.4568 18.5054 27.4568L18.5235 27.9435C18.5235 27.9435 19.0419 28.6168 18.8108 29.1515C18.8356 29.6486 18.8247 30.1468 18.7782 30.6423C18.7011 31.2377 18.9331 31.631 18.8688 31.8204C18.8044 32.0098 18.1819 32.1358 18.1819 32.1358C18.1819 32.1358 17.8021 32.5708 17.6834 32.5554C17.6834 32.5554 17.542 33.0212 17.185 32.975C17.185 32.975 17.0191 33.3176 16.9131 33.5051C16.7518 33.7804 16.512 34.0013 16.2244 34.1395C15.9205 34.2243 15.5993 34.2243 15.2955 34.1395C15.2775 34.2402 15.2372 34.3356 15.1776 34.4187C15.1181 34.5018 15.0406 34.5705 14.9511 34.6198C14.2522 34.8683 13.5259 35.0317 12.7879 35.1065C12.4254 35.1001 11.8816 35.2714 11.4774 34.9361C11.2619 35.0593 11.0173 35.1223 10.7691 35.1186C10.5209 35.115 10.2782 35.0447 10.0664 34.9153C9.23445 34.4839 9.41479 34.0226 9.41479 34.0226L8.79039 33.8604C8.59931 33.6901 8.47154 33.4601 8.42789 33.2079C8.42789 33.2079 8.19861 33.4209 7.87326 32.8137C7.55941 32.8234 7.24906 32.7456 6.97695 32.5889C6.70485 32.4322 6.48175 32.2028 6.33264 31.9265C6.04758 31.3279 5.99243 30.6454 6.17767 30.0088C6.12033 29.9332 6.08214 29.8448 6.06635 29.7513C6.05057 29.6577 6.05767 29.5617 6.08704 29.4714C6.20214 29.1996 6.51298 28.6794 6.51298 28.6794C6.32305 28.3411 6.25884 27.9466 6.33173 27.5656C6.41424 27.2531 6.5484 26.9566 6.72867 26.6883C6.6433 26.1386 6.77314 25.577 7.09117 25.1205C7.60592 24.5813 7.97476 24.2251 7.97476 24.2251C7.85825 23.9196 7.79095 23.5975 7.77539 23.2709C7.78808 22.8685 8.80942 22.1535 9.1112 22.3139C9.41298 22.4743 9.79361 22.042 9.79361 22.042L10.0727 21.7556C10.0727 21.7556 9.98664 21.1783 10.235 21.1303C10.4833 21.0823 11.6759 20.9137 11.6759 20.9137L12.1045 20.4923Z" fill="url(#paint2_linear_265_39)"/>
<path d="M15.1886 24.7653C15.0499 24.6919 15.049 24.42 15.1886 24.1572C15.3263 23.8944 15.5511 23.7412 15.6897 23.8137L16.4464 24.2106C16.5851 24.284 16.586 24.5559 16.4464 24.8187C16.3087 25.0815 16.0839 25.2356 15.9453 25.1622L15.1886 24.7653Z" fill="#3B6B16"/>
<path d="M9.83081 26.1555C9.74471 26.2869 9.47374 26.2624 9.22543 26.1002C8.97712 25.938 8.84481 25.7005 8.9309 25.5682L9.39671 24.8532C9.48734 24.7218 9.75377 24.7462 10.003 24.9076C10.2513 25.0698 10.3827 25.3081 10.2975 25.4395L9.83081 26.1555Z" fill="#3B6B16"/>
<path d="M12.3773 32.9959C12.2214 32.9805 12.1172 32.7294 12.1453 32.434C12.1734 32.1386 12.3266 31.9111 12.4797 31.9256L13.3298 32.0071C13.4866 32.0226 13.5908 32.2736 13.5618 32.569C13.5337 32.8645 13.3805 33.0919 13.2274 33.0765L12.3773 32.9959Z" fill="#3B6B16"/>
<path d="M8.72785 31.7217C8.59554 31.8068 8.3581 31.6745 8.19679 31.4253C8.03548 31.1761 8.01554 30.9051 8.14422 30.819L8.86107 30.355C8.99247 30.2698 9.23082 30.4031 9.39213 30.6514C9.55254 30.9006 9.57338 31.1725 9.44469 31.2577L8.72785 31.7217Z" fill="#3B6B16"/>
<path d="M11.656 22.3193C11.6641 22.1625 11.9115 22.0474 12.2079 22.0646C12.5042 22.0809 12.7371 22.2214 12.7281 22.3782L12.6819 23.231C12.6737 23.3878 12.4263 23.5029 12.1299 23.4856C11.8336 23.4693 11.6007 23.3289 11.6089 23.1721L11.656 22.3193Z" fill="#3B6B16"/>
<path d="M16.2298 29.3935C16.1138 29.4995 15.8574 29.4089 15.6562 29.1914C15.455 28.973 15.3843 28.7102 15.5012 28.6032L16.1292 28.0241C16.2443 27.9181 16.5017 28.0087 16.702 28.2262C16.9032 28.4446 16.9739 28.7075 16.857 28.8144L16.2298 29.3935Z" fill="#3B6B16"/>
<path d="M11.9097 28.0069C11.7701 27.9344 11.7692 27.6616 11.9097 27.3997C12.0474 27.1369 12.2722 26.9829 12.4118 27.0563L13.1676 27.4532C13.3071 27.5257 13.308 27.7985 13.1676 28.0613C13.0298 28.3232 12.8051 28.4773 12.6655 28.4039L11.9097 28.0069Z" fill="#3B6B16"/>
<path d="M10.7135 33.2097C10.6917 32.7222 10.7041 32.2337 10.7506 31.748C10.8286 31.1507 10.3881 31.8023 10.2558 32.4421C10.1235 33.082 10.4108 33.98 10.7135 33.2097Z" fill="#D11B1B"/>
<path d="M14.9474 22.023C14.9474 22.023 13.8599 21.4267 13.8355 21.6261C13.811 21.8254 13.7068 22.6229 14.0113 22.6093C14.3158 22.5957 15.1948 22.4625 14.9474 22.023Z" fill="#D11B1B"/>
<path d="M8.35813 27.1877C8.35813 27.1877 8.79766 27.6997 8.54663 28.0722C8.29559 28.4447 7.83069 28.1311 7.83069 28.1311C7.83069 28.1311 7.92313 27.03 8.35813 27.1877Z" fill="#D11B1B"/>
<path d="M17.2439 31.2251C17.2439 31.2251 16.0658 30.9206 16.0603 31.3746C16.0549 31.8286 17.2285 31.7289 17.2285 31.7289C17.2285 31.7289 17.6354 31.3266 17.2439 31.2251Z" fill="#D11B1B"/>
<path d="M11.9958 26.45C11.9958 26.45 11.4312 26.1237 11.3859 26.4726C11.3406 26.8215 11.888 26.8913 11.888 26.8913L11.9958 26.45Z" fill="#D11B1B"/>
<path d="M42.1649 23.0507C42.1649 23.0507 42.4367 24.3194 40.6596 24.5514C40.6446 24.5516 40.6298 24.5549 40.6161 24.5611C40.6024 24.5673 40.5902 24.5762 40.5801 24.5874C40.5701 24.5985 40.5625 24.6116 40.5577 24.6259C40.553 24.6401 40.5513 24.6552 40.5526 24.6701C40.5526 24.6701 40.2409 25.1985 39.8566 24.9076L39.3926 25.2447C39.4016 25.4043 39.3789 25.5641 39.3261 25.715C39.2732 25.8659 39.1911 26.0048 39.0844 26.1239C38.9778 26.243 38.8487 26.3399 38.7045 26.4091C38.5604 26.4783 38.4041 26.5184 38.2444 26.527L37.6427 26.4183C37.6427 26.4183 37.6046 26.7608 37.2022 26.6702C36.9835 26.8098 36.7239 26.8711 36.4658 26.8441C36.2077 26.8171 35.9664 26.7034 35.7812 26.5216L35.1197 26.3594C35.1197 26.3594 34.507 26.5633 34.179 26.2688L33.5528 25.7069C33.5528 25.7069 33.2573 25.4966 33.0489 25.3099C32.8405 25.1233 32.7988 24.3874 32.7988 24.3874L32.3882 24.1264C32.3882 24.1264 31.54 24.1735 31.2291 23.6796C30.8054 23.419 30.4008 23.1286 30.0184 22.8105C29.5707 22.4099 29.1121 22.3782 28.9925 22.2142C28.8729 22.0502 29.1221 21.4702 29.1221 21.4702C29.1221 21.4702 28.978 20.911 29.0578 20.8213C29.0578 20.8213 28.7533 20.4407 28.9943 20.1724C28.9943 20.1724 28.8058 19.8425 28.7098 19.6495C28.5732 19.3603 28.5258 19.0369 28.5738 18.7206C28.6753 18.4221 28.8568 18.1572 29.0985 17.9548C29.0259 17.8828 28.9702 17.7955 28.9356 17.6992C28.9009 17.603 28.8882 17.5002 28.8983 17.3984C29.0889 16.6816 29.3649 15.9904 29.7202 15.3394C29.9314 15.0448 30.1 14.4966 30.602 14.3552C30.6226 14.1079 30.7091 13.8707 30.8525 13.6683C30.996 13.4658 31.1911 13.3056 31.4176 13.2043C32.2441 12.762 32.5215 13.1716 32.5215 13.1716L33.009 12.7484C33.2572 12.6883 33.5185 12.7138 33.7503 12.8209C33.7503 12.8209 33.705 12.511 34.3847 12.5871C34.5542 12.3228 34.794 12.1109 35.0771 11.9752C35.3603 11.8394 35.6756 11.7852 35.9879 11.8186C36.6428 11.9223 37.2368 12.2629 37.6572 12.7756C37.7518 12.7711 37.8461 12.7895 37.9321 12.8292C38.0181 12.869 38.0932 12.9289 38.1511 13.004C38.307 13.2505 38.5643 13.8033 38.5643 13.8033C38.9503 13.8388 39.3112 14.01 39.583 14.2863C39.7939 14.5314 39.9626 14.8097 40.0823 15.1101C40.0823 15.1101 41.0148 15.5687 41.1698 16.2982C41.3248 17.0277 41.4072 17.5325 41.4072 17.5325C41.7252 17.6094 42.029 17.7364 42.3071 17.9086C42.6325 18.146 42.6443 19.393 42.3416 19.5516C42.0389 19.7102 42.1821 20.2694 42.1821 20.2694L42.26 20.6618C42.26 20.6618 42.7847 20.9164 42.6841 21.1493C42.5835 21.3823 42.0498 22.4607 42.0498 22.4607L42.1649 23.0507Z" fill="url(#paint3_linear_265_39)"/>
<path d="M36.8968 23.1757C37.0355 23.1023 37.2593 23.2555 37.3998 23.5183C37.5385 23.7802 37.5375 24.053 37.3998 24.1264L36.6449 24.5251C36.5053 24.5985 36.2824 24.4454 36.1419 24.1826C36.0033 23.9207 36.0042 23.6488 36.1419 23.5754L36.8968 23.1757Z" fill="#3B6B16"/>
<path d="M38.7819 17.972C38.722 17.8261 38.896 17.6168 39.1697 17.5035C39.4416 17.3902 39.7135 17.4129 39.7751 17.5615L40.1014 18.3508C40.1612 18.4958 39.9872 18.7052 39.7135 18.8185C39.4416 18.9317 39.1697 18.9091 39.1081 18.7605L38.7819 17.972Z" fill="#3B6B16"/>
<path d="M31.7031 16.2021C31.8046 16.0816 32.0702 16.1378 32.2985 16.3281C32.526 16.5184 32.6284 16.7704 32.5278 16.8909L31.9841 17.5461C31.8835 17.6666 31.617 17.6104 31.3896 17.4201C31.1621 17.2298 31.0597 16.9779 31.1603 16.8573L31.7031 16.2021Z" fill="#3B6B16"/>
<path d="M34.8161 13.9129C34.8161 13.7561 35.0644 13.6347 35.3598 13.641C35.6571 13.6492 35.8936 13.7833 35.8891 13.9401L35.8664 14.7938C35.8664 14.9506 35.6181 15.072 35.3227 15.0657C35.0263 15.0575 34.7889 14.9234 34.7934 14.7666L34.8161 13.9129Z" fill="#3B6B16"/>
<path d="M40.9124 21.6469C41.0366 21.7429 40.9913 22.0094 40.81 22.2468C40.6288 22.4815 40.3823 22.5948 40.2572 22.4987L39.5802 21.9776C39.4561 21.8825 39.5014 21.6151 39.6827 21.3786C39.8639 21.1439 40.1113 21.0306 40.2355 21.1267L40.9124 21.6469Z" fill="#3B6B16"/>
<path d="M32.4925 21.4158C32.4698 21.2599 32.6891 21.0995 32.9827 21.0533C33.2764 21.0107 33.5328 21.1022 33.5555 21.2581L33.6778 22.1027C33.6996 22.2586 33.4803 22.419 33.1866 22.4652C32.893 22.5078 32.6365 22.4154 32.6139 22.2604L32.4925 21.4158Z" fill="#3B6B16"/>
<path d="M36.0785 18.6381C36.2181 18.5647 36.441 18.7179 36.5815 18.9798C36.7201 19.2426 36.7192 19.5145 36.5815 19.5879L35.8266 19.9866C35.6879 20.06 35.4641 19.9069 35.3236 19.645C35.1849 19.3822 35.1858 19.1103 35.3236 19.0369L36.0785 18.6381Z" fill="#3B6B16"/>
<path d="M32.4662 14.7077C32.8804 14.966 33.2758 15.2531 33.6497 15.5669C34.0983 15.9683 33.8092 15.2379 33.357 14.7657C32.9048 14.2936 32.0022 14.0226 32.4662 14.7077Z" fill="#D11B1B"/>
<path d="M39.2948 24.5288C39.2948 24.5288 40.4004 23.9705 40.2509 23.8364C40.1013 23.7023 39.5041 23.1676 39.3401 23.4249C39.1761 23.6823 38.7945 24.4853 39.2948 24.5288Z" fill="#D11B1B"/>
<path d="M38.7637 16.1731C38.7637 16.1731 38.0931 16.2456 37.9272 15.8288C37.7614 15.4119 38.2843 15.2053 38.2843 15.2053C38.2843 15.2053 39.1398 15.904 38.7637 16.1731Z" fill="#D11B1B"/>
<path d="M30.4081 21.2164C30.4081 21.2164 31.3234 20.4198 30.9519 20.1561C30.5803 19.8924 29.9994 20.9192 29.9994 20.9192C29.9994 20.9192 30.1027 21.4819 30.4081 21.2164Z" fill="#D11B1B"/>
<path d="M37.3219 19.5924C37.3219 19.5924 37.9109 19.3115 37.649 19.0767C37.3871 18.842 37.0146 19.258 37.0146 19.258L37.3219 19.5924Z" fill="#D11B1B"/>
<path d="M41.6175 29.5485C41.6175 29.5485 42.8862 29.8204 42.3806 31.5323C42.3747 31.5461 42.3717 31.5611 42.3719 31.5761C42.3721 31.5912 42.3754 31.606 42.3816 31.6198C42.3878 31.6335 42.3968 31.6457 42.408 31.6558C42.4192 31.6659 42.4324 31.6735 42.4467 31.6782C42.4467 31.6782 42.8029 32.1766 42.3815 32.4104L42.5029 32.9714C42.6525 33.0279 42.7894 33.1134 42.906 33.2229C43.0225 33.3324 43.1163 33.4638 43.182 33.6095C43.2478 33.7553 43.2841 33.9126 43.289 34.0724C43.294 34.2323 43.2673 34.3915 43.2107 34.541L42.8681 35.0467C42.91 35.0722 42.9454 35.1071 42.9715 35.1486C42.9977 35.1901 43.0139 35.237 43.0189 35.2858C43.0239 35.3346 43.0176 35.3839 43.0004 35.4298C42.9832 35.4757 42.9556 35.5171 42.9198 35.5506C42.9598 35.8081 42.9109 36.0716 42.7813 36.2978C42.6517 36.5239 42.449 36.6992 42.2066 36.7949L41.7906 37.3341C41.7906 37.3341 41.7299 37.9766 41.3284 38.1579L40.5617 38.504C40.5617 38.504 40.2491 38.6853 39.9935 38.804C39.7379 38.9227 39.0501 38.659 39.0501 38.659L38.645 38.9309C38.645 38.9309 38.3441 39.7257 37.7668 39.81C37.3573 40.0921 36.9281 40.3447 36.4827 40.5658C35.9389 40.8132 35.7214 41.2165 35.523 41.2627C35.3245 41.3089 34.894 40.8431 34.894 40.8431C34.894 40.8431 34.324 40.7525 34.2751 40.6392C34.2751 40.6392 33.8038 40.7633 33.6561 40.4353C33.6561 40.4353 33.2782 40.4742 33.0625 40.4833C32.7421 40.4918 32.4266 40.4044 32.1562 40.2323C31.9241 40.0186 31.7551 39.7452 31.6678 39.442C31.5727 39.4793 31.4704 39.4949 31.3685 39.4877C31.2666 39.4805 31.1676 39.4506 31.0787 39.4003C30.5 38.9356 29.9794 38.4028 29.5281 37.8135C29.3469 37.5017 28.9101 37.1256 28.9844 36.6091C28.7661 36.4906 28.5836 36.3156 28.4561 36.1025C28.3285 35.8893 28.2606 35.6458 28.2594 35.3974C28.1896 34.4622 28.6771 34.3743 28.6771 34.3743L28.4859 33.7571C28.5318 33.5059 28.6611 33.2776 28.853 33.1091C28.853 33.1091 28.5512 33.0249 28.8974 32.4295C28.7243 32.1676 28.6275 31.8628 28.6179 31.5491C28.6083 31.2353 28.6862 30.9251 28.843 30.6532C29.2025 30.0961 29.7544 29.6906 30.3936 29.514C30.4274 29.4251 30.4823 29.3458 30.5535 29.2826C30.6246 29.2195 30.71 29.1745 30.8023 29.1515C31.0905 29.1099 31.7004 29.0981 31.7004 29.0981C31.8892 28.7592 32.192 28.4982 32.555 28.3613C32.864 28.2675 33.1865 28.2258 33.5093 28.238C33.9331 27.8772 34.4797 27.6935 35.0354 27.7251C35.7604 27.8792 36.2606 28.007 36.2606 28.007C36.4599 27.7476 36.6987 27.5213 36.9684 27.3363C37.3173 27.1351 38.4628 27.6281 38.4846 27.9707C38.5063 28.3133 39.0773 28.4066 39.0773 28.4066L39.4679 28.4972C39.4679 28.4972 39.9128 28.1211 40.085 28.3069C40.2572 28.4927 41.0266 29.4198 41.0266 29.4198L41.6175 29.5485Z" fill="url(#paint4_linear_265_39)"/>
<path d="M39.6011 34.4168C39.5902 34.26 39.8213 34.1159 40.1167 34.0951C40.4131 34.0752 40.6605 34.1857 40.6723 34.3416L40.7321 35.1935C40.743 35.3512 40.5119 35.4943 40.2155 35.5152C39.9201 35.536 39.6718 35.4246 39.66 35.2687L39.6011 34.4168Z" fill="#3B6B16"/>
<path d="M35.6 30.587C35.4432 30.587 35.3218 30.3396 35.3281 30.0433C35.3354 29.746 35.4686 29.5095 35.6263 29.5131L36.48 29.5339C36.6367 29.5385 36.7582 29.7814 36.7518 30.0777C36.7446 30.374 36.6114 30.6115 36.4537 30.6069L35.6 30.587Z" fill="#3B6B16"/>
<path d="M31.1204 36.3472C31.0515 36.2058 31.211 35.9847 31.4766 35.8542C31.743 35.7237 32.0149 35.7309 32.0846 35.8723L32.4616 36.6381C32.5314 36.7794 32.371 37.0006 32.1055 37.1311C31.84 37.2625 31.5672 37.2543 31.4983 37.1129L31.1204 36.3472Z" fill="#3B6B16"/>
<path d="M30.2875 32.5717C30.1462 32.5046 30.1344 32.2328 30.2613 31.9645C30.389 31.6926 30.6065 31.534 30.7488 31.602L31.52 31.969C31.6623 32.0361 31.6741 32.308 31.5472 32.5762C31.4195 32.8481 31.2011 33.0067 31.0588 32.9387L30.2875 32.5717Z" fill="#3B6B16"/>
<path d="M39.8268 30.1258C39.9645 30.0505 40.1893 30.201 40.3334 30.4611C40.4747 30.7221 40.4784 30.994 40.3397 31.0692L39.5902 31.4779C39.4516 31.5531 39.2277 31.4027 39.0836 31.1417C38.9414 30.8816 38.9386 30.6088 39.0764 30.5336L39.8268 30.1258Z" fill="#3B6B16"/>
<path d="M36.209 37.7328C36.0576 37.6902 35.9996 37.4247 36.0794 37.1383C36.1601 36.8529 36.3513 36.6562 36.499 36.6979L37.321 36.9281C37.4723 36.9707 37.5303 37.2371 37.4506 37.5226C37.3699 37.8081 37.1787 38.0056 37.031 37.963L36.209 37.7328Z" fill="#3B6B16"/>
<path d="M35.1197 33.3294C35.1088 33.1717 35.3399 33.0285 35.6353 33.0076C35.9317 32.9868 36.1791 33.0983 36.1918 33.2541L36.2507 34.106C36.2616 34.2628 36.0305 34.4069 35.735 34.4277C35.4387 34.4477 35.1913 34.3371 35.1786 34.1812L35.1197 33.3294Z" fill="#3B6B16"/>
<path d="M30.0637 35.0431C30.4676 34.7689 30.89 34.523 31.3279 34.3072C31.8771 34.0598 31.0923 34.029 30.477 34.251C29.8616 34.473 29.2499 35.1899 30.0637 35.0431Z" fill="#D11B1B"/>
<path d="M41.8078 32.7711C41.8078 32.7711 41.7453 31.5341 41.5622 31.6166C41.3792 31.699 40.6469 32.0289 40.8173 32.2827C40.9877 32.5364 41.5658 33.2107 41.8078 32.7711Z" fill="#D11B1B"/>
<path d="M33.9524 29.8765C33.9524 29.8765 33.7467 30.5191 33.2981 30.5018C32.8495 30.4846 32.8722 29.9227 32.8722 29.9227C32.8722 29.9227 33.8582 29.4234 33.9524 29.8765Z" fill="#D11B1B"/>
<path d="M35.1831 39.558C35.1831 39.558 34.8206 38.3989 34.4346 38.63C34.0485 38.8611 34.7463 39.8081 34.7463 39.8081C34.7463 39.8081 35.3028 39.9441 35.1831 39.558Z" fill="#D11B1B"/>
<path d="M36.4936 32.5817C36.4936 32.5817 36.4745 31.9301 36.1546 32.0751C35.8347 32.2201 36.064 32.7221 36.064 32.7221L36.4936 32.5817Z" fill="#D11B1B"/>
<path d="M22.1332 12.7828C22.1332 12.7828 23.4019 13.0547 22.8962 14.7666C22.8903 14.7805 22.8874 14.7954 22.8875 14.8104C22.8877 14.8255 22.891 14.8404 22.8972 14.8541C22.9035 14.8678 22.9125 14.8801 22.9237 14.8901C22.9349 14.9002 22.9481 14.9078 22.9624 14.9125C22.9624 14.9125 23.3185 15.4109 22.8971 15.6448L23.0186 16.2057C23.1681 16.2623 23.3051 16.3477 23.4216 16.4572C23.5381 16.5667 23.632 16.6981 23.6977 16.8439C23.7634 16.9896 23.7998 17.1469 23.8047 17.3068C23.8096 17.4666 23.783 17.6258 23.7263 17.7753L23.3838 18.281C23.4256 18.3066 23.461 18.3414 23.4872 18.3829C23.5134 18.4244 23.5296 18.4714 23.5346 18.5202C23.5396 18.5689 23.5332 18.6182 23.516 18.6642C23.4988 18.7101 23.4712 18.7514 23.4354 18.7849C23.4754 19.0425 23.4266 19.306 23.297 19.5321C23.1674 19.7582 22.9647 19.9335 22.7222 20.0292L22.3062 20.5684C22.3062 20.5684 22.2455 21.2109 21.8441 21.3922L21.0774 21.7384C21.0774 21.7384 20.7647 21.9196 20.5091 22.0383C20.2536 22.1571 19.5657 21.8933 19.5657 21.8933L19.1606 22.1652C19.1606 22.1652 18.8598 22.96 18.2825 23.0443C17.8729 23.3264 17.4438 23.579 16.9983 23.8001C16.4546 24.0475 16.2371 24.4508 16.0386 24.497C15.8401 24.5432 15.4097 24.0774 15.4097 24.0774C15.4097 24.0774 14.8396 23.9868 14.7907 23.8735C14.7907 23.8735 14.3195 23.9977 14.1717 23.6696C14.1717 23.6696 13.7938 23.7086 13.5781 23.7176C13.2578 23.7261 12.9422 23.6387 12.6719 23.4666C12.4397 23.2529 12.2708 22.9795 12.1834 22.6763C12.0883 22.7136 11.9861 22.7292 11.8842 22.722C11.7823 22.7148 11.6833 22.685 11.5944 22.6347C11.0157 22.1699 10.4951 21.6371 10.0438 21.0478C9.86252 20.7361 9.42571 20.36 9.50002 19.8434C9.28173 19.7249 9.09928 19.5499 8.97174 19.3368C8.8442 19.1236 8.77626 18.8801 8.77502 18.6318C8.70524 17.6965 9.1928 17.6086 9.1928 17.6086L9.00159 16.9914C9.0462 16.7409 9.17389 16.5126 9.36409 16.3435C9.36409 16.3435 9.0623 16.2592 9.40849 15.6638C9.23539 15.402 9.13862 15.0971 9.12902 14.7834C9.11941 14.4697 9.19736 14.1595 9.35412 13.8875C9.71366 13.3304 10.2656 12.9249 10.9047 12.7484C10.9386 12.6595 10.9934 12.5801 11.0646 12.517C11.1357 12.4538 11.2211 12.4089 11.3134 12.3859C11.6016 12.3442 12.2115 12.3324 12.2115 12.3324C12.4004 11.9935 12.7031 11.7325 13.0661 11.5956C13.3787 11.5012 13.705 11.4601 14.0313 11.4742C14.4551 11.1134 15.0017 10.9297 15.5574 10.9613C16.2824 11.1153 16.7826 11.2431 16.7826 11.2431C16.9819 10.9837 17.2207 10.7574 17.4904 10.5725C17.8393 10.3713 18.9848 10.8643 19.0066 11.2068C19.0283 11.5494 19.5993 11.6428 19.5993 11.6428L19.9899 11.7334C19.9899 11.7334 20.4348 11.3573 20.607 11.5431C20.7792 11.7288 21.5486 12.6559 21.5486 12.6559L22.1332 12.7828Z" fill="url(#paint5_linear_265_39)"/>
<path d="M20.1167 17.6512C20.1058 17.4944 20.3369 17.3503 20.6324 17.3295C20.9287 17.3095 21.1761 17.4201 21.1879 17.576L21.2477 18.4278C21.2586 18.5855 21.0275 18.7287 20.7311 18.7496C20.4357 18.7704 20.1874 18.6589 20.1756 18.5031L20.1167 17.6512Z" fill="#3B6B16"/>
<path d="M16.1156 13.8214C15.9588 13.8214 15.8374 13.574 15.8437 13.2776C15.851 12.9804 15.9842 12.7439 16.1419 12.7475L16.9956 12.7683C17.1524 12.7683 17.2738 13.0157 17.2675 13.3121C17.2602 13.6084 17.127 13.8459 16.9693 13.8413L16.1156 13.8214Z" fill="#3B6B16"/>
<path d="M11.636 19.5815C11.5671 19.4402 11.7266 19.219 11.9922 19.0885C12.2586 18.958 12.5305 18.9653 12.6003 19.1067L12.9773 19.8724C13.0471 20.0138 12.8866 20.2349 12.6211 20.3654C12.3556 20.4968 12.0828 20.4887 12.0139 20.3473L11.636 19.5815Z" fill="#3B6B16"/>
<path d="M10.8032 15.8061C10.6618 15.739 10.65 15.4671 10.7769 15.1989C10.9047 14.927 11.1222 14.7684 11.2645 14.8364L12.0357 15.2034C12.178 15.2705 12.1898 15.5423 12.0629 15.8106C11.9351 16.0779 11.7167 16.2411 11.5744 16.1731L10.8032 15.8061Z" fill="#3B6B16"/>
<path d="M20.3424 13.3601C20.4801 13.2849 20.7049 13.4354 20.849 13.6955C20.9904 13.9565 20.994 14.2283 20.8553 14.3035L20.1059 14.7123C19.9672 14.7875 19.7434 14.637 19.5993 14.376C19.457 14.116 19.4543 13.8432 19.592 13.768L20.3424 13.3601Z" fill="#3B6B16"/>
<path d="M16.7246 20.9672C16.5733 20.9246 16.5153 20.6591 16.5951 20.3727C16.6757 20.0872 16.8669 19.8906 17.0146 19.9323L17.8366 20.1625C17.988 20.2051 18.046 20.4715 17.9662 20.757C17.8856 21.0424 17.6943 21.24 17.5466 21.1974L16.7246 20.9672Z" fill="#3B6B16"/>
<path d="M15.6353 16.5637C15.6244 16.406 15.8555 16.2629 16.151 16.242C16.4473 16.2212 16.6947 16.3326 16.7074 16.4885L16.7663 17.3404C16.7772 17.4972 16.5461 17.6413 16.2507 17.6621C15.9543 17.682 15.7069 17.5715 15.6942 17.4156L15.6353 16.5637Z" fill="#3B6B16"/>
<path d="M10.5793 18.2775C10.9832 18.0033 11.4057 17.7574 11.8436 17.5416C12.3928 17.2942 11.6079 17.2634 10.9926 17.4854C10.3773 17.7074 9.76553 18.4243 10.5793 18.2775Z" fill="#D11B1B"/>
<path d="M22.3234 16.0055C22.3234 16.0055 22.2609 14.7685 22.0778 14.8509C21.8948 14.9334 21.1634 15.2633 21.3329 15.517C21.5024 15.7708 22.0815 16.445 22.3234 16.0055Z" fill="#D11B1B"/>
<path d="M14.4681 13.1109C14.4681 13.1109 14.2624 13.7534 13.8138 13.7362C13.3652 13.719 13.3878 13.1571 13.3878 13.1571C13.3878 13.1571 14.3738 12.6578 14.4681 13.1109Z" fill="#D11B1B"/>
<path d="M15.6988 22.7924C15.6988 22.7924 15.3408 21.6333 14.9502 21.8644C14.5596 22.0955 15.2619 23.0425 15.2619 23.0425C15.2619 23.0425 15.8184 23.1785 15.6988 22.7924Z" fill="#D11B1B"/>
<path d="M17.0092 15.816C17.0092 15.816 16.9902 15.1644 16.6702 15.3094C16.3503 15.4544 16.5796 15.9565 16.5796 15.9565L17.0092 15.816Z" fill="#D11B1B"/>
<path d="M25.3721 31.7978C28.4172 31.7978 30.8857 29.3292 30.8857 26.2841C30.8857 23.239 28.4172 20.7705 25.3721 20.7705C22.327 20.7705 19.8585 23.239 19.8585 26.2841C19.8585 29.3292 22.327 31.7978 25.3721 31.7978Z" fill="#FFE9CC"/>
<path d="M25.3712 20.9971C26.4169 20.9971 27.4391 21.3072 28.3085 21.8881C29.178 22.4691 29.8556 23.2948 30.2558 24.2609C30.656 25.2269 30.7607 26.29 30.5567 27.3156C30.3527 28.3412 29.8491 29.2832 29.1097 30.0226C28.3703 30.7621 27.4282 31.2656 26.4026 31.4696C25.377 31.6736 24.314 31.5689 23.3479 31.1687C22.3818 30.7686 21.5561 30.0909 20.9751 29.2215C20.3942 28.352 20.0841 27.3298 20.0841 26.2841C20.0841 24.8819 20.6411 23.5371 21.6327 22.5456C22.6242 21.5541 23.969 20.9971 25.3712 20.9971ZM25.3712 20.5439C24.2359 20.5441 23.1262 20.8809 22.1824 21.5118C21.2385 22.1426 20.5029 23.0392 20.0686 24.0881C19.6343 25.137 19.5207 26.2911 19.7423 27.4045C19.9639 28.518 20.5107 29.5407 21.3135 30.3434C22.1163 31.1461 23.1391 31.6927 24.2526 31.9141C25.366 32.1355 26.5201 32.0218 27.569 31.5873C28.6178 31.1528 29.5142 30.4171 30.1449 29.4731C30.7756 28.5292 31.1123 27.4194 31.1123 26.2841C31.1104 24.7622 30.5048 23.3031 29.4286 22.227C28.3523 21.1509 26.8931 20.5456 25.3712 20.5439Z" fill="#FFC06E"/>
<path d="M25.3811 30.8108C27.8757 30.8108 29.8979 28.7886 29.8979 26.2941C29.8979 23.7996 27.8757 21.7773 25.3811 21.7773C22.8866 21.7773 20.8644 23.7996 20.8644 26.2941C20.8644 28.7886 22.8866 30.8108 25.3811 30.8108Z" fill="#FFD59E"/>
<path d="M25.3811 30.249C27.5603 30.249 29.3269 28.4824 29.3269 26.3032C29.3269 24.124 27.5603 22.3574 25.3811 22.3574C23.2019 22.3574 21.4353 24.124 21.4353 26.3032C21.4353 28.4824 23.2019 30.249 25.3811 30.249Z" fill="#FFBB00"/>
<path d="M25.3213 26.8506C25.3213 26.8506 24.4151 27.0771 24.5284 27.4922C24.5686 27.6146 24.6436 27.7226 24.7441 27.803C24.8447 27.8835 24.9666 27.933 25.0948 27.9453L25.6612 27.9073C25.6612 27.9073 25.8877 27.1143 25.3213 26.8506Z" fill="#FFE99A"/>
<path d="M25.7373 24.2451C25.7373 24.2451 24.8311 25.3399 25.2081 25.6416C25.4147 25.7496 25.6468 25.7995 25.8795 25.7863C26.1123 25.773 26.3372 25.6971 26.5303 25.5664C26.5252 25.2961 26.4493 25.0318 26.3101 24.7999C26.171 24.5681 25.9735 24.3768 25.7373 24.2451Z" fill="#FFE99A"/>
<path d="M23.5849 25.1514C23.5849 25.1514 22.6787 25.3779 22.792 25.793C22.8322 25.9154 22.9072 26.0234 23.0078 26.1038C23.1083 26.1843 23.2302 26.2337 23.3584 26.2461L23.9248 26.2081C23.9248 26.2081 24.1513 25.4151 23.5849 25.1514Z" fill="#FFE99A"/>
<path d="M26.2321 28.5C26.117 28.5598 25.933 28.432 25.8207 28.2145C25.7083 27.9979 25.7101 27.7731 25.8252 27.7142L26.4505 27.3907C26.5656 27.3309 26.7496 27.4587 26.8619 27.6762C26.9743 27.8928 26.9725 28.1175 26.8574 28.1764L26.2321 28.5Z" fill="#FF2F0A"/>
<path d="M24.8809 25.1595C24.8356 25.281 24.609 25.3109 24.3843 25.2257C24.155 25.1414 24.0055 24.9737 24.0499 24.8523L24.2945 24.1926C24.339 24.0711 24.5619 24.0412 24.7912 24.1255C25.0205 24.2107 25.17 24.3783 25.1247 24.4998L24.8809 25.1595Z" fill="#00C40A"/>
<path d="M22.8717 28.2362C22.7566 28.2951 22.5718 28.1673 22.4594 27.9507C22.347 27.7332 22.3497 27.5094 22.4648 27.4496L23.0938 27.1261C23.2088 27.0662 23.3937 27.194 23.5061 27.4115C23.6185 27.629 23.6158 27.8529 23.5007 27.9127L22.8717 28.2362Z" fill="#FF2F0A"/>
<path d="M28.737 27.9743C28.8276 28.065 28.7614 28.2807 28.5874 28.4528C28.4143 28.625 28.1996 28.6903 28.108 28.5978L27.6123 28.0985C27.5217 28.0079 27.5878 27.7922 27.7618 27.62C27.9349 27.4478 28.1497 27.3826 28.2412 27.475L28.737 27.9743Z" fill="#00C40A"/>
<path d="M24.7177 28.8896C24.7177 28.8896 23.8115 29.1162 23.9248 29.5313C23.965 29.6536 24.04 29.7616 24.1406 29.8421C24.2411 29.9226 24.363 29.972 24.4912 29.9844L25.0576 29.9463C25.0576 29.9463 25.2842 29.1534 24.7177 28.8896Z" fill="#FFE99A"/>
<path d="M28.0781 24.1689C28.0781 24.1689 27.1719 24.3955 27.2852 24.8115C27.3254 24.9338 27.4004 25.0418 27.5009 25.1223C27.6015 25.2028 27.7234 25.2522 27.8516 25.2646L28.418 25.2265C28.418 25.2265 28.6445 24.4336 28.0781 24.1689Z" fill="#FFE99A"/>
<path opacity="0.47" d="M23.5849 22.7915C23.5849 22.7915 22.376 23.9995 23.3584 24.9058C24.3407 25.812 24.8084 25.3208 25.3213 25.5474C25.8342 25.774 25.9258 26.2651 26.2085 26.6431C26.4913 27.021 28.8521 27.2656 28.814 28.2471C29.2333 27.5089 29.4032 26.6551 29.2984 25.8126C29.1936 24.9701 28.8196 24.1839 28.2321 23.571C27.6447 22.9581 26.8751 22.5512 26.0378 22.4107C25.2005 22.2703 24.3402 22.4038 23.5849 22.7915Z" fill="#FFF2D7"/>
</g>
<defs>
<linearGradient id="paint0_linear_265_39" x1="23.2467" y1="34.4432" x2="19.2648" y2="41.8793" gradientUnits="userSpaceOnUse">
<stop stop-color="#FF8521"/>
<stop offset="1" stop-color="#E85F1E"/>
</linearGradient>
<linearGradient id="paint1_linear_265_39" x1="27.9616" y1="16.5352" x2="24.9097" y2="8.66205" gradientUnits="userSpaceOnUse">
<stop stop-color="#FF8521"/>
<stop offset="1" stop-color="#E85F1E"/>
</linearGradient>
<linearGradient id="paint2_linear_265_39" x1="16.7063" y1="28.544" x2="8.40644" y2="27.0114" gradientUnits="userSpaceOnUse">
<stop stop-color="#FF8521"/>
<stop offset="1" stop-color="#E85F1E"/>
</linearGradient>
<linearGradient id="paint3_linear_265_39" x1="32.922" y1="22.2895" x2="38.8814" y2="16.3126" gradientUnits="userSpaceOnUse">
<stop stop-color="#FF8521"/>
<stop offset="1" stop-color="#E85F1E"/>
</linearGradient>
<linearGradient id="paint4_linear_265_39" x1="37.169" y1="37.6922" x2="34.1163" y2="29.8194" gradientUnits="userSpaceOnUse">
<stop stop-color="#FF8521"/>
<stop offset="1" stop-color="#E85F1E"/>
</linearGradient>
<linearGradient id="paint5_linear_265_39" x1="17.6855" y1="20.9116" x2="14.6331" y2="13.0397" gradientUnits="userSpaceOnUse">
<stop stop-color="#FF8521"/>
<stop offset="1" stop-color="#E85F1E"/>
</linearGradient>
<clipPath id="clip0_265_39">
<rect width="51" height="51" fill="white"/>
</clipPath>
</defs>
</svg>
