<svg width="40" height="40" viewBox="0 0 40 40" fill="none" xmlns="http://www.w3.org/2000/svg">
<path d="M31.2344 15.1133H33.7109C34.0078 15.1133 34.2539 15.3555 34.2539 15.6562V16.8164C34.2539 17.1133 34.0117 17.3594 33.7109 17.3594H31.2344V15.1133Z" fill="#A4A9AD"/>
<path d="M31.2344 15.1133H32.3906V17.3594H31.2344V15.1133Z" fill="black"/>
<path d="M8.72656 15.1133H6.25C5.95312 15.1133 5.70703 15.3555 5.70703 15.6562V16.8164C5.70703 17.1133 5.94922 17.3594 6.25 17.3594H8.72656V15.1133Z" fill="#A4A9AD"/>
<path d="M7.57031 15.1133H8.72656V17.3594H7.57031V15.1133Z" fill="black"/>
<path d="M26.8203 8.36719H24.0586V6.17188C24.0586 5.71484 23.6719 5.32422 23.2109 5.32422H16.7461C16.2891 5.32422 15.8984 5.71094 15.8984 6.17188V8.36719H13.1367V6.17188C13.1367 4.18359 14.7539 2.5625 16.7461 2.5625H23.2109C25.1992 2.5625 26.8203 4.17969 26.8203 6.17188V8.36719Z" fill="#A4A9AD"/>
<path d="M26.8125 5.92969H24.0234C24.0469 6.00781 24.0586 6.08594 24.0586 6.17187V8.36719H26.8203V6.17187C26.8203 6.08984 26.8164 6.01172 26.8125 5.92969ZM13.1367 6.17187V8.36719H15.8984V6.17187C15.8984 6.08984 15.9102 6.00781 15.9336 5.92969H13.1445C13.1406 6.01172 13.1367 6.08984 13.1367 6.17187Z" fill="black"/>
<path d="M30.3281 8.15625C30.3281 7.42187 29.7266 6.82031 28.9922 6.82031H10.9687C10.2344 6.82031 9.63281 7.42187 9.63281 8.15625V10.0664C9.63281 10.8008 10.2344 11.4023 10.9687 11.4023H28.9922C29.7266 11.4023 30.3281 10.8008 30.3281 10.0664V8.15625Z" fill="#D1D3D3"/>
<path d="M30.3008 7.89453H9.65625C9.64062 7.98047 9.62891 8.06641 9.62891 8.15625V10.0664C9.62891 10.8008 10.2305 11.4023 10.9648 11.4023H28.9883C29.7227 11.4023 30.3242 10.8008 30.3242 10.0664V8.15625C30.3281 8.06641 30.3203 7.98047 30.3008 7.89453Z" fill="black"/>
<path d="M8.26172 11.7656V35.4609C8.26172 36.582 9.17969 37.4961 10.2969 37.4961H29.6602C30.7812 37.4961 31.6953 36.5781 31.6953 35.4609V11.7656H8.26172Z" fill="#D1D3D3"/>
<path d="M8.26172 34.3281V35.4609C8.26172 36.582 9.17969 37.4961 10.2969 37.4961H29.6602C30.7812 37.4961 31.6953 36.5781 31.6953 35.4609V34.3281H8.26172ZM8.26172 11.7656H31.6992V14.6641H8.26172V11.7656Z" fill="black"/>
<path d="M33.293 10.3008C33.293 9.56641 32.6914 8.96484 31.957 8.96484H8.00391C7.26953 8.96484 6.66797 9.56641 6.66797 10.3008V11.6758C6.66797 12.4102 7.26953 13.0117 8.00391 13.0117H31.957C32.6914 13.0117 33.293 12.4102 33.293 11.6758V10.3008ZM19.9805 31.957C19.2187 31.957 18.5977 31.3398 18.5977 30.5742V17.6172C18.5977 16.8555 19.2148 16.2344 19.9805 16.2344C20.7461 16.2344 21.3633 16.8516 21.3633 17.6172V30.5781C21.3594 31.3398 20.7422 31.957 19.9805 31.957ZM13.5938 31.957C12.832 31.957 12.2109 31.3398 12.2109 30.5742V17.6172C12.2109 16.8555 12.8281 16.2344 13.5938 16.2344C14.3555 16.2344 14.9766 16.8516 14.9766 17.6172V30.5781C14.9766 31.3398 14.3555 31.957 13.5938 31.957ZM26.3633 31.957C25.6016 31.957 24.9805 31.3398 24.9805 30.5742V17.6172C24.9805 16.8555 25.5977 16.2344 26.3633 16.2344C27.125 16.2344 27.7461 16.8516 27.7461 17.6172V30.5781C27.7461 31.3398 27.1289 31.957 26.3633 31.957Z" fill="#A4A9AD"/>
</svg>
